<?xml version="1.0" encoding="UTF-8"?>
<svg id="svg" version="1.1" width="512" height="126" viewBox="0 0 512 126" xmlns="http://www.w3.org/2000/svg" xmlns:xlink="http://www.w3.org/1999/xlink"><path d="M170.000 7.690 C 153.120 10.513,135.878 23.603,128.489 39.205 C 109.217 79.902,145.248 125.522,190.454 117.660 C 212.808 113.772,230.979 97.442,236.416 76.356 C 239.625 63.909,237.877 48.654,231.876 36.740 C 225.520 24.121,209.646 12.014,194.897 8.537 C 188.991 7.145,175.920 6.701,170.000 7.690 M58.000 10.986 L 9.500 11.500 9.500 24.000 L 9.500 36.500 28.250 36.772 L 47.000 37.044 47.000 75.522 L 47.000 114.000 65.893 114.000 C 82.198 114.000,84.869 113.783,85.393 112.418 C 85.727 111.548,86.000 94.294,86.000 74.075 L 86.000 37.314 103.607 36.650 C 113.291 36.285,121.616 35.738,122.107 35.434 C 123.501 34.572,123.223 12.623,121.800 11.200 C 121.043 10.443,117.996 10.087,113.550 10.236 C 109.673 10.365,84.675 10.703,58.000 10.986 M245.200 11.200 C 243.797 12.603,243.667 29.307,244.664 80.272 L 245.325 114.044 263.412 113.772 L 281.500 113.500 281.143 88.000 L 280.787 62.500 306.715 88.278 L 332.644 114.056 347.572 113.778 L 362.500 113.500 362.164 63.500 C 361.979 36.000,361.611 12.713,361.346 11.750 C 360.913 10.172,359.219 10.000,344.133 10.000 C 333.493 10.000,327.007 10.393,326.321 11.079 C 325.579 11.821,325.403 19.715,325.758 36.329 L 326.275 60.500 323.887 58.538 C 322.574 57.459,310.903 46.096,297.952 33.288 L 274.404 10.000 260.402 10.000 C 250.845 10.000,246.019 10.381,245.200 11.200 M462.743 14.250 C 460.878 16.588,454.734 25.162,449.089 33.304 C 443.444 41.447,438.413 47.971,437.909 47.803 C 437.406 47.635,430.807 39.398,423.247 29.499 L 409.500 11.500 390.573 11.227 C 380.163 11.077,371.255 11.345,370.779 11.821 C 370.289 12.311,380.536 26.456,394.296 44.286 L 418.680 75.884 419.338 94.034 C 419.699 104.016,420.248 112.592,420.557 113.091 C 421.182 114.104,442.181 114.138,451.500 113.141 L 457.500 112.500 457.136 93.953 L 456.772 75.405 478.886 44.228 C 491.049 27.081,501.000 12.365,501.000 11.526 C 501.000 10.216,498.527 10.000,483.567 10.000 L 466.134 10.000 462.743 14.250 M194.550 25.933 C 206.014 29.963,215.585 39.780,219.119 51.136 C 225.178 70.601,214.829 91.507,195.482 98.885 C 179.487 104.984,162.623 100.921,150.762 88.110 C 143.558 80.328,140.697 73.252,140.610 63.000 C 140.466 45.973,151.793 30.605,168.286 25.451 C 174.821 23.408,188.058 23.651,194.550 25.933 M170.000 26.882 C 151.402 32.983,140.618 49.478,143.146 67.960 C 148.037 103.723,199.344 110.946,215.231 78.107 C 218.059 72.261,218.427 70.521,218.422 63.000 C 218.414 47.737,211.476 36.313,198.264 29.809 C 192.393 26.919,190.592 26.529,182.079 26.310 C 176.810 26.174,171.375 26.431,170.000 26.882 M189.763 35.430 C 190.559 36.226,186.151 44.530,183.790 46.680 C 181.082 49.146,177.419 47.575,174.605 42.740 C 171.198 36.884,171.114 35.800,174.000 34.879 C 176.779 33.991,188.743 34.409,189.763 35.430 M166.000 56.774 C 166.000 59.395,162.096 61.481,155.098 62.600 C 151.218 63.221,151.000 63.123,151.000 60.754 C 151.000 57.610,153.307 50.988,155.644 47.421 L 157.426 44.701 161.713 49.573 C 164.140 52.331,166.000 55.455,166.000 56.774 M208.874 53.975 C 209.493 56.041,210.000 58.975,210.000 60.494 C 210.000 63.167,209.868 63.235,205.902 62.600 C 199.305 61.545,195.000 59.369,195.000 57.088 C 195.000 55.980,196.913 52.853,199.250 50.139 L 203.500 45.204 205.624 47.711 C 206.793 49.090,208.255 51.908,208.874 53.975 M174.000 55.000 C 174.000 55.550,173.550 56.000,173.000 56.000 C 172.450 56.000,172.000 55.550,172.000 55.000 C 172.000 54.450,172.450 54.000,173.000 54.000 C 173.550 54.000,174.000 54.450,174.000 55.000 M189.000 55.000 C 189.000 55.550,188.550 56.000,188.000 56.000 C 187.450 56.000,187.000 55.550,187.000 55.000 C 187.000 54.450,187.450 54.000,188.000 54.000 C 188.550 54.000,189.000 54.450,189.000 55.000 M184.368 60.115 C 187.396 64.439,182.439 69.396,178.115 66.368 C 175.551 64.572,175.346 60.480,177.750 59.080 C 180.511 57.472,182.764 57.825,184.368 60.115 M172.000 67.000 C 172.000 67.550,171.550 68.000,171.000 68.000 C 170.450 68.000,170.000 67.550,170.000 67.000 C 170.000 66.450,170.450 66.000,171.000 66.000 C 171.550 66.000,172.000 66.450,172.000 67.000 M191.500 67.000 C 191.160 67.550,190.459 68.000,189.941 68.000 C 189.423 68.000,189.000 67.550,189.000 67.000 C 189.000 66.450,189.702 66.000,190.559 66.000 C 191.416 66.000,191.840 66.450,191.500 67.000 M182.000 73.000 C 182.000 73.550,181.550 74.000,181.000 74.000 C 180.450 74.000,180.000 73.550,180.000 73.000 C 180.000 72.450,180.450 72.000,181.000 72.000 C 181.550 72.000,182.000 72.450,182.000 73.000 M172.008 74.510 C 173.364 76.144,173.524 87.876,172.208 89.192 C 171.045 90.355,163.674 86.357,159.487 82.291 C 155.279 78.204,155.288 78.189,164.370 74.919 C 170.661 72.654,170.476 72.664,172.008 74.510 M200.381 76.406 L 205.261 78.536 202.607 81.690 C 201.147 83.425,197.610 86.012,194.746 87.439 C 188.588 90.508,188.185 90.107,188.070 80.800 C 187.966 72.355,189.688 71.740,200.381 76.406 " stroke="none" fill="#040404" fill-rule="evenodd"/></svg>