<?xml version="1.0" encoding="UTF-8" standalone="no"?>
<!-- Created with Inkscape (http://www.inkscape.org/) -->

<svg
   version="1.0"
   width="112"
   height="20"
   id="svg2"
   sodipodi:docname="caterpillar_logo.svg"
   xmlns:inkscape="http://www.inkscape.org/namespaces/inkscape"
   xmlns:sodipodi="http://sodipodi.sourceforge.net/DTD/sodipodi-0.dtd"
   xmlns="http://www.w3.org/2000/svg"
   xmlns:svg="http://www.w3.org/2000/svg">
  <sodipodi:namedview
     id="namedview1"
     pagecolor="#ffffff"
     bordercolor="#000000"
     borderopacity="0.25"
     inkscape:showpageshadow="2"
     inkscape:pageopacity="0.0"
     inkscape:pagecheckerboard="0"
     inkscape:deskcolor="#d1d1d1"
     showgrid="false">
    <inkscape:page
       x="0"
       y="0"
       width="112"
       height="20"
       id="page2"
       margin="0"
       bleed="0" />
  </sodipodi:namedview>
  <defs
     id="defs4" />
  <g
     transform="translate(-254.26343,-163.48068)"
     id="layer1">
    <g
       transform="translate(256.02387,164.53694)"
       id="g2418">
      <path
         d="M 45.365,7.256 44.379,7.279 V 3.336 h 1.13 c 0.856,0 1.137,0.628 1.137,2 0,1.372 -0.316,1.92 -1.281,1.92 m 4.975,8.99 V 12.02 c 0,-2.004 -0.715,-3.169 -2.243,-3.443 1.776,-0.471 2.262,-1.961 2.262,-3.869 0,-2.69 -0.967,-4.362 -4.104,-4.362 h -5.618 l 0.003,17.417 h 3.74 V 10.19 h 0.922 c 0.9,0 1.327,0.621 1.327,1.45 v 4.633 c 0,0.77 0.155,1.338 0.261,1.489 h 3.783 C 50.541,17.618 50.34,17.017 50.34,16.246"
         id="path2384"
         style="fill:#f2f2f2" />
      <path
         d="M 8.387,14.801 C 9.056,14.243 9.171,13.552 9.171,12.932 V 10.328 H 5.535 v 3.533 c 0,0.506 -0.409,0.916 -0.914,0.916 -0.505,0 -0.881,-0.41 -0.881,-0.916 V 3.852 c 0,-0.505 0.376,-0.915 0.881,-0.915 0.505,0 0.914,0.41 0.914,0.915 V 7.408 H 9.166 V 3.719 C 9.166,1.681 7.834,0.004 4.59,0 1.259,0 0,1.685 0,3.723 v 10.451 c 0,2.02 1.604,3.548 3.655,3.548 h 1.126 z"
         id="path2386"
         style="fill:#f2f2f2" />
      <path
         d="m 103.314,7.247 h -0.993 v -3.92 h 1.136 c 0.854,0 1.137,0.628 1.137,1.999 0,1.373 -0.314,1.921 -1.28,1.921 m 4.971,8.99 V 12.01 c 0,-2.003 -0.712,-3.168 -2.24,-3.443 1.776,-0.47 2.262,-1.959 2.262,-3.866 0,-2.692 -0.97,-4.364 -4.104,-4.364 h -5.619 v 17.417 h 3.749 v -7.572 h 0.915 c 0.902,0 1.324,0.62 1.324,1.45 v 4.633 c 0,0.771 0.159,1.338 0.264,1.489 h 3.78 c -0.13,-0.145 -0.331,-0.747 -0.331,-1.517"
         id="path2388"
         style="fill:#f2f2f2" />
      <path
         d="M 90.796,11.487 91.77,3.36 92.742,11.487 Z M 94.275,0.303 h -5.029 l -2.988,17.45 h 3.786 l 0.371,-3.079 2.705,-0.002 0.369,3.081 h 3.789 z"
         id="path2390"
         style="fill:#f2f2f2" />
      <polygon
         points="77.031,14.446 77.031,17.751 69.198,17.751 69.198,0.341 73.034,0.341 73.034,14.446 "
         id="polygon2392" />
      <rect
         width="3.8329999"
         height="17.41"
         x="63.333"
         y="0.34200001"
         id="rect2394"
         style="fill:#f2f2f2" />
      <polygon
         points="77.031,14.446 77.031,17.751 69.198,17.751 69.198,0.341 73.034,0.341 73.034,14.446 "
         id="polygon2396"
         style="fill:#f2f2f2" />
      <polygon
         points="85.786,14.446 85.786,17.751 77.954,17.751 77.954,0.341 81.787,0.341 81.787,14.446 "
         id="polygon2398"
         style="fill:#f2f2f2" />
      <path
         d="M 57.057,7.764 55.913,7.75 V 3.334 h 1.138 c 0.972,0 1.135,0.666 1.135,2.26 0,1.647 -0.164,2.17 -1.129,2.17 m 0.965,-7.422 h -5.845 v 17.417 h 3.748 v -6.912 h 2.097 c 3.443,0 4.024,-2.194 4.024,-5.253 10e-4,-3.058 -0.58,-5.252 -4.024,-5.252"
         id="path2400"
         style="fill:#f2f2f2" />
      <polygon
         points="34.161,10.521 34.161,14.387 38.877,14.385 38.877,17.746 30.322,17.75 30.322,0.338 30.318,0.338 38.722,0.338 38.722,3.66 34.161,3.66 34.161,7.11 38.13,7.11 38.13,10.521 "
         id="polygon2402"
         style="fill:#f2f2f2" />
      <polygon
         points="29.293,0.343 29.293,3.726 26.771,3.726 26.771,17.701 25.695,17.701 22.721,15.211 22.721,3.726 20.211,3.726 20.211,0.343 "
         id="polygon2404"
         style="fill:#f2f2f2" />
      <polygon
         points="15.504,10.316 6.34,17.727 24.348,17.727 "
         id="polygon2406"
         style="fill:#ffc400" />
      <path
         d="m 14.526,8.319 0.979,-5.004 0.974,5.004 z m 3.501,-7.958 h -5.066 l -2.951,13.243 5.496,-4.437 5.73,4.802 z"
         id="path2408"
         style="fill:#f2f2f2" />
    </g>
  </g>
</svg>
