<?xml version="1.0" encoding="UTF-8"?>
<svg version="1.1" width="512" height="126" viewBox="0 0 512 126" xmlns="http://www.w3.org/2000/svg" xmlns:xlink="http://www.w3.org/1999/xlink"><circle cx="9" cy="15" r="2.4166666666667" fill="rgb(0,0,0)"/><circle cx="9" cy="21" r="1.6666666666667" fill="rgb(0,0,0)"/><circle cx="9" cy="27" r="1.6666666666667" fill="rgb(0,0,0)"/><circle cx="9" cy="33" r="2.25" fill="rgb(0,0,0)"/><circle cx="15" cy="15" r="3" fill="rgb(1,1,1)"/><circle cx="15" cy="21" r="3" fill="rgb(1,1,1)"/><circle cx="15" cy="27" r="3" fill="rgb(0,0,0)"/><circle cx="15" cy="33" r="3" fill="rgb(1,1,1)"/><circle cx="15" cy="39" r="0.66666666666667" fill="rgb(164,164,164)"/><circle cx="21" cy="15" r="3" fill="rgb(1,1,1)"/><circle cx="21" cy="21" r="3" fill="rgb(1,1,1)"/><circle cx="21" cy="27" r="3" fill="rgb(1,1,1)"/><circle cx="21" cy="33" r="3" fill="rgb(1,1,1)"/><circle cx="27" cy="15" r="3" fill="rgb(1,1,1)"/><circle cx="27" cy="21" r="3" fill="rgb(0,0,0)"/><circle cx="27" cy="27" r="3" fill="rgb(1,1,1)"/><circle cx="27" cy="33" r="3" fill="rgb(1,1,1)"/><circle cx="33" cy="15" r="3" fill="rgb(1,1,1)"/><circle cx="33" cy="21" r="3" fill="rgb(1,1,1)"/><circle cx="33" cy="27" r="3" fill="rgb(1,1,1)"/><circle cx="33" cy="33" r="3" fill="rgb(0,0,0)"/><circle cx="39" cy="15" r="3" fill="rgb(1,1,1)"/><circle cx="39" cy="21" r="3" fill="rgb(1,1,1)"/><circle cx="39" cy="27" r="3" fill="rgb(1,1,1)"/><circle cx="39" cy="33" r="3" fill="rgb(0,0,0)"/><circle cx="45" cy="15" r="3" fill="rgb(1,1,1)"/><circle cx="45" cy="21" r="3" fill="rgb(1,1,1)"/><circle cx="45" cy="27" r="3" fill="rgb(1,1,1)"/><circle cx="45" cy="33" r="3" fill="rgb(0,0,0)"/><circle cx="51" cy="15" r="3" fill="rgb(1,1,1)"/><circle cx="51" cy="21" r="3" fill="rgb(1,1,1)"/><circle cx="51" cy="27" r="3" fill="rgb(0,0,0)"/><circle cx="51" cy="33" r="3" fill="rgb(0,0,0)"/><circle cx="51" cy="39" r="3" fill="rgb(0,0,0)"/><circle cx="51" cy="45" r="3" fill="rgb(0,0,0)"/><circle cx="51" cy="51" r="3" fill="rgb(0,0,0)"/><circle cx="51" cy="57" r="3" fill="rgb(0,0,0)"/><circle cx="51" cy="63" r="3" fill="rgb(1,1,1)"/><circle cx="51" cy="69" r="3" fill="rgb(0,0,0)"/><circle cx="51" cy="75" r="3" fill="rgb(0,0,0)"/><circle cx="51" cy="81" r="3" fill="rgb(0,0,0)"/><circle cx="51" cy="87" r="3" fill="rgb(0,0,0)"/><circle cx="51" cy="93" r="3" fill="rgb(0,0,0)"/><circle cx="51" cy="99" r="3" fill="rgb(0,0,0)"/><circle cx="51" cy="105" r="3" fill="rgb(0,0,0)"/><circle cx="51" cy="111" r="3" fill="rgb(1,1,1)"/><circle cx="57" cy="15" r="3" fill="rgb(1,1,1)"/><circle cx="57" cy="21" r="3" fill="rgb(1,1,1)"/><circle cx="57" cy="27" r="3" fill="rgb(1,1,1)"/><circle cx="57" cy="33" r="3" fill="rgb(0,0,0)"/><circle cx="57" cy="39" r="3" fill="rgb(0,0,0)"/><circle cx="57" cy="45" r="3" fill="rgb(1,1,1)"/><circle cx="57" cy="51" r="3" fill="rgb(0,0,0)"/><circle cx="57" cy="57" r="3" fill="rgb(1,1,1)"/><circle cx="57" cy="63" r="3" fill="rgb(1,1,1)"/><circle cx="57" cy="69" r="3" fill="rgb(0,0,0)"/><circle cx="57" cy="75" r="3" fill="rgb(1,1,1)"/><circle cx="57" cy="81" r="3" fill="rgb(1,1,1)"/><circle cx="57" cy="87" r="3" fill="rgb(0,0,0)"/><circle cx="57" cy="93" r="3" fill="rgb(1,1,1)"/><circle cx="57" cy="99" r="3" fill="rgb(1,1,1)"/><circle cx="57" cy="105" r="3" fill="rgb(0,0,0)"/><circle cx="57" cy="111" r="3" fill="rgb(1,1,1)"/><circle cx="63" cy="15" r="3" fill="rgb(1,1,1)"/><circle cx="63" cy="21" r="3" fill="rgb(0,0,0)"/><circle cx="63" cy="27" r="3" fill="rgb(1,1,1)"/><circle cx="63" cy="33" r="3" fill="rgb(1,1,1)"/><circle cx="63" cy="39" r="3" fill="rgb(1,1,1)"/><circle cx="63" cy="45" r="3" fill="rgb(1,1,1)"/><circle cx="63" cy="51" r="3" fill="rgb(1,1,1)"/><circle cx="63" cy="57" r="3" fill="rgb(1,1,1)"/><circle cx="63" cy="63" r="3" fill="rgb(1,1,1)"/><circle cx="63" cy="69" r="3" fill="rgb(0,0,0)"/><circle cx="63" cy="75" r="3" fill="rgb(1,1,1)"/><circle cx="63" cy="81" r="3" fill="rgb(1,1,1)"/><circle cx="63" cy="87" r="3" fill="rgb(1,1,1)"/><circle cx="63" cy="93" r="3" fill="rgb(1,1,1)"/><circle cx="63" cy="99" r="3" fill="rgb(1,1,1)"/><circle cx="63" cy="105" r="3" fill="rgb(1,1,1)"/><circle cx="63" cy="111" r="3" fill="rgb(1,1,1)"/><circle cx="69" cy="15" r="3" fill="rgb(1,1,1)"/><circle cx="69" cy="21" r="3" fill="rgb(0,0,0)"/><circle cx="69" cy="27" r="3" fill="rgb(210,41,40)"/><circle cx="69" cy="33" r="3" fill="rgb(209,39,39)"/><circle cx="69" cy="39" r="3" fill="rgb(209,41,40)"/><circle cx="69" cy="45" r="3" fill="rgb(209,41,40)"/><circle cx="69" cy="51" r="3" fill="rgb(210,40,40)"/><circle cx="69" cy="57" r="3" fill="rgb(210,40,40)"/><circle cx="69" cy="63" r="3" fill="rgb(209,41,40)"/><circle cx="69" cy="69" r="3" fill="rgb(209,40,40)"/><circle cx="69" cy="75" r="3" fill="rgb(209,41,40)"/><circle cx="69" cy="81" r="3" fill="rgb(209,41,40)"/><circle cx="69" cy="87" r="3" fill="rgb(210,41,41)"/><circle cx="69" cy="93" r="3" fill="rgb(210,40,40)"/><circle cx="69" cy="99" r="3" fill="rgb(211,41,41)"/><circle cx="69" cy="105" r="3" fill="rgb(211,41,41)"/><circle cx="69" cy="111" r="3" fill="rgb(38,4,4)"/><circle cx="75" cy="15" r="3" fill="rgb(0,0,0)"/><circle cx="75" cy="21" r="3" fill="rgb(0,0,0)"/><circle cx="75" cy="27" r="3" fill="rgb(208,40,39)"/><circle cx="75" cy="33" r="3" fill="rgb(209,39,39)"/><circle cx="75" cy="39" r="3" fill="rgb(210,40,40)"/><circle cx="75" cy="45" r="3" fill="rgb(210,40,40)"/><circle cx="75" cy="51" r="3" fill="rgb(210,40,40)"/><circle cx="75" cy="57" r="3" fill="rgb(210,40,40)"/><circle cx="75" cy="63" r="3" fill="rgb(210,40,40)"/><circle cx="75" cy="69" r="3" fill="rgb(210,40,40)"/><circle cx="75" cy="75" r="3" fill="rgb(209,41,40)"/><circle cx="75" cy="81" r="3" fill="rgb(209,41,40)"/><circle cx="75" cy="87" r="3" fill="rgb(210,40,40)"/><circle cx="75" cy="93" r="3" fill="rgb(210,40,40)"/><circle cx="75" cy="99" r="3" fill="rgb(210,40,40)"/><circle cx="75" cy="105" r="3" fill="rgb(211,41,41)"/><circle cx="75" cy="111" r="3" fill="rgb(212,42,42)"/><circle cx="81" cy="15" r="3" fill="rgb(1,1,1)"/><circle cx="81" cy="21" r="3" fill="rgb(1,1,1)"/><circle cx="81" cy="27" r="3" fill="rgb(208,40,39)"/><circle cx="81" cy="33" r="3" fill="rgb(209,39,39)"/><circle cx="81" cy="39" r="3" fill="rgb(209,39,39)"/><circle cx="81" cy="45" r="3" fill="rgb(210,40,40)"/><circle cx="81" cy="51" r="3" fill="rgb(210,40,40)"/><circle cx="81" cy="57" r="3" fill="rgb(210,40,40)"/><circle cx="81" cy="63" r="3" fill="rgb(210,40,40)"/><circle cx="81" cy="69" r="3" fill="rgb(210,40,40)"/><circle cx="81" cy="75" r="3" fill="rgb(210,40,40)"/><circle cx="81" cy="81" r="3" fill="rgb(209,41,40)"/><circle cx="81" cy="87" r="3" fill="rgb(210,40,40)"/><circle cx="81" cy="93" r="3" fill="rgb(210,40,40)"/><circle cx="81" cy="99" r="3" fill="rgb(210,40,40)"/><circle cx="81" cy="105" r="3" fill="rgb(210,40,40)"/><circle cx="81" cy="111" r="3" fill="rgb(210,42,41)"/><circle cx="87" cy="15" r="3" fill="rgb(1,1,1)"/><circle cx="87" cy="21" r="3" fill="rgb(0,0,0)"/><circle cx="87" cy="27" r="3" fill="rgb(1,1,1)"/><circle cx="87" cy="33" r="3" fill="rgb(209,39,39)"/><circle cx="93" cy="15" r="3" fill="rgb(1,1,1)"/><circle cx="93" cy="21" r="3" fill="rgb(0,0,0)"/><circle cx="93" cy="27" r="3" fill="rgb(1,1,1)"/><circle cx="93" cy="33" r="3" fill="rgb(210,39,39)"/><circle cx="99" cy="15" r="3" fill="rgb(1,1,1)"/><circle cx="99" cy="21" r="3" fill="rgb(0,0,0)"/><circle cx="99" cy="27" r="3" fill="rgb(1,1,1)"/><circle cx="99" cy="33" r="3" fill="rgb(207,39,39)"/><circle cx="105" cy="15" r="3" fill="rgb(1,1,1)"/><circle cx="105" cy="21" r="3" fill="rgb(0,0,0)"/><circle cx="105" cy="27" r="3" fill="rgb(1,1,1)"/><circle cx="105" cy="33" r="3" fill="rgb(202,39,41)"/><circle cx="111" cy="15" r="3" fill="rgb(1,1,1)"/><circle cx="111" cy="21" r="3" fill="rgb(0,0,0)"/><circle cx="111" cy="27" r="3" fill="rgb(1,1,1)"/><circle cx="111" cy="33" r="3" fill="rgb(1,0,0)"/><circle cx="117" cy="15" r="3" fill="rgb(1,1,1)"/><circle cx="117" cy="21" r="3" fill="rgb(1,1,1)"/><circle cx="117" cy="27" r="3" fill="rgb(1,1,1)"/><circle cx="117" cy="33" r="3" fill="rgb(1,1,1)"/><circle cx="123" cy="21" r="2.5833333333333" fill="rgb(1,1,1)"/><circle cx="123" cy="27" r="2.75" fill="rgb(1,1,1)"/><circle cx="129" cy="39" r="2.8333333333333" fill="rgb(0,0,0)"/><circle cx="129" cy="45" r="3" fill="rgb(1,1,1)"/><circle cx="129" cy="51" r="3" fill="rgb(0,0,0)"/><circle cx="129" cy="57" r="3" fill="rgb(0,0,0)"/><circle cx="129" cy="63" r="3" fill="rgb(1,1,1)"/><circle cx="129" cy="69" r="3" fill="rgb(1,1,1)"/><circle cx="129" cy="75" r="3" fill="rgb(1,1,1)"/><circle cx="129" cy="81" r="3" fill="rgb(1,1,1)"/><circle cx="135" cy="33" r="3" fill="rgb(0,0,0)"/><circle cx="135" cy="39" r="3" fill="rgb(1,1,1)"/><circle cx="135" cy="45" r="3" fill="rgb(1,1,1)"/><circle cx="135" cy="51" r="3" fill="rgb(0,0,0)"/><circle cx="135" cy="57" r="3" fill="rgb(0,0,0)"/><circle cx="135" cy="63" r="3" fill="rgb(1,1,1)"/><circle cx="135" cy="69" r="3" fill="rgb(1,1,1)"/><circle cx="135" cy="75" r="3" fill="rgb(1,1,1)"/><circle cx="135" cy="81" r="3" fill="rgb(1,1,1)"/><circle cx="135" cy="87" r="3" fill="rgb(1,1,1)"/><circle cx="135" cy="93" r="3" fill="rgb(0,0,0)"/><circle cx="141" cy="27" r="3" fill="rgb(1,1,1)"/><circle cx="141" cy="33" r="3" fill="rgb(0,0,0)"/><circle cx="141" cy="39" r="3" fill="rgb(0,0,0)"/><circle cx="141" cy="45" r="3" fill="rgb(1,1,1)"/><circle cx="141" cy="51" r="2.75" fill="rgb(0,0,0)"/><circle cx="141" cy="57" r="2.5833333333333" fill="rgb(1,1,1)"/><circle cx="141" cy="63" r="2.75" fill="rgb(2,2,2)"/><circle cx="141" cy="69" r="2.5" fill="rgb(1,1,1)"/><circle cx="141" cy="75" r="3" fill="rgb(1,1,1)"/><circle cx="141" cy="81" r="3" fill="rgb(1,1,1)"/><circle cx="141" cy="87" r="3" fill="rgb(0,0,0)"/><circle cx="141" cy="93" r="3" fill="rgb(1,1,1)"/><circle cx="141" cy="99" r="3" fill="rgb(1,1,1)"/><circle cx="147" cy="21" r="3" fill="rgb(1,1,1)"/><circle cx="147" cy="27" r="3" fill="rgb(1,1,1)"/><circle cx="147" cy="33" r="3" fill="rgb(0,0,0)"/><circle cx="147" cy="39" r="2.9166666666667" fill="rgb(1,1,1)"/><circle cx="147" cy="51" r="3" fill="rgb(0,0,0)"/><circle cx="147" cy="57" r="3" fill="rgb(1,1,1)"/><circle cx="147" cy="63" r="3" fill="rgb(0,0,0)"/><circle cx="147" cy="69" r="3" fill="rgb(0,0,0)"/><circle cx="147" cy="75" r="3" fill="rgb(1,1,1)"/><circle cx="147" cy="81" r="2.5833333333333" fill="rgb(0,0,0)"/><circle cx="147" cy="87" r="2.9166666666667" fill="rgb(0,0,0)"/><circle cx="147" cy="93" r="3" fill="rgb(0,0,0)"/><circle cx="147" cy="99" r="3" fill="rgb(0,0,0)"/><circle cx="147" cy="105" r="3" fill="rgb(1,1,1)"/><circle cx="153" cy="15" r="2.75" fill="rgb(0,0,0)"/><circle cx="153" cy="21" r="3" fill="rgb(0,0,0)"/><circle cx="153" cy="27" r="3" fill="rgb(1,1,1)"/><circle cx="153" cy="33" r="2.8333333333333" fill="rgb(0,0,0)"/><circle cx="153" cy="39" r="3" fill="rgb(1,1,1)"/><circle cx="153" cy="45" r="3" fill="rgb(0,0,0)"/><circle cx="153" cy="51" r="2.9166666666667" fill="rgb(0,0,0)"/><circle cx="153" cy="63" r="2.6666666666667" fill="rgb(0,0,0)"/><circle cx="153" cy="69" r="3" fill="rgb(0,0,0)"/><circle cx="153" cy="75" r="3" fill="rgb(1,1,1)"/><circle cx="153" cy="81" r="3" fill="rgb(1,1,1)"/><circle cx="153" cy="87" r="3" fill="rgb(0,0,0)"/><circle cx="153" cy="93" r="2.5833333333333" fill="rgb(0,0,0)"/><circle cx="153" cy="99" r="3" fill="rgb(0,0,0)"/><circle cx="153" cy="105" r="3" fill="rgb(1,1,1)"/><circle cx="153" cy="111" r="2.5833333333333" fill="rgb(0,0,0)"/><circle cx="159" cy="15" r="3" fill="rgb(0,0,0)"/><circle cx="159" cy="21" r="3" fill="rgb(0,0,0)"/><circle cx="159" cy="27" r="2.8333333333333" fill="rgb(1,1,1)"/><circle cx="159" cy="33" r="2.8333333333333" fill="rgb(0,0,0)"/><circle cx="159" cy="39" r="3" fill="rgb(1,1,1)"/><circle cx="159" cy="45" r="3" fill="rgb(0,0,0)"/><circle cx="159" cy="63" r="2.4166666666667" fill="rgb(1,1,1)"/><circle cx="159" cy="69" r="3" fill="rgb(0,0,0)"/><circle cx="159" cy="75" r="2.8333333333333" fill="rgb(1,1,1)"/><circle cx="159" cy="87" r="3" fill="rgb(0,0,0)"/><circle cx="159" cy="93" r="2.9166666666667" fill="rgb(1,1,1)"/><circle cx="159" cy="99" r="3" fill="rgb(0,0,0)"/><circle cx="159" cy="105" r="3" fill="rgb(1,1,1)"/><circle cx="159" cy="111" r="3" fill="rgb(1,1,1)"/><circle cx="165" cy="15" r="3" fill="rgb(1,1,1)"/><circle cx="165" cy="21" r="3" fill="rgb(0,0,0)"/><circle cx="165" cy="27" r="2.8333333333333" fill="rgb(0,0,0)"/><circle cx="165" cy="33" r="3" fill="rgb(0,0,0)"/><circle cx="165" cy="39" r="3" fill="rgb(0,0,0)"/><circle cx="165" cy="45" r="3" fill="rgb(0,0,0)"/><circle cx="165" cy="51" r="2.6666666666667" fill="rgb(0,0,0)"/><circle cx="165" cy="63" r="3" fill="rgb(1,1,1)"/><circle cx="165" cy="69" r="3" fill="rgb(1,1,1)"/><circle cx="165" cy="87" r="2.5833333333333" fill="rgb(2,2,2)"/><circle cx="165" cy="93" r="3" fill="rgb(0,0,0)"/><circle cx="165" cy="99" r="2.6666666666667" fill="rgb(1,1,1)"/><circle cx="165" cy="105" r="3" fill="rgb(0,0,0)"/><circle cx="165" cy="111" r="3" fill="rgb(0,0,0)"/><circle cx="165" cy="117" r="2" fill="rgb(0,0,0)"/><circle cx="171" cy="9" r="2.5" fill="rgb(1,1,1)"/><circle cx="171" cy="15" r="3" fill="rgb(0,0,0)"/><circle cx="171" cy="21" r="3" fill="rgb(1,1,1)"/><circle cx="171" cy="27" r="2.75" fill="rgb(0,0,0)"/><circle cx="171" cy="33" r="2.9166666666667" fill="rgb(1,1,1)"/><circle cx="171" cy="39" r="3" fill="rgb(0,0,0)"/><circle cx="171" cy="45" r="3" fill="rgb(1,1,1)"/><circle cx="171" cy="51" r="3" fill="rgb(1,1,1)"/><circle cx="171" cy="57" r="3" fill="rgb(2,2,2)"/><circle cx="171" cy="63" r="3" fill="rgb(0,0,0)"/><circle cx="171" cy="69" r="2.8333333333333" fill="rgb(1,1,1)"/><circle cx="171" cy="93" r="3" fill="rgb(1,1,1)"/><circle cx="171" cy="99" r="2.9166666666667" fill="rgb(1,1,1)"/><circle cx="171" cy="105" r="3" fill="rgb(0,0,0)"/><circle cx="171" cy="111" r="3" fill="rgb(1,1,1)"/><circle cx="171" cy="117" r="2.4166666666667" fill="rgb(1,1,1)"/><circle cx="177" cy="9" r="3" fill="rgb(1,1,1)"/><circle cx="177" cy="15" r="3" fill="rgb(1,1,1)"/><circle cx="177" cy="21" r="3" fill="rgb(1,1,1)"/><circle cx="177" cy="27" r="2.5" fill="rgb(1,1,1)"/><circle cx="177" cy="33" r="2.8333333333333" fill="rgb(0,0,0)"/><circle cx="177" cy="51" r="3" fill="rgb(1,1,1)"/><circle cx="177" cy="57" r="2.9166666666667" fill="rgb(0,0,0)"/><circle cx="177" cy="69" r="3" fill="rgb(1,1,1)"/><circle cx="177" cy="75" r="3" fill="rgb(1,1,1)"/><circle cx="177" cy="81" r="3" fill="rgb(0,0,0)"/><circle cx="177" cy="87" r="3" fill="rgb(0,0,0)"/><circle cx="177" cy="93" r="3" fill="rgb(1,1,1)"/><circle cx="177" cy="99" r="2.6666666666667" fill="rgb(0,1,1)"/><circle cx="177" cy="105" r="3" fill="rgb(1,1,1)"/><circle cx="177" cy="111" r="3" fill="rgb(1,1,1)"/><circle cx="177" cy="117" r="2.8333333333333" fill="rgb(1,1,1)"/><circle cx="183" cy="9" r="3" fill="rgb(1,1,1)"/><circle cx="183" cy="15" r="3" fill="rgb(0,0,0)"/><circle cx="183" cy="21" r="3" fill="rgb(0,0,0)"/><circle cx="183" cy="27" r="2.25" fill="rgb(1,1,1)"/><circle cx="183" cy="33" r="2.8333333333333" fill="rgb(0,0,0)"/><circle cx="183" cy="51" r="3" fill="rgb(0,0,0)"/><circle cx="183" cy="57" r="2.5833333333333" fill="rgb(1,1,1)"/><circle cx="183" cy="69" r="3" fill="rgb(1,1,1)"/><circle cx="183" cy="75" r="2.8333333333333" fill="rgb(1,1,1)"/><circle cx="183" cy="81" r="3" fill="rgb(0,0,0)"/><circle cx="183" cy="87" r="3" fill="rgb(0,0,0)"/><circle cx="183" cy="93" r="3" fill="rgb(1,1,1)"/><circle cx="183" cy="99" r="2.75" fill="rgb(0,0,0)"/><circle cx="183" cy="105" r="3" fill="rgb(1,1,1)"/><circle cx="183" cy="111" r="3" fill="rgb(1,1,1)"/><circle cx="183" cy="117" r="2.6666666666667" fill="rgb(0,0,0)"/><circle cx="189" cy="9" r="2.5833333333333" fill="rgb(1,1,1)"/><circle cx="189" cy="15" r="3" fill="rgb(0,0,0)"/><circle cx="189" cy="21" r="3" fill="rgb(0,0,0)"/><circle cx="189" cy="27" r="2.4166666666667" fill="rgb(0,0,0)"/><circle cx="189" cy="33" r="2.8333333333333" fill="rgb(1,1,1)"/><circle cx="189" cy="39" r="3" fill="rgb(0,0,0)"/><circle cx="189" cy="45" r="3" fill="rgb(0,0,0)"/><circle cx="189" cy="51" r="3" fill="rgb(0,0,0)"/><circle cx="189" cy="57" r="3" fill="rgb(2,2,2)"/><circle cx="189" cy="63" r="3" fill="rgb(0,0,0)"/><circle cx="189" cy="69" r="2.8333333333333" fill="rgb(0,0,0)"/><circle cx="189" cy="93" r="3" fill="rgb(1,1,1)"/><circle cx="189" cy="105" r="3" fill="rgb(1,1,1)"/><circle cx="189" cy="111" r="3" fill="rgb(1,1,1)"/><circle cx="189" cy="117" r="3" fill="rgb(0,0,0)"/><circle cx="195" cy="9" r="2" fill="rgb(1,1,1)"/><circle cx="195" cy="15" r="3" fill="rgb(0,0,0)"/><circle cx="195" cy="21" r="3" fill="rgb(0,0,0)"/><circle cx="195" cy="27" r="2.8333333333333" fill="rgb(0,0,0)"/><circle cx="195" cy="33" r="3" fill="rgb(0,0,0)"/><circle cx="195" cy="39" r="3" fill="rgb(0,0,0)"/><circle cx="195" cy="45" r="3" fill="rgb(1,1,1)"/><circle cx="195" cy="51" r="2.9166666666667" fill="rgb(0,0,0)"/><circle cx="195" cy="57" r="2.5" fill="rgb(2,2,2)"/><circle cx="195" cy="63" r="3" fill="rgb(1,1,1)"/><circle cx="195" cy="69" r="3" fill="rgb(0,0,0)"/><circle cx="195" cy="93" r="3" fill="rgb(0,0,0)"/><circle cx="195" cy="99" r="2.6666666666667" fill="rgb(1,1,1)"/><circle cx="195" cy="105" r="3" fill="rgb(1,1,1)"/><circle cx="195" cy="111" r="3" fill="rgb(0,0,0)"/><circle cx="201" cy="15" r="3" fill="rgb(1,1,1)"/><circle cx="201" cy="21" r="3" fill="rgb(0,0,0)"/><circle cx="201" cy="27" r="2.9166666666667" fill="rgb(1,1,1)"/><circle cx="201" cy="33" r="2.9166666666667" fill="rgb(0,0,0)"/><circle cx="201" cy="39" r="3" fill="rgb(0,0,0)"/><circle cx="201" cy="45" r="3" fill="rgb(0,0,0)"/><circle cx="201" cy="63" r="2.5833333333333" fill="rgb(2,2,2)"/><circle cx="201" cy="69" r="3" fill="rgb(0,0,0)"/><circle cx="201" cy="75" r="3" fill="rgb(0,0,0)"/><circle cx="201" cy="87" r="3" fill="rgb(0,0,0)"/><circle cx="201" cy="93" r="2.9166666666667" fill="rgb(1,1,1)"/><circle cx="201" cy="99" r="3" fill="rgb(0,0,0)"/><circle cx="201" cy="105" r="3" fill="rgb(0,0,0)"/><circle cx="201" cy="111" r="3" fill="rgb(1,1,1)"/><circle cx="207" cy="15" r="3" fill="rgb(1,1,1)"/><circle cx="207" cy="21" r="3" fill="rgb(0,0,0)"/><circle cx="207" cy="27" r="3" fill="rgb(0,0,0)"/><circle cx="207" cy="33" r="2.75" fill="rgb(0,0,0)"/><circle cx="207" cy="39" r="2.9166666666667" fill="rgb(0,0,0)"/><circle cx="207" cy="45" r="3" fill="rgb(0,0,0)"/><circle cx="207" cy="63" r="2.5" fill="rgb(1,1,1)"/><circle cx="207" cy="69" r="3" fill="rgb(0,0,0)"/><circle cx="207" cy="75" r="3" fill="rgb(0,0,0)"/><circle cx="207" cy="81" r="3" fill="rgb(1,1,1)"/><circle cx="207" cy="87" r="3" fill="rgb(0,0,0)"/><circle cx="207" cy="93" r="2.9166666666667" fill="rgb(1,1,1)"/><circle cx="207" cy="99" r="3" fill="rgb(0,0,0)"/><circle cx="207" cy="105" r="3" fill="rgb(0,0,0)"/><circle cx="207" cy="111" r="2.75" fill="rgb(1,1,1)"/><circle cx="213" cy="15" r="2.1666666666667" fill="rgb(1,1,1)"/><circle cx="213" cy="21" r="3" fill="rgb(0,0,0)"/><circle cx="213" cy="27" r="3" fill="rgb(0,0,0)"/><circle cx="213" cy="33" r="3" fill="rgb(1,1,1)"/><circle cx="213" cy="39" r="3" fill="rgb(0,0,0)"/><circle cx="213" cy="45" r="2.6666666666667" fill="rgb(1,1,1)"/><circle cx="213" cy="51" r="3" fill="rgb(0,0,0)"/><circle cx="213" cy="57" r="3" fill="rgb(1,1,1)"/><circle cx="213" cy="63" r="3" fill="rgb(1,1,1)"/><circle cx="213" cy="69" r="3" fill="rgb(0,0,0)"/><circle cx="213" cy="75" r="3" fill="rgb(1,1,1)"/><circle cx="213" cy="81" r="2.8333333333333" fill="rgb(0,0,0)"/><circle cx="213" cy="87" r="2.75" fill="rgb(0,0,0)"/><circle cx="213" cy="93" r="3" fill="rgb(0,0,0)"/><circle cx="213" cy="99" r="3" fill="rgb(0,0,0)"/><circle cx="213" cy="105" r="3" fill="rgb(1,1,1)"/><circle cx="219" cy="27" r="3" fill="rgb(1,1,1)"/><circle cx="219" cy="33" r="3" fill="rgb(0,0,0)"/><circle cx="219" cy="39" r="3" fill="rgb(0,0,0)"/><circle cx="219" cy="45" r="2.9166666666667" fill="rgb(0,0,0)"/><circle cx="219" cy="51" r="2.75" fill="rgb(0,0,0)"/><circle cx="219" cy="57" r="2.4166666666667" fill="rgb(3,3,3)"/><circle cx="219" cy="69" r="2.75" fill="rgb(0,0,0)"/><circle cx="219" cy="75" r="2.5" fill="rgb(1,2,1)"/><circle cx="219" cy="81" r="3" fill="rgb(0,0,0)"/><circle cx="219" cy="87" r="3" fill="rgb(1,1,1)"/><circle cx="219" cy="93" r="3" fill="rgb(1,1,1)"/><circle cx="219" cy="99" r="3" fill="rgb(1,1,1)"/><circle cx="225" cy="33" r="3" fill="rgb(0,0,0)"/><circle cx="225" cy="39" r="3" fill="rgb(1,1,1)"/><circle cx="225" cy="45" r="3" fill="rgb(0,0,0)"/><circle cx="225" cy="51" r="3" fill="rgb(0,0,0)"/><circle cx="225" cy="57" r="3" fill="rgb(1,1,1)"/><circle cx="225" cy="63" r="3" fill="rgb(0,0,0)"/><circle cx="225" cy="69" r="3" fill="rgb(0,0,0)"/><circle cx="225" cy="75" r="3" fill="rgb(1,1,1)"/><circle cx="225" cy="81" r="3" fill="rgb(0,0,0)"/><circle cx="225" cy="87" r="3" fill="rgb(1,1,1)"/><circle cx="225" cy="93" r="3" fill="rgb(1,1,1)"/><circle cx="231" cy="39" r="3" fill="rgb(1,1,1)"/><circle cx="231" cy="45" r="3" fill="rgb(0,0,0)"/><circle cx="231" cy="51" r="3" fill="rgb(0,0,0)"/><circle cx="231" cy="57" r="3" fill="rgb(0,0,0)"/><circle cx="231" cy="63" r="3" fill="rgb(0,0,0)"/><circle cx="231" cy="69" r="3" fill="rgb(1,1,1)"/><circle cx="231" cy="75" r="3" fill="rgb(1,1,1)"/><circle cx="231" cy="81" r="3" fill="rgb(1,1,1)"/><circle cx="231" cy="87" r="3" fill="rgb(0,0,0)"/><circle cx="237" cy="51" r="2.3333333333333" fill="rgb(0,0,0)"/><circle cx="237" cy="57" r="2.4166666666667" fill="rgb(1,1,1)"/><circle cx="237" cy="63" r="2.5" fill="rgb(0,0,0)"/><circle cx="237" cy="69" r="2.5" fill="rgb(1,1,1)"/><circle cx="237" cy="75" r="2.0833333333333" fill="rgb(0,0,0)"/><circle cx="243" cy="21" r="1.1666666666667" fill="rgb(0,0,0)"/><circle cx="243" cy="27" r="1.1666666666667" fill="rgb(2,2,2)"/><circle cx="243" cy="33" r="1" fill="rgb(3,4,3)"/><circle cx="243" cy="45" r="1.1666666666667" fill="rgb(12,12,12)"/><circle cx="243" cy="63" r="1.25" fill="rgb(21,21,21)"/><circle cx="243" cy="75" r="1.3333333333333" fill="rgb(27,27,27)"/><circle cx="249" cy="15" r="3" fill="rgb(1,1,1)"/><circle cx="249" cy="21" r="3" fill="rgb(0,0,0)"/><circle cx="249" cy="27" r="3" fill="rgb(0,0,0)"/><circle cx="249" cy="33" r="3" fill="rgb(0,0,0)"/><circle cx="249" cy="39" r="3" fill="rgb(0,0,0)"/><circle cx="249" cy="45" r="3" fill="rgb(1,1,1)"/><circle cx="249" cy="51" r="3" fill="rgb(0,0,0)"/><circle cx="249" cy="57" r="3" fill="rgb(0,0,0)"/><circle cx="249" cy="63" r="3" fill="rgb(0,0,0)"/><circle cx="249" cy="69" r="3" fill="rgb(0,0,0)"/><circle cx="249" cy="75" r="3" fill="rgb(0,0,0)"/><circle cx="249" cy="81" r="3" fill="rgb(0,0,0)"/><circle cx="249" cy="87" r="3" fill="rgb(0,0,0)"/><circle cx="249" cy="93" r="3" fill="rgb(0,0,0)"/><circle cx="249" cy="99" r="3" fill="rgb(0,0,0)"/><circle cx="249" cy="105" r="3" fill="rgb(0,0,0)"/><circle cx="249" cy="111" r="3" fill="rgb(1,1,1)"/><circle cx="255" cy="15" r="3" fill="rgb(1,1,1)"/><circle cx="255" cy="21" r="3" fill="rgb(0,0,0)"/><circle cx="255" cy="27" r="3" fill="rgb(1,1,1)"/><circle cx="255" cy="33" r="3" fill="rgb(0,0,0)"/><circle cx="255" cy="39" r="3" fill="rgb(0,0,0)"/><circle cx="255" cy="45" r="3" fill="rgb(1,1,1)"/><circle cx="255" cy="51" r="3" fill="rgb(0,0,0)"/><circle cx="255" cy="57" r="3" fill="rgb(0,0,0)"/><circle cx="255" cy="63" r="3" fill="rgb(1,1,1)"/><circle cx="255" cy="69" r="3" fill="rgb(0,0,0)"/><circle cx="255" cy="75" r="3" fill="rgb(1,1,1)"/><circle cx="255" cy="81" r="3" fill="rgb(1,1,1)"/><circle cx="255" cy="87" r="3" fill="rgb(0,0,0)"/><circle cx="255" cy="93" r="3" fill="rgb(1,1,1)"/><circle cx="255" cy="99" r="3" fill="rgb(0,0,0)"/><circle cx="255" cy="105" r="3" fill="rgb(1,1,1)"/><circle cx="255" cy="111" r="3" fill="rgb(1,1,1)"/><circle cx="261" cy="15" r="3" fill="rgb(1,1,1)"/><circle cx="261" cy="21" r="3" fill="rgb(0,0,0)"/><circle cx="261" cy="27" r="3" fill="rgb(1,1,1)"/><circle cx="261" cy="33" r="3" fill="rgb(0,0,0)"/><circle cx="261" cy="39" r="3" fill="rgb(1,1,1)"/><circle cx="261" cy="45" r="3" fill="rgb(1,1,1)"/><circle cx="261" cy="51" r="3" fill="rgb(0,0,0)"/><circle cx="261" cy="57" r="3" fill="rgb(1,1,1)"/><circle cx="261" cy="63" r="3" fill="rgb(0,0,0)"/><circle cx="261" cy="69" r="3" fill="rgb(1,1,1)"/><circle cx="261" cy="75" r="3" fill="rgb(1,1,1)"/><circle cx="261" cy="81" r="3" fill="rgb(0,0,0)"/><circle cx="261" cy="87" r="3" fill="rgb(1,1,1)"/><circle cx="261" cy="93" r="3" fill="rgb(1,1,1)"/><circle cx="261" cy="99" r="3" fill="rgb(0,0,0)"/><circle cx="261" cy="105" r="3" fill="rgb(1,1,1)"/><circle cx="261" cy="111" r="3" fill="rgb(1,1,1)"/><circle cx="267" cy="15" r="3" fill="rgb(1,1,1)"/><circle cx="267" cy="21" r="3" fill="rgb(1,1,1)"/><circle cx="267" cy="27" r="3" fill="rgb(1,1,1)"/><circle cx="267" cy="33" r="3" fill="rgb(0,0,0)"/><circle cx="267" cy="39" r="3" fill="rgb(1,1,1)"/><circle cx="267" cy="45" r="3" fill="rgb(0,0,0)"/><circle cx="267" cy="51" r="3" fill="rgb(0,0,0)"/><circle cx="267" cy="57" r="3" fill="rgb(1,1,1)"/><circle cx="267" cy="63" r="3" fill="rgb(0,0,0)"/><circle cx="267" cy="69" r="3" fill="rgb(0,0,0)"/><circle cx="267" cy="75" r="3" fill="rgb(1,1,1)"/><circle cx="267" cy="81" r="3" fill="rgb(0,0,0)"/><circle cx="267" cy="87" r="3" fill="rgb(1,1,1)"/><circle cx="267" cy="93" r="3" fill="rgb(1,1,1)"/><circle cx="267" cy="99" r="3" fill="rgb(0,0,0)"/><circle cx="267" cy="105" r="3" fill="rgb(1,1,1)"/><circle cx="267" cy="111" r="3" fill="rgb(1,1,1)"/><circle cx="273" cy="15" r="3" fill="rgb(1,1,1)"/><circle cx="273" cy="21" r="3" fill="rgb(1,1,1)"/><circle cx="273" cy="27" r="3" fill="rgb(0,0,0)"/><circle cx="273" cy="33" r="3" fill="rgb(0,0,0)"/><circle cx="273" cy="39" r="3" fill="rgb(0,0,0)"/><circle cx="273" cy="45" r="3" fill="rgb(0,0,0)"/><circle cx="273" cy="51" r="3" fill="rgb(1,1,1)"/><circle cx="273" cy="57" r="3" fill="rgb(1,1,1)"/><circle cx="273" cy="63" r="3" fill="rgb(0,0,0)"/><circle cx="273" cy="69" r="3" fill="rgb(1,1,1)"/><circle cx="273" cy="75" r="3" fill="rgb(1,1,1)"/><circle cx="273" cy="81" r="3" fill="rgb(0,0,0)"/><circle cx="273" cy="87" r="3" fill="rgb(1,1,1)"/><circle cx="273" cy="93" r="3" fill="rgb(1,1,1)"/><circle cx="273" cy="99" r="3" fill="rgb(0,0,0)"/><circle cx="273" cy="105" r="3" fill="rgb(1,1,1)"/><circle cx="273" cy="111" r="3" fill="rgb(1,1,1)"/><circle cx="279" cy="15" r="2.75" fill="rgb(1,1,1)"/><circle cx="279" cy="21" r="3" fill="rgb(1,1,1)"/><circle cx="279" cy="27" r="3" fill="rgb(0,0,0)"/><circle cx="279" cy="33" r="3" fill="rgb(0,0,0)"/><circle cx="279" cy="39" r="3" fill="rgb(0,0,0)"/><circle cx="279" cy="45" r="3" fill="rgb(0,0,0)"/><circle cx="279" cy="51" r="3" fill="rgb(1,1,1)"/><circle cx="279" cy="57" r="3" fill="rgb(1,1,1)"/><circle cx="279" cy="63" r="3" fill="rgb(0,0,0)"/><circle cx="279" cy="69" r="3" fill="rgb(1,1,1)"/><circle cx="279" cy="75" r="3" fill="rgb(0,0,0)"/><circle cx="279" cy="81" r="3" fill="rgb(1,1,1)"/><circle cx="279" cy="87" r="3" fill="rgb(1,1,1)"/><circle cx="279" cy="93" r="3" fill="rgb(1,1,1)"/><circle cx="279" cy="99" r="3" fill="rgb(1,1,1)"/><circle cx="279" cy="105" r="3" fill="rgb(1,1,1)"/><circle cx="279" cy="111" r="3" fill="rgb(1,1,1)"/><circle cx="285" cy="21" r="2.9166666666667" fill="rgb(1,1,1)"/><circle cx="285" cy="27" r="3" fill="rgb(1,1,1)"/><circle cx="285" cy="33" r="3" fill="rgb(0,0,0)"/><circle cx="285" cy="39" r="3" fill="rgb(0,0,0)"/><circle cx="285" cy="45" r="3" fill="rgb(212,40,40)"/><circle cx="285" cy="51" r="3" fill="rgb(213,41,41)"/><circle cx="285" cy="57" r="3" fill="rgb(213,41,41)"/><circle cx="285" cy="63" r="3" fill="rgb(206,41,40)"/><circle cx="291" cy="33" r="3" fill="rgb(1,1,1)"/><circle cx="291" cy="39" r="3" fill="rgb(0,0,0)"/><circle cx="291" cy="45" r="3" fill="rgb(1,1,1)"/><circle cx="291" cy="51" r="3" fill="rgb(214,42,42)"/><circle cx="291" cy="57" r="3" fill="rgb(207,41,40)"/><circle cx="291" cy="63" r="3" fill="rgb(214,43,39)"/><circle cx="291" cy="69" r="3" fill="rgb(206,40,40)"/><circle cx="297" cy="33" r="2.8333333333333" fill="rgb(1,1,1)"/><circle cx="297" cy="39" r="3" fill="rgb(0,0,0)"/><circle cx="297" cy="45" r="3" fill="rgb(1,1,1)"/><circle cx="297" cy="51" r="3" fill="rgb(0,0,0)"/><circle cx="297" cy="57" r="3" fill="rgb(0,0,0)"/><circle cx="297" cy="63" r="3" fill="rgb(215,42,39)"/><circle cx="297" cy="69" r="3" fill="rgb(208,41,40)"/><circle cx="297" cy="75" r="3" fill="rgb(214,52,43)"/><circle cx="303" cy="45" r="3" fill="rgb(1,1,1)"/><circle cx="303" cy="51" r="3" fill="rgb(0,0,0)"/><circle cx="303" cy="57" r="3" fill="rgb(0,0,0)"/><circle cx="303" cy="63" r="3" fill="rgb(0,0,0)"/><circle cx="303" cy="69" r="3" fill="rgb(204,41,41)"/><circle cx="303" cy="75" r="3" fill="rgb(207,41,40)"/><circle cx="309" cy="45" r="2.6666666666667" fill="rgb(1,1,1)"/><circle cx="309" cy="51" r="3" fill="rgb(0,0,0)"/><circle cx="309" cy="57" r="3" fill="rgb(1,1,1)"/><circle cx="309" cy="63" r="3" fill="rgb(0,0,0)"/><circle cx="309" cy="69" r="3" fill="rgb(0,0,0)"/><circle cx="309" cy="75" r="3" fill="rgb(1,1,1)"/><circle cx="309" cy="81" r="3" fill="rgb(214,43,41)"/><circle cx="309" cy="87" r="3" fill="rgb(205,42,41)"/><circle cx="315" cy="51" r="2.5833333333333" fill="rgb(1,1,1)"/><circle cx="315" cy="57" r="3" fill="rgb(1,1,1)"/><circle cx="315" cy="63" r="3" fill="rgb(0,0,0)"/><circle cx="315" cy="69" r="3" fill="rgb(0,0,0)"/><circle cx="315" cy="75" r="3" fill="rgb(0,0,0)"/><circle cx="315" cy="81" r="3" fill="rgb(0,0,0)"/><circle cx="315" cy="87" r="3" fill="rgb(215,43,40)"/><circle cx="315" cy="93" r="3" fill="rgb(204,40,39)"/><circle cx="321" cy="57" r="2.9166666666667" fill="rgb(1,1,1)"/><circle cx="321" cy="63" r="3" fill="rgb(1,1,1)"/><circle cx="321" cy="69" r="3" fill="rgb(0,0,0)"/><circle cx="321" cy="75" r="3" fill="rgb(0,0,0)"/><circle cx="321" cy="81" r="3" fill="rgb(1,1,1)"/><circle cx="321" cy="87" r="3" fill="rgb(1,1,1)"/><circle cx="321" cy="93" r="3" fill="rgb(0,1,1)"/><circle cx="321" cy="99" r="2.9166666666667" fill="rgb(160,45,44)"/><circle cx="327" cy="15" r="3" fill="rgb(0,0,0)"/><circle cx="327" cy="21" r="2.75" fill="rgb(0,0,0)"/><circle cx="327" cy="27" r="2.75" fill="rgb(1,1,1)"/><circle cx="327" cy="33" r="2.9166666666667" fill="rgb(0,0,0)"/><circle cx="327" cy="39" r="2.8333333333333" fill="rgb(0,0,0)"/><circle cx="327" cy="45" r="2.4166666666667" fill="rgb(1,1,1)"/><circle cx="327" cy="51" r="2.1666666666667" fill="rgb(0,0,0)"/><circle cx="327" cy="57" r="2.75" fill="rgb(0,0,0)"/><circle cx="327" cy="63" r="3" fill="rgb(1,1,1)"/><circle cx="327" cy="69" r="3" fill="rgb(0,0,0)"/><circle cx="327" cy="75" r="3" fill="rgb(1,1,1)"/><circle cx="327" cy="81" r="3" fill="rgb(0,0,0)"/><circle cx="327" cy="87" r="3" fill="rgb(0,0,0)"/><circle cx="327" cy="93" r="3" fill="rgb(1,1,1)"/><circle cx="327" cy="99" r="3" fill="rgb(0,0,0)"/><circle cx="333" cy="15" r="3" fill="rgb(1,1,1)"/><circle cx="333" cy="21" r="3" fill="rgb(0,0,0)"/><circle cx="333" cy="27" r="3" fill="rgb(1,1,1)"/><circle cx="333" cy="33" r="3" fill="rgb(0,0,0)"/><circle cx="333" cy="39" r="3" fill="rgb(1,1,1)"/><circle cx="333" cy="45" r="3" fill="rgb(1,1,1)"/><circle cx="333" cy="51" r="3" fill="rgb(0,0,0)"/><circle cx="333" cy="57" r="3" fill="rgb(1,1,1)"/><circle cx="333" cy="63" r="3" fill="rgb(0,0,0)"/><circle cx="333" cy="69" r="3" fill="rgb(0,0,0)"/><circle cx="333" cy="75" r="3" fill="rgb(1,1,1)"/><circle cx="333" cy="81" r="3" fill="rgb(0,0,0)"/><circle cx="333" cy="87" r="3" fill="rgb(0,0,0)"/><circle cx="333" cy="93" r="3" fill="rgb(1,1,1)"/><circle cx="333" cy="99" r="3" fill="rgb(0,0,0)"/><circle cx="333" cy="105" r="3" fill="rgb(0,0,0)"/><circle cx="333" cy="111" r="2.9166666666667" fill="rgb(0,0,0)"/><circle cx="339" cy="15" r="3" fill="rgb(1,1,1)"/><circle cx="339" cy="21" r="3" fill="rgb(1,1,1)"/><circle cx="339" cy="27" r="3" fill="rgb(1,1,1)"/><circle cx="339" cy="33" r="3" fill="rgb(0,0,0)"/><circle cx="339" cy="39" r="3" fill="rgb(1,1,1)"/><circle cx="339" cy="45" r="3" fill="rgb(1,1,1)"/><circle cx="339" cy="51" r="3" fill="rgb(0,0,0)"/><circle cx="339" cy="57" r="3" fill="rgb(1,1,1)"/><circle cx="339" cy="63" r="3" fill="rgb(0,0,0)"/><circle cx="339" cy="69" r="3" fill="rgb(1,1,1)"/><circle cx="339" cy="75" r="3" fill="rgb(1,1,1)"/><circle cx="339" cy="81" r="3" fill="rgb(0,0,0)"/><circle cx="339" cy="87" r="3" fill="rgb(1,1,1)"/><circle cx="339" cy="93" r="3" fill="rgb(1,1,1)"/><circle cx="339" cy="99" r="3" fill="rgb(0,0,0)"/><circle cx="339" cy="105" r="3" fill="rgb(1,1,1)"/><circle cx="339" cy="111" r="3" fill="rgb(1,1,1)"/><circle cx="345" cy="15" r="3" fill="rgb(1,1,1)"/><circle cx="345" cy="21" r="3" fill="rgb(1,1,1)"/><circle cx="345" cy="27" r="3" fill="rgb(1,1,1)"/><circle cx="345" cy="33" r="3" fill="rgb(0,0,0)"/><circle cx="345" cy="39" r="3" fill="rgb(1,1,1)"/><circle cx="345" cy="45" r="3" fill="rgb(1,1,1)"/><circle cx="345" cy="51" r="3" fill="rgb(0,0,0)"/><circle cx="345" cy="57" r="3" fill="rgb(1,1,1)"/><circle cx="345" cy="63" r="3" fill="rgb(0,0,0)"/><circle cx="345" cy="69" r="3" fill="rgb(0,0,0)"/><circle cx="345" cy="75" r="3" fill="rgb(1,1,1)"/><circle cx="345" cy="81" r="3" fill="rgb(0,0,0)"/><circle cx="345" cy="87" r="3" fill="rgb(1,1,1)"/><circle cx="345" cy="93" r="3" fill="rgb(0,0,0)"/><circle cx="345" cy="99" r="3" fill="rgb(0,0,0)"/><circle cx="345" cy="105" r="3" fill="rgb(1,1,1)"/><circle cx="345" cy="111" r="3" fill="rgb(1,1,1)"/><circle cx="351" cy="15" r="3" fill="rgb(1,1,1)"/><circle cx="351" cy="21" r="3" fill="rgb(1,1,1)"/><circle cx="351" cy="27" r="3" fill="rgb(1,1,1)"/><circle cx="351" cy="33" r="3" fill="rgb(0,0,0)"/><circle cx="351" cy="39" r="3" fill="rgb(1,1,1)"/><circle cx="351" cy="45" r="3" fill="rgb(1,1,1)"/><circle cx="351" cy="51" r="3" fill="rgb(0,0,0)"/><circle cx="351" cy="57" r="3" fill="rgb(1,1,1)"/><circle cx="351" cy="63" r="3" fill="rgb(0,0,0)"/><circle cx="351" cy="69" r="3" fill="rgb(1,1,1)"/><circle cx="351" cy="75" r="3" fill="rgb(1,1,1)"/><circle cx="351" cy="81" r="3" fill="rgb(0,0,0)"/><circle cx="351" cy="87" r="3" fill="rgb(0,0,0)"/><circle cx="351" cy="93" r="3" fill="rgb(0,0,0)"/><circle cx="351" cy="99" r="3" fill="rgb(0,0,0)"/><circle cx="351" cy="105" r="3" fill="rgb(0,0,0)"/><circle cx="351" cy="111" r="3" fill="rgb(1,1,1)"/><circle cx="357" cy="15" r="3" fill="rgb(1,1,1)"/><circle cx="357" cy="21" r="3" fill="rgb(1,1,1)"/><circle cx="357" cy="27" r="3" fill="rgb(1,1,1)"/><circle cx="357" cy="33" r="3" fill="rgb(1,1,1)"/><circle cx="357" cy="39" r="3" fill="rgb(1,1,1)"/><circle cx="357" cy="45" r="3" fill="rgb(1,1,1)"/><circle cx="357" cy="51" r="3" fill="rgb(1,1,1)"/><circle cx="357" cy="57" r="3" fill="rgb(0,0,0)"/><circle cx="357" cy="63" r="3" fill="rgb(1,1,1)"/><circle cx="357" cy="69" r="3" fill="rgb(0,0,0)"/><circle cx="357" cy="75" r="3" fill="rgb(0,0,0)"/><circle cx="357" cy="81" r="3" fill="rgb(1,1,1)"/><circle cx="357" cy="87" r="3" fill="rgb(0,0,0)"/><circle cx="357" cy="93" r="3" fill="rgb(0,0,0)"/><circle cx="357" cy="99" r="3" fill="rgb(0,0,0)"/><circle cx="357" cy="105" r="3" fill="rgb(0,0,0)"/><circle cx="357" cy="111" r="3" fill="rgb(1,1,1)"/><circle cx="363" cy="63" r="2.25" fill="rgb(1,1,1)"/><circle cx="363" cy="93" r="1.8333333333333" fill="rgb(1,1,1)"/><circle cx="363" cy="111" r="1.9166666666667" fill="rgb(1,1,1)"/><circle cx="375" cy="15" r="3" fill="rgb(0,0,0)"/><circle cx="381" cy="15" r="3" fill="rgb(0,0,0)"/><circle cx="381" cy="21" r="3" fill="rgb(0,0,0)"/><circle cx="387" cy="15" r="3" fill="rgb(1,1,1)"/><circle cx="387" cy="21" r="3" fill="rgb(1,1,1)"/><circle cx="387" cy="27" r="3" fill="rgb(0,0,0)"/><circle cx="387" cy="33" r="2.9166666666667" fill="rgb(0,0,0)"/><circle cx="393" cy="15" r="3" fill="rgb(1,1,1)"/><circle cx="393" cy="21" r="3" fill="rgb(1,1,1)"/><circle cx="393" cy="27" r="3" fill="rgb(0,0,0)"/><circle cx="393" cy="33" r="3" fill="rgb(0,0,0)"/><circle cx="393" cy="39" r="2.8333333333333" fill="rgb(1,1,1)"/><circle cx="399" cy="15" r="3" fill="rgb(1,1,1)"/><circle cx="399" cy="21" r="3" fill="rgb(1,1,1)"/><circle cx="399" cy="27" r="3" fill="rgb(1,1,1)"/><circle cx="399" cy="33" r="3" fill="rgb(1,1,1)"/><circle cx="399" cy="39" r="3" fill="rgb(0,0,0)"/><circle cx="399" cy="45" r="3" fill="rgb(0,0,0)"/><circle cx="405" cy="15" r="3" fill="rgb(1,1,1)"/><circle cx="405" cy="21" r="3" fill="rgb(0,0,0)"/><circle cx="405" cy="27" r="3" fill="rgb(1,1,1)"/><circle cx="405" cy="33" r="3" fill="rgb(0,0,0)"/><circle cx="405" cy="39" r="3" fill="rgb(0,0,0)"/><circle cx="405" cy="45" r="3" fill="rgb(1,1,1)"/><circle cx="405" cy="51" r="3" fill="rgb(1,1,1)"/><circle cx="405" cy="57" r="2.8333333333333" fill="rgb(1,1,1)"/><circle cx="411" cy="15" r="3" fill="rgb(1,1,1)"/><circle cx="411" cy="21" r="3" fill="rgb(1,1,1)"/><circle cx="411" cy="27" r="3" fill="rgb(1,1,1)"/><circle cx="411" cy="33" r="3" fill="rgb(0,0,0)"/><circle cx="411" cy="39" r="3" fill="rgb(0,0,0)"/><circle cx="411" cy="45" r="3" fill="rgb(1,1,1)"/><circle cx="411" cy="51" r="3" fill="rgb(0,0,0)"/><circle cx="411" cy="57" r="3" fill="rgb(1,1,1)"/><circle cx="411" cy="63" r="3" fill="rgb(0,0,0)"/><circle cx="417" cy="27" r="3" fill="rgb(1,1,1)"/><circle cx="417" cy="33" r="3" fill="rgb(0,0,0)"/><circle cx="417" cy="39" r="3" fill="rgb(1,1,1)"/><circle cx="417" cy="45" r="3" fill="rgb(1,1,1)"/><circle cx="417" cy="51" r="3" fill="rgb(0,0,0)"/><circle cx="417" cy="57" r="3" fill="rgb(1,1,1)"/><circle cx="417" cy="63" r="3" fill="rgb(0,0,0)"/><circle cx="417" cy="69" r="2.9166666666667" fill="rgb(1,1,1)"/><circle cx="423" cy="33" r="3" fill="rgb(1,1,1)"/><circle cx="423" cy="39" r="3" fill="rgb(1,1,1)"/><circle cx="423" cy="45" r="3" fill="rgb(0,0,0)"/><circle cx="423" cy="51" r="3" fill="rgb(1,1,1)"/><circle cx="423" cy="57" r="3" fill="rgb(1,1,1)"/><circle cx="423" cy="63" r="3" fill="rgb(1,1,1)"/><circle cx="423" cy="69" r="3" fill="rgb(1,1,1)"/><circle cx="423" cy="75" r="3" fill="rgb(1,1,1)"/><circle cx="423" cy="81" r="3" fill="rgb(0,0,0)"/><circle cx="423" cy="87" r="3" fill="rgb(1,1,1)"/><circle cx="423" cy="93" r="3" fill="rgb(0,0,0)"/><circle cx="423" cy="99" r="3" fill="rgb(0,0,0)"/><circle cx="423" cy="105" r="3" fill="rgb(1,1,1)"/><circle cx="423" cy="111" r="3" fill="rgb(0,0,0)"/><circle cx="429" cy="39" r="2.9166666666667" fill="rgb(1,1,1)"/><circle cx="429" cy="45" r="3" fill="rgb(1,1,1)"/><circle cx="429" cy="51" r="3" fill="rgb(1,1,1)"/><circle cx="429" cy="57" r="3" fill="rgb(1,1,1)"/><circle cx="429" cy="63" r="3" fill="rgb(1,1,1)"/><circle cx="429" cy="69" r="3" fill="rgb(1,1,1)"/><circle cx="429" cy="75" r="3" fill="rgb(0,0,0)"/><circle cx="429" cy="81" r="3" fill="rgb(0,0,0)"/><circle cx="429" cy="87" r="3" fill="rgb(1,1,1)"/><circle cx="429" cy="93" r="3" fill="rgb(1,1,1)"/><circle cx="429" cy="99" r="3" fill="rgb(1,1,1)"/><circle cx="429" cy="105" r="3" fill="rgb(1,1,1)"/><circle cx="429" cy="111" r="3" fill="rgb(0,0,0)"/><circle cx="435" cy="45" r="2.6666666666667" fill="rgb(1,1,1)"/><circle cx="435" cy="51" r="3" fill="rgb(0,0,0)"/><circle cx="435" cy="57" r="3" fill="rgb(0,0,0)"/><circle cx="435" cy="63" r="3" fill="rgb(1,1,1)"/><circle cx="435" cy="69" r="3" fill="rgb(1,1,1)"/><circle cx="435" cy="75" r="3" fill="rgb(0,0,0)"/><circle cx="435" cy="81" r="3" fill="rgb(1,1,1)"/><circle cx="435" cy="87" r="3" fill="rgb(1,1,1)"/><circle cx="435" cy="93" r="3" fill="rgb(1,1,1)"/><circle cx="435" cy="99" r="3" fill="rgb(1,1,1)"/><circle cx="435" cy="105" r="3" fill="rgb(1,1,1)"/><circle cx="435" cy="111" r="3" fill="rgb(1,1,1)"/><circle cx="441" cy="51" r="3" fill="rgb(1,1,1)"/><circle cx="441" cy="57" r="3" fill="rgb(0,0,0)"/><circle cx="441" cy="63" r="3" fill="rgb(1,1,1)"/><circle cx="441" cy="69" r="3" fill="rgb(210,40,40)"/><circle cx="441" cy="75" r="3" fill="rgb(210,40,40)"/><circle cx="441" cy="81" r="3" fill="rgb(210,41,41)"/><circle cx="441" cy="87" r="3" fill="rgb(0,0,0)"/><circle cx="441" cy="93" r="3" fill="rgb(1,1,1)"/><circle cx="441" cy="99" r="3" fill="rgb(1,1,1)"/><circle cx="441" cy="105" r="3" fill="rgb(0,0,0)"/><circle cx="441" cy="111" r="3" fill="rgb(1,1,1)"/><circle cx="447" cy="39" r="2.8333333333333" fill="rgb(1,1,1)"/><circle cx="447" cy="45" r="3" fill="rgb(0,0,0)"/><circle cx="447" cy="51" r="3" fill="rgb(0,0,0)"/><circle cx="447" cy="57" r="3" fill="rgb(207,42,40)"/><circle cx="447" cy="63" r="3" fill="rgb(210,40,40)"/><circle cx="447" cy="69" r="3" fill="rgb(209,40,40)"/><circle cx="447" cy="75" r="3" fill="rgb(210,40,40)"/><circle cx="447" cy="81" r="3" fill="rgb(209,41,40)"/><circle cx="447" cy="87" r="3" fill="rgb(209,39,39)"/><circle cx="447" cy="93" r="3" fill="rgb(207,42,40)"/><circle cx="447" cy="99" r="3" fill="rgb(0,0,0)"/><circle cx="447" cy="105" r="3" fill="rgb(1,1,1)"/><circle cx="447" cy="111" r="3" fill="rgb(1,1,1)"/><circle cx="453" cy="33" r="3" fill="rgb(0,0,0)"/><circle cx="453" cy="39" r="3" fill="rgb(1,1,1)"/><circle cx="453" cy="45" r="3" fill="rgb(1,1,1)"/><circle cx="453" cy="51" r="3" fill="rgb(209,39,40)"/><circle cx="453" cy="57" r="3" fill="rgb(209,41,40)"/><circle cx="453" cy="63" r="3" fill="rgb(209,41,40)"/><circle cx="453" cy="69" r="3" fill="rgb(210,40,40)"/><circle cx="453" cy="75" r="3" fill="rgb(211,41,41)"/><circle cx="453" cy="81" r="3" fill="rgb(209,40,40)"/><circle cx="453" cy="87" r="3" fill="rgb(209,39,39)"/><circle cx="453" cy="93" r="3" fill="rgb(209,41,40)"/><circle cx="453" cy="99" r="3" fill="rgb(209,41,40)"/><circle cx="453" cy="105" r="3" fill="rgb(27,1,1)"/><circle cx="453" cy="111" r="3" fill="rgb(1,1,1)"/><circle cx="459" cy="21" r="3" fill="rgb(0,0,0)"/><circle cx="459" cy="27" r="3" fill="rgb(1,1,1)"/><circle cx="459" cy="33" r="3" fill="rgb(0,0,0)"/><circle cx="459" cy="39" r="3" fill="rgb(1,1,1)"/><circle cx="459" cy="45" r="3" fill="rgb(209,39,39)"/><circle cx="459" cy="51" r="3" fill="rgb(209,39,39)"/><circle cx="459" cy="57" r="3" fill="rgb(209,40,40)"/><circle cx="459" cy="63" r="3" fill="rgb(209,40,40)"/><circle cx="459" cy="69" r="2.9166666666667" fill="rgb(212,40,40)"/><circle cx="465" cy="15" r="3" fill="rgb(1,1,1)"/><circle cx="465" cy="21" r="3" fill="rgb(0,0,0)"/><circle cx="465" cy="27" r="3" fill="rgb(1,1,1)"/><circle cx="465" cy="33" r="3" fill="rgb(209,39,39)"/><circle cx="465" cy="39" r="3" fill="rgb(208,39,39)"/><circle cx="465" cy="45" r="3" fill="rgb(210,40,40)"/><circle cx="465" cy="51" r="3" fill="rgb(209,41,40)"/><circle cx="465" cy="57" r="3" fill="rgb(209,41,40)"/><circle cx="471" cy="15" r="3" fill="rgb(1,1,1)"/><circle cx="471" cy="21" r="3" fill="rgb(1,1,1)"/><circle cx="471" cy="27" r="3" fill="rgb(209,39,39)"/><circle cx="471" cy="33" r="3" fill="rgb(209,39,39)"/><circle cx="471" cy="39" r="3" fill="rgb(209,39,39)"/><circle cx="471" cy="45" r="3" fill="rgb(210,40,40)"/><circle cx="471" cy="51" r="3" fill="rgb(209,40,40)"/><circle cx="477" cy="15" r="3" fill="rgb(1,1,1)"/><circle cx="477" cy="21" r="3" fill="rgb(211,39,39)"/><circle cx="477" cy="27" r="3" fill="rgb(209,39,39)"/><circle cx="477" cy="33" r="3" fill="rgb(209,39,39)"/><circle cx="477" cy="39" r="3" fill="rgb(209,39,39)"/><circle cx="483" cy="15" r="3" fill="rgb(209,40,39)"/><circle cx="483" cy="21" r="3" fill="rgb(209,39,39)"/><circle cx="483" cy="27" r="3" fill="rgb(210,40,40)"/><circle cx="483" cy="33" r="3" fill="rgb(209,39,39)"/><circle cx="489" cy="15" r="3" fill="rgb(212,40,40)"/><circle cx="489" cy="21" r="3" fill="rgb(209,39,39)"/><circle cx="489" cy="27" r="2.6666666666667" fill="rgb(211,41,40)"/><circle cx="495" cy="15" r="3" fill="rgb(208,41,40)"/></svg>