<?xml version="1.0" encoding="UTF-8"?>
<svg id="svg" version="1.1" width="512" height="224" viewBox="0 0 512 224" xmlns="http://www.w3.org/2000/svg" xmlns:xlink="http://www.w3.org/1999/xlink"><path d="M472.500 33.594 C 477.250 34.358,484.000 34.453,484.000 33.757 C 484.000 33.341,480.963 33.061,477.250 33.136 C 473.538 33.211,471.400 33.417,472.500 33.594 M176.773 35.555 C 143.239 43.684,128.060 82.593,147.273 111.176 C 156.197 124.452,169.599 131.910,186.056 132.757 C 197.275 133.334,204.001 132.110,212.438 127.955 C 239.282 114.733,248.427 80.838,231.848 56.011 C 220.375 38.830,197.821 30.453,176.773 35.555 M442.284 48.243 C 436.903 56.077,431.600 63.805,430.500 65.416 C 429.400 67.028,428.017 68.504,427.427 68.697 C 426.836 68.891,420.340 61.388,412.990 52.024 L 399.627 35.000 382.872 35.000 C 373.657 35.000,365.904 35.347,365.642 35.771 C 365.380 36.194,375.455 49.357,388.031 65.021 L 410.897 93.500 410.957 105.000 C 410.990 111.325,411.301 118.863,411.648 121.750 L 412.279 127.000 428.889 126.884 C 438.025 126.820,444.774 126.574,443.888 126.337 C 442.467 125.958,424.910 90.962,424.976 88.641 C 424.989 88.169,428.022 83.669,431.715 78.641 C 441.865 64.825,459.270 40.919,461.850 37.250 L 464.136 34.000 458.102 34.000 L 452.069 34.000 442.284 48.243 M323.490 36.017 C 323.144 36.576,323.184 47.151,323.577 59.517 C 323.971 71.883,324.042 82.000,323.735 82.000 C 323.428 82.000,312.004 71.650,298.348 59.000 L 273.520 36.000 260.098 36.000 L 246.677 36.000 247.337 68.250 C 247.700 85.988,247.997 106.913,247.998 114.750 L 248.000 129.000 264.660 129.000 L 281.320 129.000 280.678 105.500 C 280.325 92.575,280.355 82.000,280.743 82.000 C 281.132 82.000,284.400 84.813,288.006 88.250 C 293.806 93.779,293.718 93.646,287.249 87.096 L 279.937 79.692 280.219 68.774 L 280.500 57.857 294.074 76.178 C 314.321 103.509,330.000 125.641,330.000 126.891 C 330.000 127.651,334.452 128.000,344.128 128.000 L 358.257 128.000 357.643 116.250 C 357.306 109.788,356.789 93.475,356.494 80.000 C 356.200 66.525,355.700 50.888,355.383 45.250 L 354.808 35.000 339.463 35.000 C 330.143 35.000,323.871 35.399,323.490 36.017 M56.750 38.749 L 35.000 39.039 35.000 50.020 L 35.000 61.000 51.868 61.000 L 68.737 61.000 69.327 65.250 C 69.651 67.588,69.640 83.262,69.301 100.083 C 68.777 126.108,68.899 130.747,70.119 131.215 C 70.907 131.518,74.802 131.532,78.776 131.248 L 86.000 130.731 86.000 89.866 C 86.000 55.754,86.228 49.000,87.382 49.000 C 88.656 49.000,129.624 56.379,134.750 57.532 C 136.967 58.031,137.000 57.892,137.000 48.019 L 137.000 38.000 107.750 38.229 C 91.663 38.356,68.713 38.589,56.750 38.749 M205.236 51.242 C 212.221 54.450,219.737 61.770,222.955 68.500 C 224.760 72.274,225.451 75.707,225.775 82.500 C 226.196 91.351,226.139 91.624,222.341 98.995 C 219.197 105.095,217.312 107.370,212.205 111.226 C 204.231 117.249,197.369 119.329,187.146 118.825 C 173.762 118.165,161.901 110.629,156.334 99.250 C 152.726 91.875,151.901 79.499,154.530 72.188 C 158.229 61.900,166.704 53.620,177.500 49.744 C 184.950 47.070,197.646 47.755,205.236 51.242 M179.951 52.298 C 171.209 54.779,163.497 61.318,158.832 70.205 C 157.006 73.684,156.577 76.115,156.578 83.000 C 156.579 90.236,156.990 92.348,159.340 97.202 C 171.500 122.320,208.582 121.696,220.331 96.176 C 223.598 89.078,223.307 77.395,219.675 69.857 C 216.512 63.293,209.761 56.666,203.343 53.828 C 197.671 51.318,186.073 50.560,179.951 52.298 M469.872 53.750 C 468.629 55.336,468.664 55.371,470.250 54.128 C 471.916 52.821,472.445 52.000,471.622 52.000 C 471.415 52.000,470.627 52.788,469.872 53.750 M197.925 58.453 C 199.054 59.152,196.066 66.023,193.229 69.250 C 189.938 72.993,185.289 70.563,181.532 63.135 C 179.759 59.629,180.143 58.560,183.500 57.655 C 185.986 56.984,196.488 57.566,197.925 58.453 M121.287 59.740 C 124.469 59.939,129.419 59.937,132.287 59.736 C 135.154 59.535,132.550 59.372,126.500 59.374 C 120.450 59.376,118.104 59.541,121.287 59.740 M462.872 63.750 C 461.629 65.336,461.664 65.371,463.250 64.128 C 464.916 62.821,465.445 62.000,464.622 62.000 C 464.415 62.000,463.627 62.788,462.872 63.750 M177.000 78.648 C 177.000 81.328,173.731 83.167,166.737 84.421 C 163.800 84.947,162.841 84.748,162.367 83.513 C 161.576 81.453,163.661 74.087,166.231 69.861 L 168.254 66.534 172.627 71.364 C 175.291 74.306,177.000 77.153,177.000 78.648 M213.866 72.329 C 215.190 74.900,216.323 78.691,216.386 80.752 L 216.500 84.500 212.500 84.151 C 205.808 83.566,202.000 81.505,202.000 78.469 C 202.000 75.545,208.625 66.708,210.378 67.293 C 210.973 67.491,212.543 69.757,213.866 72.329 M184.000 77.000 C 184.000 78.111,183.333 79.000,182.500 79.000 C 180.978 79.000,180.449 76.885,181.667 75.667 C 182.934 74.399,184.000 75.008,184.000 77.000 M198.000 76.441 C 198.000 78.184,196.360 79.341,195.044 78.527 C 193.713 77.704,194.911 75.000,196.607 75.000 C 197.373 75.000,198.000 75.648,198.000 76.441 M193.393 80.582 C 194.711 84.015,194.002 87.042,191.626 88.124 C 187.072 90.199,182.618 85.450,184.980 81.038 C 186.344 78.489,192.463 78.158,193.393 80.582 M183.000 87.138 C 183.000 88.273,180.134 89.468,179.333 88.667 C 179.014 88.347,179.016 87.399,179.339 86.560 C 179.945 84.980,183.000 85.463,183.000 87.138 M199.823 87.333 C 200.041 88.457,199.471 89.000,198.073 89.000 C 196.933 89.000,196.000 88.400,196.000 87.667 C 196.000 84.604,199.239 84.321,199.823 87.333 M444.872 89.750 C 443.629 91.336,443.664 91.371,445.250 90.128 C 446.213 89.373,447.000 88.585,447.000 88.378 C 447.000 87.555,446.179 88.084,444.872 89.750 M191.000 93.000 C 191.000 94.100,190.352 95.000,189.559 95.000 C 187.792 95.000,186.663 93.354,187.500 92.000 C 188.587 90.240,191.000 90.930,191.000 93.000 M183.612 96.588 C 184.273 99.222,183.631 107.702,182.700 108.633 C 181.683 109.650,173.463 105.309,170.170 102.016 C 166.236 98.083,166.829 97.011,174.560 94.075 C 180.197 91.934,182.612 92.605,183.612 96.588 M204.371 94.038 C 212.121 96.937,212.732 98.040,208.763 101.957 C 204.548 106.116,198.086 109.486,196.797 108.197 C 196.266 107.666,195.590 104.566,195.294 101.308 C 194.865 96.579,195.098 95.045,196.450 93.693 C 198.520 91.623,197.837 91.593,204.371 94.038 M302.958 102.250 C 307.102 106.665,308.000 107.459,308.000 106.708 C 308.000 106.548,305.863 104.410,303.250 101.958 L 298.500 97.500 302.958 102.250 M444.320 113.000 C 444.320 116.575,444.502 118.038,444.723 116.250 C 444.945 114.463,444.945 111.538,444.723 109.750 C 444.502 107.963,444.320 109.425,444.320 113.000 M318.500 117.000 C 322.320 120.850,325.671 124.000,325.946 124.000 C 326.221 124.000,323.320 120.850,319.500 117.000 C 315.680 113.150,312.329 110.000,312.054 110.000 C 311.779 110.000,314.680 113.150,318.500 117.000 M103.079 117.583 C 103.127 118.748,103.364 118.985,103.683 118.188 C 103.972 117.466,103.936 116.603,103.604 116.271 C 103.272 115.939,103.036 116.529,103.079 117.583 M102.982 125.702 C 102.717 128.563,102.866 130.536,103.314 130.088 C 103.762 129.639,103.979 127.298,103.796 124.886 L 103.463 120.500 102.982 125.702 " stroke="none" fill="#181818" fill-rule="evenodd"/><path d="M470.305 34.739 L 464.110 35.093 452.351 51.296 C 445.884 60.208,437.110 72.149,432.852 77.831 C 426.459 86.364,425.258 88.540,425.953 90.331 C 428.145 95.979,442.949 126.000,443.542 126.000 C 443.912 126.000,443.911 118.238,443.540 108.750 L 442.864 91.500 449.230 82.500 C 464.798 60.489,481.162 36.742,481.665 35.431 C 482.071 34.373,481.470 34.050,479.357 34.193 C 477.786 34.299,473.712 34.544,470.305 34.739 M86.558 49.775 C 86.251 50.082,86.000 68.258,86.000 90.167 L 86.000 130.000 94.000 130.000 L 102.000 130.000 102.000 95.700 C 102.000 70.356,102.313 61.087,103.200 60.200 C 104.030 59.370,109.170 59.000,119.867 59.000 C 128.373 59.000,135.105 58.771,134.825 58.492 C 134.545 58.212,124.458 56.181,112.408 53.978 C 100.359 51.775,89.739 49.802,88.808 49.595 C 87.877 49.387,86.865 49.469,86.558 49.775 M280.036 69.036 L 280.072 79.500 296.286 94.620 C 322.056 118.651,328.577 124.603,327.378 123.000 C 326.761 122.175,321.110 114.300,314.818 105.500 C 301.336 86.641,283.285 62.114,281.358 60.036 C 280.207 58.795,280.005 60.170,280.036 69.036 M454.271 147.964 C 449.001 150.356,446.009 155.012,446.004 160.827 C 445.999 166.616,449.435 170.024,457.796 172.524 C 465.001 174.678,466.879 176.236,465.000 178.500 C 464.203 179.461,461.990 180.000,458.845 180.000 C 456.145 180.000,452.320 179.325,450.346 178.500 C 448.371 177.675,446.422 177.000,446.014 177.000 C 444.758 177.000,441.704 186.104,442.644 187.044 C 444.514 188.914,456.482 191.222,461.333 190.647 C 467.975 189.860,474.795 186.384,477.094 182.613 C 479.168 179.211,479.597 172.984,477.967 169.938 C 476.759 167.681,471.219 164.675,465.361 163.097 C 456.806 160.794,457.354 156.000,466.172 156.000 C 468.882 156.000,472.418 156.682,474.030 157.515 C 476.928 159.014,476.976 158.994,478.361 155.678 C 481.361 148.497,481.351 148.422,477.150 147.163 C 470.990 145.318,459.190 145.731,454.271 147.964 M407.551 147.917 C 407.240 148.421,406.702 150.896,406.356 153.417 L 405.728 158.000 411.864 158.000 C 415.239 158.000,418.000 158.338,418.000 158.750 C 418.000 159.770,414.128 183.806,413.402 187.298 L 412.820 190.095 419.616 189.798 L 426.412 189.500 428.791 174.000 C 430.099 165.475,431.366 158.303,431.606 158.062 C 431.846 157.822,434.733 157.430,438.021 157.192 C 442.891 156.840,444.000 156.434,444.000 155.005 C 444.000 154.040,444.281 151.844,444.625 150.125 L 445.250 147.000 426.684 147.000 C 416.473 147.000,407.863 147.413,407.551 147.917 M368.493 148.624 C 366.699 149.027,366.178 151.117,363.592 168.256 C 362.001 178.806,360.489 188.239,360.233 189.218 C 359.821 190.794,360.528 191.000,366.338 191.000 L 372.909 191.000 373.542 187.250 C 374.669 180.567,375.046 179.866,377.336 180.192 C 378.773 180.396,380.445 182.264,382.313 185.750 L 385.127 191.000 392.045 191.000 L 398.962 191.000 395.446 184.603 L 391.930 178.206 395.489 176.007 C 404.867 170.211,405.155 155.847,396.000 150.539 C 393.126 148.872,390.532 148.479,381.500 148.340 C 375.450 148.248,369.597 148.375,368.493 148.624 M320.324 170.532 L 308.148 192.000 314.824 191.992 L 321.500 191.985 323.780 187.992 L 326.060 184.000 333.942 184.000 L 341.824 184.000 342.500 188.000 L 343.176 192.000 348.338 191.985 C 356.965 191.959,356.872 192.777,350.858 169.629 L 345.500 149.009 339.000 149.036 L 332.500 149.063 320.324 170.532 M179.444 152.374 C 176.657 153.672,172.725 156.671,170.680 159.061 C 161.364 169.945,163.708 187.291,175.250 192.879 C 183.550 196.897,197.034 195.040,202.370 189.144 C 203.898 187.455,203.788 187.088,200.671 183.483 L 197.339 179.627 193.801 181.814 C 189.927 184.208,184.401 184.628,181.913 182.718 C 176.745 178.750,177.026 169.774,182.490 164.310 C 186.568 160.232,191.113 159.909,196.165 163.337 L 199.609 165.674 203.921 161.848 L 208.234 158.021 205.038 155.036 C 199.109 149.497,188.084 148.351,179.444 152.374 M220.477 150.792 L 214.455 151.084 211.190 171.792 C 209.394 183.181,207.942 192.859,207.963 193.298 C 207.983 193.736,210.813 193.961,214.250 193.798 L 220.500 193.500 221.500 188.350 C 222.472 183.346,225.477 178.559,227.040 179.524 C 227.464 179.787,229.523 182.926,231.614 186.501 L 235.416 193.000 242.708 193.000 C 246.718 193.000,250.000 192.822,250.000 192.605 C 250.000 192.388,247.016 187.168,243.370 181.004 L 236.740 169.797 246.601 159.899 L 256.462 150.000 248.981 150.000 L 241.500 149.999 233.861 158.250 C 229.660 162.787,225.994 166.275,225.714 166.000 C 225.434 165.725,225.629 162.825,226.147 159.557 C 227.569 150.583,227.484 150.452,220.477 150.792 M277.526 152.250 C 277.245 153.488,275.879 161.925,274.490 171.000 C 273.101 180.075,271.712 188.738,271.403 190.250 L 270.841 193.000 277.314 193.000 C 284.271 193.000,284.985 192.459,285.015 187.168 C 285.039 182.999,286.023 182.345,293.381 181.608 C 301.983 180.745,305.852 179.153,309.297 175.059 C 312.639 171.087,313.379 168.292,312.768 161.936 C 311.855 152.433,307.224 150.000,290.051 150.000 C 278.411 150.000,278.022 150.070,277.526 152.250 M152.752 151.716 C 149.671 152.183,149.955 151.378,147.035 167.910 C 145.927 174.186,144.335 180.367,143.497 181.645 C 140.676 185.950,133.963 185.611,132.529 181.091 C 132.195 180.039,132.840 173.801,133.961 167.228 C 136.774 150.742,137.130 152.000,129.643 152.000 L 123.287 152.000 121.023 165.085 C 119.743 172.483,118.997 179.942,119.306 182.248 C 120.321 189.815,125.824 194.819,134.059 195.663 C 144.558 196.738,153.096 192.215,156.467 183.791 C 157.790 180.484,162.977 155.028,162.996 151.750 C 163.000 150.984,157.696 150.967,152.752 151.716 M87.400 152.734 L 78.301 153.071 75.082 172.786 C 73.311 183.628,71.638 193.288,71.364 194.250 C 70.923 195.797,71.674 196.000,77.834 196.000 L 84.804 196.000 85.500 190.000 C 86.111 184.736,86.460 184.001,88.348 184.012 C 89.940 184.021,91.357 185.583,93.789 190.012 C 96.790 195.475,97.371 196.000,100.414 196.000 C 102.249 196.000,105.153 195.719,106.868 195.376 L 109.986 194.753 106.761 188.704 C 104.368 184.212,103.879 182.540,104.865 182.212 C 105.596 181.968,107.719 180.430,109.583 178.793 C 115.101 173.948,116.480 164.434,112.536 158.415 C 109.294 153.467,103.421 152.140,87.400 152.734 M35.655 154.750 C 35.391 155.713,34.878 158.253,34.515 160.395 L 33.855 164.291 39.927 163.740 C 44.934 163.286,46.000 163.456,46.000 164.709 C 46.000 165.544,44.857 172.983,43.459 181.240 C 42.062 189.497,41.070 196.403,41.255 196.588 C 41.439 196.773,44.481 196.603,48.015 196.212 L 54.439 195.500 57.157 179.500 C 58.652 170.700,59.903 163.388,59.938 163.250 C 59.972 163.113,62.714 163.000,66.031 163.000 C 72.483 163.000,72.420 163.053,73.467 156.750 L 74.091 153.000 55.113 153.000 C 37.888 153.000,36.090 153.162,35.655 154.750 M386.435 158.975 C 388.508 159.763,389.000 160.616,389.000 163.419 C 389.000 167.737,386.128 170.000,380.649 170.000 L 376.742 170.000 377.431 164.807 C 377.810 161.952,378.345 159.252,378.619 158.807 C 379.300 157.705,383.321 157.791,386.435 158.975 M298.800 161.200 C 300.464 162.864,300.303 167.555,298.520 169.337 C 296.983 170.875,289.282 172.615,288.312 171.645 C 288.007 171.341,288.070 168.596,288.451 165.546 L 289.144 160.000 293.372 160.000 C 295.697 160.000,298.140 160.540,298.800 161.200 M99.800 164.200 C 101.516 165.916,101.281 170.032,99.345 172.171 C 98.170 173.470,96.267 174.000,92.778 174.000 C 88.583 174.000,87.935 173.744,88.345 172.250 C 88.609 171.288,89.110 168.813,89.458 166.750 C 90.073 163.103,90.208 163.000,94.345 163.000 C 96.685 163.000,99.140 163.540,99.800 164.200 M338.531 169.250 L 339.227 174.000 335.124 174.000 L 331.022 174.000 333.716 168.506 C 335.199 165.484,336.732 163.346,337.123 163.756 C 337.515 164.165,338.149 166.638,338.531 169.250 " stroke="none" fill="#d42d2d" fill-rule="evenodd"/><path d="M469.802 34.737 L 464.105 35.097 456.344 45.798 C 452.075 51.684,443.592 63.250,437.492 71.500 C 431.392 79.750,426.088 87.016,425.705 87.647 C 425.000 88.809,442.322 126.000,443.568 126.000 C 443.939 126.000,443.921 118.238,443.527 108.750 C 442.858 92.632,442.937 91.336,444.738 89.000 C 448.599 83.990,481.171 36.719,481.685 35.379 C 482.238 33.936,482.382 33.944,469.802 34.737 M86.558 49.775 C 86.251 50.082,86.000 68.258,86.000 90.167 L 86.000 130.000 94.000 130.000 L 102.000 130.000 102.000 95.700 C 102.000 70.356,102.313 61.087,103.200 60.200 C 104.030 59.370,109.170 59.000,119.867 59.000 C 128.373 59.000,135.105 58.771,134.825 58.492 C 134.545 58.212,124.458 56.181,112.408 53.978 C 100.359 51.775,89.739 49.802,88.808 49.595 C 87.877 49.387,86.865 49.469,86.558 49.775 M280.023 69.250 L 280.045 79.500 297.187 95.500 C 306.615 104.300,317.496 114.425,321.368 118.000 L 328.409 124.500 323.496 117.500 C 312.169 101.361,280.957 59.000,280.392 59.000 C 280.176 59.000,280.010 63.613,280.023 69.250 M454.271 147.964 C 449.001 150.356,446.009 155.012,446.004 160.827 C 445.999 166.607,449.624 170.267,457.602 172.535 C 464.833 174.590,466.888 176.225,465.042 178.450 C 463.362 180.473,455.135 180.501,450.346 178.500 C 448.371 177.675,446.422 177.000,446.014 177.000 C 444.923 177.000,441.752 185.789,442.440 186.903 C 443.608 188.793,450.654 190.389,458.000 190.430 C 471.191 190.502,478.988 184.915,478.996 175.385 C 479.002 169.410,476.393 166.699,468.060 164.019 C 460.116 161.465,458.078 159.816,460.000 157.500 C 461.647 155.515,470.180 155.525,474.030 157.515 C 476.928 159.014,476.976 158.994,478.361 155.678 C 481.361 148.497,481.351 148.422,477.150 147.163 C 470.990 145.318,459.190 145.731,454.271 147.964 M407.551 147.917 C 407.240 148.421,406.702 150.896,406.356 153.417 L 405.728 158.000 411.864 158.000 C 415.239 158.000,418.000 158.338,418.000 158.750 C 418.000 159.770,414.128 183.806,413.402 187.298 L 412.820 190.095 419.616 189.798 L 426.412 189.500 428.791 174.000 C 430.099 165.475,431.366 158.303,431.606 158.062 C 431.846 157.822,434.733 157.430,438.021 157.192 C 442.891 156.840,444.000 156.434,444.000 155.005 C 444.000 154.040,444.281 151.844,444.625 150.125 L 445.250 147.000 426.684 147.000 C 416.473 147.000,407.863 147.413,407.551 147.917 M367.995 148.592 C 366.863 148.938,365.770 153.822,363.594 168.245 C 362.001 178.800,360.489 188.239,360.233 189.218 C 359.821 190.794,360.528 191.000,366.338 191.000 L 372.909 191.000 373.542 187.250 C 374.669 180.567,375.046 179.866,377.336 180.192 C 378.773 180.396,380.445 182.264,382.313 185.750 L 385.127 191.000 392.045 191.000 L 398.962 191.000 395.446 184.603 L 391.930 178.206 395.489 176.007 C 404.867 170.211,405.155 155.854,396.000 150.534 C 393.100 148.849,390.529 148.469,381.000 148.316 C 374.675 148.215,368.823 148.339,367.995 148.592 M324.500 163.188 C 320.100 170.968,314.613 180.633,312.306 184.666 L 308.112 192.000 314.872 192.000 L 321.632 192.000 323.880 188.000 L 326.128 184.000 333.976 184.000 L 341.824 184.000 342.500 188.000 L 343.176 192.000 349.029 192.000 C 352.248 192.000,355.166 191.540,355.514 190.978 C 355.861 190.416,353.751 180.741,350.825 169.478 L 345.504 149.000 339.002 149.022 L 332.500 149.044 324.500 163.188 M179.444 152.374 C 176.657 153.672,172.725 156.671,170.680 159.061 C 161.364 169.945,163.708 187.291,175.250 192.879 C 183.629 196.935,197.036 195.037,202.478 189.025 C 204.150 187.177,204.080 186.951,200.726 183.396 L 197.232 179.693 193.748 181.847 C 184.319 187.674,176.009 181.106,178.958 170.157 C 181.189 161.871,189.279 158.664,196.164 163.337 L 199.608 165.673 203.983 161.905 L 208.358 158.137 205.100 155.094 C 199.110 149.498,188.123 148.333,179.444 152.374 M220.451 150.792 L 214.402 151.085 211.165 171.792 C 209.384 183.182,207.943 192.859,207.964 193.298 C 207.984 193.736,210.813 193.961,214.250 193.798 L 220.500 193.500 221.500 188.350 C 222.490 183.252,225.484 178.563,227.109 179.568 C 227.572 179.854,229.576 182.993,231.562 186.544 L 235.172 193.000 242.586 193.000 C 246.664 193.000,250.000 192.822,250.000 192.605 C 250.000 192.388,247.016 187.168,243.370 181.004 L 236.740 169.797 246.601 159.899 L 256.462 150.000 248.981 149.985 L 241.500 149.969 233.854 158.235 C 229.649 162.781,225.977 166.275,225.693 166.000 C 225.409 165.725,225.614 163.103,226.148 160.174 C 227.818 151.006,227.482 150.453,220.451 150.792 M277.526 152.250 C 277.245 153.488,275.879 161.925,274.490 171.000 C 273.101 180.075,271.712 188.738,271.403 190.250 L 270.841 193.000 277.314 193.000 C 284.271 193.000,284.985 192.459,285.015 187.168 C 285.039 183.008,286.023 182.345,293.261 181.620 C 301.220 180.822,304.646 179.662,307.845 176.683 C 311.437 173.339,313.001 169.570,312.985 164.300 C 312.967 158.332,311.435 155.210,307.088 152.280 C 304.002 150.201,302.574 150.000,290.871 150.000 C 278.381 150.000,278.024 150.060,277.526 152.250 M152.252 151.706 C 149.754 152.187,149.883 151.783,147.035 167.910 C 145.927 174.186,144.335 180.367,143.497 181.645 C 140.565 186.119,133.647 185.539,132.490 180.721 C 132.197 179.500,133.005 172.538,134.286 165.250 L 136.616 152.000 129.951 152.000 L 123.287 152.000 121.023 165.085 C 119.743 172.483,118.997 179.942,119.306 182.248 C 120.321 189.815,125.824 194.819,134.059 195.663 C 144.558 196.738,153.096 192.215,156.467 183.791 C 157.790 180.484,162.977 155.028,162.996 151.750 C 163.000 150.973,156.198 150.945,152.252 151.706 M86.900 152.715 L 78.301 153.073 75.081 172.787 C 73.311 183.629,71.638 193.288,71.364 194.250 C 70.923 195.796,71.671 196.000,77.771 196.000 L 84.676 196.000 85.588 190.250 C 86.322 185.624,86.891 184.448,88.500 184.232 C 90.028 184.028,91.280 185.392,93.807 190.015 L 97.114 196.064 103.557 195.887 C 107.101 195.790,110.000 195.501,110.000 195.245 C 110.000 194.989,108.546 192.052,106.769 188.717 C 104.370 184.217,103.879 182.540,104.865 182.212 C 105.596 181.968,107.719 180.430,109.583 178.793 C 115.101 173.948,116.480 164.434,112.536 158.415 C 109.291 153.462,102.927 152.047,86.900 152.715 M35.552 154.250 C 35.340 154.938,34.889 157.476,34.549 159.892 L 33.931 164.284 39.965 163.737 C 44.937 163.286,46.000 163.457,46.000 164.709 C 46.000 165.544,44.857 172.983,43.459 181.240 C 42.062 189.497,41.103 196.437,41.329 196.662 C 41.554 196.888,44.596 196.718,48.088 196.286 L 54.438 195.500 57.156 179.500 C 58.652 170.700,59.903 163.388,59.938 163.250 C 59.972 163.113,62.714 163.000,66.031 163.000 C 72.483 163.000,72.420 163.053,73.467 156.750 L 74.091 153.000 55.014 153.000 C 40.625 153.000,35.843 153.307,35.552 154.250 M386.435 158.975 C 388.508 159.763,389.000 160.616,389.000 163.419 C 389.000 167.737,386.128 170.000,380.649 170.000 L 376.742 170.000 377.431 164.807 C 377.810 161.952,378.345 159.252,378.619 158.807 C 379.300 157.705,383.321 157.791,386.435 158.975 M298.800 161.200 C 300.567 162.967,300.259 167.461,298.250 169.236 C 297.288 170.087,294.588 171.096,292.250 171.479 C 288.261 172.133,288.001 172.032,288.011 169.838 C 288.017 168.552,288.301 165.813,288.642 163.750 C 289.243 160.115,289.390 160.000,293.431 160.000 C 295.724 160.000,298.140 160.540,298.800 161.200 M99.800 164.200 C 101.516 165.916,101.281 170.032,99.345 172.171 C 98.170 173.470,96.267 174.000,92.778 174.000 C 88.583 174.000,87.935 173.744,88.345 172.250 C 88.609 171.288,89.110 168.813,89.458 166.750 C 90.073 163.103,90.208 163.000,94.345 163.000 C 96.685 163.000,99.140 163.540,99.800 164.200 M338.011 165.250 C 338.017 165.938,338.301 168.188,338.642 170.250 L 339.262 174.000 335.114 174.000 L 330.966 174.000 333.500 169.000 C 335.904 164.255,337.987 162.524,338.011 165.250 " stroke="none" fill="#d22f2e" fill-rule="evenodd"/></svg>