<?xml version="1.0" encoding="UTF-8" standalone="no"?>
<!-- Created with Inkscape (http://www.inkscape.org/) -->

<svg
   version="1.0"
   width="708.66144"
   height="174.12325"
   id="svg4320"
   sodipodi:docname="iveco_logo.svg"
   inkscape:export-filename="iveco_logo.png"
   inkscape:export-xdpi="96"
   inkscape:export-ydpi="96"
   xmlns:inkscape="http://www.inkscape.org/namespaces/inkscape"
   xmlns:sodipodi="http://sodipodi.sourceforge.net/DTD/sodipodi-0.dtd"
   xmlns:xlink="http://www.w3.org/1999/xlink"
   xmlns="http://www.w3.org/2000/svg"
   xmlns:svg="http://www.w3.org/2000/svg">
  <sodipodi:namedview
     id="namedview1"
     pagecolor="#ffffff"
     bordercolor="#000000"
     borderopacity="0.25"
     inkscape:showpageshadow="2"
     inkscape:pageopacity="0.0"
     inkscape:pagecheckerboard="0"
     inkscape:deskcolor="#d1d1d1">
    <inkscape:page
       x="0"
       y="0"
       width="708.66144"
       height="174.12325"
       id="page2"
       margin="0"
       bleed="0" />
  </sodipodi:namedview>
  <defs
     id="defs4322">
    <linearGradient
       id="linearGradient5015">
      <stop
         id="stop5017"
         style="stop-color:#000000;stop-opacity:1"
         offset="0" />
      <stop
         id="stop5019"
         style="stop-color:#000000;stop-opacity:0"
         offset="1" />
    </linearGradient>
    <clipPath
       id="clp22">
      <path
         d="M 0,8.9314 V 0 h 1 v 8.9314"
         id="path947" />
    </clipPath>
    <clipPath
       id="clp21">
      <path
         d="m 1064.1,42.561 h 92.4 v 34.175 h -92.4 z"
         id="path939" />
    </clipPath>
    <linearGradient
       x1="1066.9561"
       y1="66.170547"
       x2="1152.9564"
       y2="66.170547"
       id="linearGradient5021"
       xlink:href="#linearGradient5015"
       gradientUnits="userSpaceOnUse" />
  </defs>
  <g
     transform="translate(-296.25196,-371.44668)"
     id="layer1">
    <g
       transform="matrix(1.2499487,0,0,-1.2499487,-1037.3884,615.07198)"
       id="q69"
       style="font-size:14px;font-family:fnt1;letter-spacing:0.42;word-spacing:0;fill:#ffffff;fill-rule:nonzero;stroke:none;stroke-width:3;stroke-linecap:butt;stroke-linejoin:miter;stroke-miterlimit:10;stroke-dasharray:none">
      <clipPath
         id="clipPath4333">
        <path
           d="m 1064.1,42.561 h 92.4 v 34.175 h -92.4 z"
           id="path4335" />
      </clipPath>
      <g
         id="g5023"
         style="fill:#ff0000">
        <g
           transform="matrix(6.592446,0,0,6.592446,-5966.8944,-310.9697)"
           clip-path="url(#clp21)"
           id="g941"
           style="fill:#ff0000;fill-opacity:1;stroke:none;stroke-opacity:1">
          <g
             id="q70"
             style="fill:#ff0000;fill-opacity:1;stroke:none;stroke-opacity:1">
            <g
               transform="matrix(86.00031,0,0,21.13283,1066.9561,55.6051)"
               id="xfrm71"
               style="fill:#ff0000;fill-opacity:1;stroke:none;stroke-opacity:1">
              <g
                 id="q72"
                 style="fill:#ff0000;fill-opacity:1;stroke:none;stroke-opacity:1">
                <clipPath
                   id="clipPath4341">
                  <path
                     d="M 0,8.9314 V 0 h 1 v 8.9314"
                     id="path4343"
                     style="stroke:url(#linearGradient5021)" />
                </clipPath>
                <g
                   clip-path="url(#clp22)"
                   id="g949"
                   style="fill:#ff0000;fill-opacity:1;stroke:none;stroke-opacity:1">
                  <path
                     d="M 0.0884,5.2594 C 0.0884,5.2299 0.0826,5.206 0.0753,5.206 H 0.0136 C 0.0064,5.206 5e-4,5.2299 5e-4,5.2594 v 0.7731 c 0,0.0295 0.0059,0.0534 0.0131,0.0534 h 0.0617 c 0.0073,0 0.0131,-0.0239 0.0131,-0.0534 V 5.2594"
                     id="path951"
                     style="fill:#ff0000;fill-opacity:1;fill-rule:nonzero;stroke:none;stroke-opacity:1" />
                  <path
                     d="m 0.4353,5.8125 c 0,0.027 0.0053,0.0489 0.012,0.0489 0,0 0,0 0,0 h 0.0741 c 0.0072,0 0.0131,0.0239 0.0131,0.0535 v 0.1172 c 0,0.0296 -0.0059,0.0534 -0.0131,0.0534 H 0.4003 c -8e-4,3e-4 -0.0017,5e-4 -0.0025,5e-4 -0.0243,0 -0.044,-0.0792 -0.0446,-0.1775 v 0 -0.5187 0 c 0,-8e-4 0,-0.0014 0,-0.0022 0,-0.1001 0.0199,-0.1812 0.0444,-0.1816 0,0 -10e-5,-2e-4 -10e-5,-3e-4 h 0.1239 c 0.0072,0 0.0131,0.0239 0.0131,0.0534 v 0.1173 c 0,0.0295 -0.0059,0.0534 -0.0131,0.0534 H 0.4466 C 0.4403,5.4312 0.4353,5.4523 0.4353,5.4784 c 0,3e-4 0,4e-4 0,7e-4 v 0.0712 h 0.0643 c 0.0073,0 0.0132,0.024 0.0132,0.0534 v 0.0886 c 0,0.0295 -0.0059,0.0535 -0.0132,0.0535 H 0.4353 v 0.0664 c 0,10e-5 0,2e-4 0,3e-4"
                     id="path953"
                     style="fill:#ff0000;fill-opacity:1;fill-rule:nonzero;stroke:none;stroke-opacity:1" />
                  <path
                     d="m 0.327,6.0853 c 0,0 -0.0283,0 -0.0378,0 C 0.2798,6.0853 0.278,6.0497 0.278,6.0497 L 0.2446,5.4782 c 0,0 -0.001,-0.0245 -0.0051,-0.0252 C 0.2346,5.4522 0.2337,5.4737 0.2337,5.4737 L 0.2009,6.0419 c 0,4e-4 0,8e-4 -10e-5,0.0012 C 0.1997,6.0675 0.1945,6.086 0.1881,6.086 c -0.0071,0 -0.0583,-1e-4 -0.0645,-1e-4 -0.0071,0 -0.0129,-0.0237 -0.0129,-0.0528 0,-0.0033 10e-5,-0.0064 2e-4,-0.0095 0,-6e-4 0,-0.0013 0,-0.0013 L 0.1567,5.3297 c 6e-4,-0.0075 0.002,-0.0231 0.0029,-0.0294 0.0071,-0.056 0.0213,-0.0945 0.0379,-0.0945 0.0103,0 0.0441,0 0.0545,0 0.0188,0 0.0347,0.0496 0.0403,0.1183 3e-4,0.0027 0.0013,0.0189 0.0013,0.0189 0,0 0.0404,0.6356 0.043,0.6815 C 0.34,6.082 0.327,6.0853 0.327,6.0853"
                     id="path955"
                     style="fill:#ff0000;fill-opacity:1;fill-rule:nonzero;stroke:none;stroke-opacity:1" />
                  <path
                     d="M 0.6649,5.8614 H 0.722 c 0.0072,0 0.0131,0.0239 0.0131,0.0535 v 0.1172 c 0,0.0296 -0.0059,0.0534 -0.0131,0.0534 H 0.6455 c -4e-4,2e-4 -8e-4,4e-4 -0.0013,4e-4 -6e-4,0 -0.0012,-3e-4 -0.0018,-4e-4 H 0.641 c -8e-4,0 -0.002,-3e-4 -0.0034,-9e-4 C 0.5884,6.0707 0.5495,5.9091 0.5495,5.705 c -4e-4,-0.0475 -7e-4,-0.0718 -3e-4,-0.1118 0,-0.2104 0.0416,-0.3826 0.093,-0.3868 8e-4,-2e-4 0.0014,-4e-4 0.002,-4e-4 H 0.722 c 0.0072,0 0.0131,0.0239 0.0131,0.0534 v 0.1155 c 0,0.0295 -0.0059,0.0534 -0.0131,0.0534 H 0.6656 C 0.6502,5.4321 0.6413,5.4713 0.6386,5.5338 0.6375,5.5611 0.6366,5.5885 0.6363,5.6408 0.636,5.7003 0.6369,5.7276 0.638,5.7526 0.6409,5.814 0.6499,5.8563 0.6649,5.8614"
                     id="path957"
                     style="fill:#ff0000;fill-opacity:1;fill-rule:nonzero;stroke:none;stroke-opacity:1" />
                  <path
                     d="M 1,5.6648 C 1,5.6656 1,5.6663 1,5.6672 0.998,6.0269 0.9474,6.0689 0.9233,6.0866 0.8622,6.1316 0.8161,6.0802 0.8106,6.0729 0.7835,6.0372 0.7477,5.974 0.7472,5.651 c 0,-0.002 0,-0.0038 0,-0.0058 0,-0.0021 0,-0.0039 0,-0.0059 C 0.7471,5.3565 0.7833,5.2572 0.8072,5.2224 0.8101,5.2168 0.8145,5.212 0.8201,5.208 0.822,5.2065 0.8236,5.2055 0.8249,5.2049 0.8504,5.1899 0.8932,5.1886 0.9206,5.2048 0.9235,5.206 0.9279,5.2088 0.9334,5.2149 0.9352,5.2168 0.9369,5.2189 0.9384,5.2211 0.9623,5.2538 0.9982,5.3487 1,5.6231 1,5.624 1,5.6247 1,5.6256 1,5.6319 1,5.6386 1,5.6452 1,5.6517 1,5.6584 1,5.6648 Z M 0.834,5.7719 c 0,0 5e-4,0.0153 0.003,0.0388 0.0039,0.0288 0.0139,0.0654 0.0374,0.0661 0.0374,9e-4 0.0394,-0.104 0.0394,-0.104 1e-4,-0.0045 2e-4,-0.0091 4e-4,-0.0137 C 0.9147,5.7372 0.9156,5.6988 0.9157,5.6507 0.9156,5.6026 0.9149,5.561 0.9144,5.5392 c -10e-5,-0.0046 -5e-4,-0.012 -6e-4,-0.0165 0,0 -0.002,-0.1049 -0.0394,-0.1039 C 0.8509,5.4194 0.8411,5.4582 0.837,5.4848 0.8346,5.5048 0.8335,5.5293 0.8335,5.5293 0.8313,5.5861 0.8316,5.6087 0.8314,5.6465 0.8313,5.6983 0.8321,5.7299 0.834,5.7719"
                     id="path959"
                     style="fill:#ff0000;fill-opacity:1;fill-rule:nonzero;stroke:none;stroke-opacity:1" />
                  <path
                     d="M 0.0556,4.7688 H 0.047 v 0.1889 h -2e-4 L 0.0285,4.8638 H 0.0271 L 0.0087,4.9577 H 0.0086 V 4.7688 H 0 V 5.0114 H 0.008 L 0.0278,4.9118 0.0476,5.0114 h 0.008 V 4.7688"
                     id="path961"
                     style="fill:#ff0000;fill-opacity:1;fill-rule:nonzero;stroke:none;stroke-opacity:1" />
                  <path
                     d="M 0.1009,4.7781 C 0.0973,4.7685 0.0959,4.7657 0.0934,4.7657 0.09,4.7657 0.0882,4.7706 0.0875,4.782 0.0841,4.771 0.0805,4.7657 0.0769,4.7657 c -0.0058,0 -0.0096,0.0185 -0.0096,0.0391 0,0.0316 0.0071,0.0412 0.0134,0.0505 l 0.0069,0.01 v 0.0085 c 0,0.0199 -0.0024,0.0281 -0.0071,0.0281 -0.0043,0 -0.0087,-0.0082 -0.0124,-0.0263 v 0.0345 c 0.003,0.0146 0.0073,0.0217 0.013,0.0217 0.0079,0 0.0142,-0.0164 0.0142,-0.0527 V 4.7969 c 0,-0.006 6e-4,-0.0081 0.0015,-0.0081 8e-4,0 0.0024,0.0032 0.0041,0.0085 z M 0.0876,4.8478 C 0.0809,4.8386 0.0751,4.8293 0.0751,4.8105 c 0,-0.0132 0.0024,-0.0224 0.0056,-0.0224 0.0025,0 0.0048,0.0049 0.0069,0.0131 v 0.0466"
                     id="path963"
                     style="fill:#ff0000;fill-opacity:1;fill-rule:nonzero;stroke:none;stroke-opacity:1" />
                  <path
                     d="m 0.1151,4.9581 c -0.0026,0 -0.0046,0.0085 -0.0046,0.0188 0,0.0104 0.002,0.0189 0.0046,0.0189 0.0025,0 0.0046,-0.0085 0.0046,-0.0189 0,-0.0103 -0.0021,-0.0188 -0.0046,-0.0188 z M 0.1189,4.7688 H 0.1112 V 4.9286 H 0.1189 V 4.7688"
                     id="path965"
                     style="fill:#ff0000;fill-opacity:1;fill-rule:nonzero;stroke:none;stroke-opacity:1" />
                  <path
                     d="M 0.1561,4.8873 C 0.1517,4.899 0.1476,4.904 0.1447,4.904 0.1416,4.904 0.1395,4.898 0.1395,4.8894 0.1395,4.8823 0.1422,4.8738 0.1491,4.8574 0.1555,4.84 0.1579,4.829 0.1579,4.8126 0.1579,4.7845 0.1524,4.7657 0.145,4.7657 c -0.0048,0 -0.0086,0.0039 -0.0137,0.0145 v 0.0342 c 0.0051,-0.0142 0.0097,-0.021 0.0129,-0.021 0.0031,7e-4 0.0057,0.0068 0.0057,0.0181 0,0.0221 -0.0183,0.0338 -0.0183,0.0769 0,0.027 0.0051,0.0434 0.0129,0.0434 0.0037,0 0.0075,-0.0043 0.0116,-0.0132 V 4.8873"
                     id="path967"
                     style="fill:#ff0000;fill-opacity:1;fill-rule:nonzero;stroke:none;stroke-opacity:1" />
                  <path
                     d="M 0.2178,4.9805 C 0.2165,4.9826 0.2157,4.9833 0.2143,4.9833 0.2081,4.9833 0.206,4.9684 0.206,4.9439 V 4.9286 H 0.2131 V 4.9001 H 0.206 V 4.7688 H 0.1983 V 4.9001 H 0.1928 v 0.0285 h 0.0055 v 0.0117 c 0,0.0313 0.0018,0.0463 0.005,0.0591 0.0033,0.0135 0.0077,0.0199 0.0145,0.012 V 4.9805"
                     id="path969"
                     style="fill:#ff0000;fill-opacity:1;fill-rule:nonzero;stroke:none;stroke-opacity:1" />
                  <path
                     d="m 0.2612,4.8503 c 0,-0.0505 -0.0086,-0.0846 -0.0212,-0.0846 -0.0121,0 -0.0207,0.0355 -0.0207,0.0846 0,0.0459 0.009,0.0815 0.0207,0.0815 0.0123,0 0.0212,-0.0342 0.0212,-0.0815 z m -0.034,0 c 0,-0.0338 0.0052,-0.0562 0.0127,-0.0562 0.0082,0 0.0134,0.0213 0.0134,0.0559 0,0.0309 -0.0056,0.0533 -0.0134,0.0533 -0.0074,0 -0.0127,-0.0224 -0.0127,-0.053"
                     id="path971"
                     style="fill:#ff0000;fill-opacity:1;fill-rule:nonzero;stroke:none;stroke-opacity:1" />
                  <path
                     d="M 0.2813,4.9286 V 4.8919 h 2e-4 C 0.2854,4.92 0.2892,4.9318 0.2928,4.9318 0.296,4.9318 0.299,4.9257 0.3022,4.9133 L 0.2981,4.8859 C 0.2957,4.8951 0.2927,4.9015 0.2908,4.9015 0.2855,4.9015 0.2813,4.8798 0.2813,4.8524 V 4.7688 H 0.2735 v 0.1598 h 0.0078"
                     id="path973"
                     style="fill:#ff0000;fill-opacity:1;fill-rule:nonzero;stroke:none;stroke-opacity:1" />
                  <path
                     d="M 0.3405,4.7749 C 0.3378,4.7699 0.3329,4.7657 0.3281,4.7657 l -4e-4,-0.005 C 0.3306,4.7575 0.3324,4.7493 0.3324,4.7383 0.3324,4.7116 0.3266,4.702 0.3189,4.7066 v 0.0196 c 0.0041,-0.0025 0.0073,10e-4 0.0073,0.0092 0,0.0061 -0.0017,0.0103 -0.0051,0.0089 L 0.3232,4.7685 C 0.3146,4.777 0.3088,4.8066 0.3088,4.8457 c 0,0.0526 0.0075,0.0861 0.0194,0.0861 0.0046,0 0.0076,-0.0043 0.0114,-0.0111 V 4.8869 C 0.3351,4.899 0.3322,4.9026 0.3288,4.9026 c -0.0071,0 -0.012,-0.0217 -0.012,-0.0541 0,-0.0331 0.0052,-0.053 0.0133,-0.053 0.0033,0 0.0064,0.0036 0.0104,0.0107 V 4.7749"
                     id="path975"
                     style="fill:#ff0000;fill-opacity:1;fill-rule:nonzero;stroke:none;stroke-opacity:1" />
                  <path
                     d="M 0.3826,4.7781 C 0.379,4.7685 0.3775,4.7657 0.3751,4.7657 0.3717,4.7657 0.3698,4.7706 0.3691,4.782 0.3657,4.771 0.3621,4.7657 0.3585,4.7657 c -0.0057,0 -0.0096,0.0185 -0.0096,0.0391 0,0.0316 0.0071,0.0412 0.0134,0.0505 l 0.0069,0.01 v 0.0085 c 0,0.0199 -0.0023,0.0281 -0.0071,0.0281 -0.0043,0 -0.0086,-0.0082 -0.0124,-0.0263 v 0.0345 c 0.0031,0.0146 0.0074,0.0217 0.013,0.0217 0.008,0 0.0143,-0.0164 0.0143,-0.0527 V 4.7969 c 0,-0.006 5e-4,-0.0081 0.0015,-0.0081 8e-4,0 0.0023,0.0032 0.0041,0.0085 z M 0.3692,4.8478 C 0.3626,4.8386 0.3568,4.8293 0.3568,4.8105 c 0,-0.0132 0.0024,-0.0224 0.0056,-0.0224 0.0024,0 0.0047,0.0049 0.0068,0.0131 v 0.0466"
                     id="path977"
                     style="fill:#ff0000;fill-opacity:1;fill-rule:nonzero;stroke:none;stroke-opacity:1" />
                  <path
                     d="m 0.3923,4.7336 c 0.0029,0.0079 0.0039,0.026 0.0031,0.0388 -0.0025,4e-4 -0.0043,0.0082 -0.0043,0.0199 0,0.0118 0.0022,0.0203 0.0052,0.0203 0.0038,0 0.0062,-0.0135 0.0062,-0.0345 0,-0.0203 -0.0033,-0.0434 -0.0102,-0.0512 v 0.0067"
                     id="path979"
                     style="fill:#ff0000;fill-opacity:1;fill-rule:nonzero;stroke:none;stroke-opacity:1" />
                  <path
                     d="m 0.4411,4.9286 v -0.021 c 0.004,0.0163 0.0077,0.0242 0.0114,0.0242 0.005,0 0.0091,-0.01 0.0117,-0.0288 0.0034,0.0156 0.0075,0.0288 0.0131,0.0288 0.008,0 0.013,-0.0249 0.013,-0.0626 V 4.7688 H 0.4826 v 0.0989 c 0,0.0242 -0.0037,0.0374 -0.0082,0.0374 C 0.4719,4.9054 0.4685,4.8965 0.4657,4.8848 V 4.7688 H 0.4579 v 0.0993 c 0,0.026 -0.0032,0.037 -0.0071,0.037 -0.0039,0 -0.0065,-0.005 -0.0097,-0.0203 V 4.7688 H 0.4333 v 0.1598 h 0.0078"
                     id="path981"
                     style="fill:#ff0000;fill-opacity:1;fill-rule:nonzero;stroke:none;stroke-opacity:1" />
                  <path
                     d="M 0.5345,4.7781 C 0.531,4.7685 0.5295,4.7657 0.527,4.7657 0.5236,4.7657 0.5218,4.7706 0.5211,4.782 0.5177,4.771 0.5141,4.7657 0.5105,4.7657 c -0.0057,0 -0.0096,0.0185 -0.0096,0.0391 0,0.0316 0.0071,0.0412 0.0134,0.0505 l 0.0069,0.01 v 0.0085 c 0,0.0199 -0.0024,0.0281 -0.0071,0.0281 -0.0043,0 -0.0087,-0.0082 -0.0124,-0.0263 v 0.0345 c 0.0031,0.0146 0.0073,0.0217 0.013,0.0217 0.008,0 0.0143,-0.0164 0.0143,-0.0527 V 4.7969 c 0,-0.006 5e-4,-0.0081 0.0014,-0.0081 8e-4,0 0.0024,0.0032 0.0041,0.0085 z M 0.5212,4.8478 C 0.5145,4.8386 0.5088,4.8293 0.5088,4.8105 c 0,-0.0132 0.0023,-0.0224 0.0056,-0.0224 0.0024,0 0.0047,0.0049 0.0068,0.0131 v 0.0466"
                     id="path983"
                     style="fill:#ff0000;fill-opacity:1;fill-rule:nonzero;stroke:none;stroke-opacity:1" />
                  <path
                     d="m 0.5487,4.9581 c -0.0025,0 -0.0046,0.0085 -0.0046,0.0188 0,0.0104 0.0021,0.0189 0.0046,0.0189 0.0025,0 0.0046,-0.0085 0.0046,-0.0189 0,-0.0103 -0.0021,-0.0188 -0.0046,-0.0188 z M 0.5525,4.7688 H 0.5448 V 4.9286 H 0.5525 V 4.7688"
                     id="path985"
                     style="fill:#ff0000;fill-opacity:1;fill-rule:nonzero;stroke:none;stroke-opacity:1" />
                  <path
                     d="M 0.5897,4.8873 C 0.5853,4.899 0.5812,4.904 0.5783,4.904 0.5752,4.904 0.5732,4.898 0.5732,4.8894 0.5732,4.8823 0.5758,4.8738 0.5827,4.8574 0.5892,4.84 0.5915,4.829 0.5915,4.8126 0.5915,4.7845 0.586,4.7657 0.5786,4.7657 0.5738,4.7657 0.57,4.7696 0.565,4.7802 v 0.0342 c 0.005,-0.0142 0.0097,-0.021 0.0128,-0.021 0.0031,7e-4 0.0058,0.0068 0.0058,0.0181 0,0.0221 -0.0184,0.0338 -0.0184,0.0769 0,0.027 0.0051,0.0434 0.013,0.0434 0.0036,0 0.0074,-0.0043 0.0115,-0.0132 V 4.8873"
                     id="path987"
                     style="fill:#ff0000;fill-opacity:1;fill-rule:nonzero;stroke:none;stroke-opacity:1" />
                  <path
                     d="M 0.6599,4.8869 C 0.6555,4.899 0.6525,4.9026 0.6491,4.9026 c -0.0071,0 -0.012,-0.0217 -0.012,-0.0541 0,-0.0331 0.0053,-0.053 0.0133,-0.053 0.0033,0 0.0065,0.0036 0.0104,0.0107 V 4.7749 C 0.6582,4.7699 0.6532,4.7657 0.6491,4.7657 c -0.0117,0 -0.0199,0.033 -0.0199,0.08 0,0.0526 0.0075,0.0861 0.0194,0.0861 0.0045,0 0.0076,-0.0043 0.0113,-0.0111 V 4.8869"
                     id="path989"
                     style="fill:#ff0000;fill-opacity:1;fill-rule:nonzero;stroke:none;stroke-opacity:1" />
                  <path
                     d="m 0.7121,4.8503 c 0,-0.0505 -0.0086,-0.0846 -0.0212,-0.0846 -0.0121,0 -0.0207,0.0355 -0.0207,0.0846 0,0.0459 0.009,0.0815 0.0207,0.0815 0.0123,0 0.0212,-0.0342 0.0212,-0.0815 z m -0.034,0 c 0,-0.0338 0.0052,-0.0562 0.0127,-0.0562 0.0082,0 0.0134,0.0213 0.0134,0.0559 0,0.0309 -0.0056,0.0533 -0.0134,0.0533 -0.0073,0 -0.0127,-0.0224 -0.0127,-0.053"
                     id="path991"
                     style="fill:#ff0000;fill-opacity:1;fill-rule:nonzero;stroke:none;stroke-opacity:1" />
                  <path
                     d="m 0.7315,4.9076 h 2e-4 c 0.003,0.0153 0.0073,0.0242 0.0117,0.0242 0.0074,0 0.0134,-0.0207 0.0134,-0.0644 V 4.7688 H 0.749 v 0.0989 c 0,0.0235 -0.003,0.0388 -0.0077,0.0388 -0.0034,0 -0.0061,-0.0064 -0.0098,-0.0231 V 4.7688 H 0.7237 v 0.1598 h 0.0078 v -0.021"
                     id="path993"
                     style="fill:#ff0000;fill-opacity:1;fill-rule:nonzero;stroke:none;stroke-opacity:1" />
                  <path
                     d="M 0.7911,4.9805 C 0.7898,4.9826 0.789,4.9833 0.7876,4.9833 0.7813,4.9833 0.7793,4.9684 0.7793,4.9439 V 4.9286 H 0.7864 V 4.9001 H 0.7793 V 4.7688 H 0.7715 V 4.9001 H 0.766 v 0.0285 h 0.0055 v 0.0117 c 0,0.0313 0.0019,0.0463 0.005,0.0591 0.0033,0.0135 0.0078,0.0199 0.0146,0.012 V 4.9805"
                     id="path995"
                     style="fill:#ff0000;fill-opacity:1;fill-rule:nonzero;stroke:none;stroke-opacity:1" />
                  <path
                     d="m 0.7998,4.9581 c -0.0025,0 -0.0046,0.0085 -0.0046,0.0188 0,0.0104 0.0021,0.0189 0.0046,0.0189 0.0026,0 0.0047,-0.0085 0.0047,-0.0189 0,-0.0103 -0.0021,-0.0188 -0.0047,-0.0188 z M 0.8037,4.7688 H 0.7959 V 4.9286 H 0.8037 V 4.7688"
                     id="path997"
                     style="fill:#ff0000;fill-opacity:1;fill-rule:nonzero;stroke:none;stroke-opacity:1" />
                  <path
                     d="M 0.8484,4.7781 C 0.8448,4.7685 0.8434,4.7657 0.8409,4.7657 0.8375,4.7657 0.8357,4.7706 0.835,4.782 0.8316,4.771 0.828,4.7657 0.8244,4.7657 c -0.0058,0 -0.0096,0.0185 -0.0096,0.0391 0,0.0316 0.0071,0.0412 0.0134,0.0505 l 0.0069,0.01 v 0.0085 c 0,0.0199 -0.0024,0.0281 -0.0071,0.0281 -0.0043,0 -0.0087,-0.0082 -0.0124,-0.0263 v 0.0345 c 0.003,0.0146 0.0073,0.0217 0.013,0.0217 0.0079,0 0.0142,-0.0164 0.0142,-0.0527 V 4.7969 c 0,-0.006 6e-4,-0.0081 0.0015,-0.0081 8e-4,0 0.0024,0.0032 0.0041,0.0085 z M 0.8351,4.8478 C 0.8284,4.8386 0.8226,4.8293 0.8226,4.8105 c 0,-0.0132 0.0024,-0.0224 0.0056,-0.0224 0.0025,0 0.0048,0.0049 0.0069,0.0131 v 0.0466"
                     id="path999"
                     style="fill:#ff0000;fill-opacity:1;fill-rule:nonzero;stroke:none;stroke-opacity:1" />
                  <path
                     d="m 0.8661,4.9076 h 2e-4 c 0.0029,0.0153 0.0073,0.0242 0.0117,0.0242 0.0074,0 0.0133,-0.0207 0.0133,-0.0644 V 4.7688 H 0.8836 v 0.0989 c 0,0.0235 -0.003,0.0388 -0.0077,0.0388 -0.0034,0 -0.0062,-0.0064 -0.0098,-0.0231 V 4.7688 H 0.8583 v 0.1598 h 0.0078 v -0.021"
                     id="path1001"
                     style="fill:#ff0000;fill-opacity:1;fill-rule:nonzero;stroke:none;stroke-opacity:1" />
                  <path
                     d="M 0.935,4.7749 C 0.9324,4.7699 0.9274,4.7657 0.9226,4.7657 l -3e-4,-0.005 C 0.9251,4.7575 0.927,4.7493 0.927,4.7383 0.927,4.7116 0.9211,4.702 0.9134,4.7066 v 0.0196 c 0.0041,-0.0025 0.0074,10e-4 0.0074,0.0092 0,0.0061 -0.0018,0.0103 -0.0051,0.0089 L 0.9178,4.7685 C 0.9092,4.777 0.9034,4.8066 0.9034,4.8457 c 0,0.0526 0.0075,0.0861 0.0194,0.0861 0.0045,0 0.0076,-0.0043 0.0113,-0.0111 V 4.8869 C 0.9297,4.899 0.9267,4.9026 0.9233,4.9026 c -0.0071,0 -0.012,-0.0217 -0.012,-0.0541 0,-0.0331 0.0053,-0.053 0.0133,-0.053 0.0033,0 0.0065,0.0036 0.0104,0.0107 V 4.7749"
                     id="path1003"
                     style="fill:#ff0000;fill-opacity:1;fill-rule:nonzero;stroke:none;stroke-opacity:1" />
                  <path
                     d="M 0.9771,4.7781 C 0.9736,4.7685 0.9721,4.7657 0.9696,4.7657 0.9662,4.7657 0.9644,4.7706 0.9637,4.782 0.9603,4.771 0.9567,4.7657 0.9531,4.7657 c -0.0058,0 -0.0096,0.0185 -0.0096,0.0391 0,0.0316 0.0071,0.0412 0.0134,0.0505 l 0.0069,0.01 v 0.0085 c 0,0.0199 -0.0024,0.0281 -0.0071,0.0281 -0.0043,0 -0.0087,-0.0082 -0.0124,-0.0263 v 0.0345 c 0.003,0.0146 0.0073,0.0217 0.013,0.0217 0.008,0 0.0142,-0.0164 0.0142,-0.0527 V 4.7969 c 0,-0.006 6e-4,-0.0081 0.0015,-0.0081 8e-4,0 0.0024,0.0032 0.0041,0.0085 z M 0.9638,4.8478 C 0.9571,4.8386 0.9514,4.8293 0.9514,4.8105 c 0,-0.0132 0.0023,-0.0224 0.0056,-0.0224 0.0024,0 0.0047,0.0049 0.0068,0.0131 v 0.0466"
                     id="path1005"
                     style="fill:#ff0000;fill-opacity:1;fill-rule:nonzero;stroke:none;stroke-opacity:1" />
                  <path
                     d="m 0.9965,4.787 c 0,-0.0117 -0.0024,-0.0213 -0.0053,-0.0213 -0.0029,0 -0.0052,0.0096 -0.0052,0.0213 0,0.0117 0.0023,0.0213 0.0052,0.0213 0.0029,0 0.0053,-0.0096 0.0053,-0.0213"
                     id="path1007"
                     style="fill:#ff0000;fill-opacity:1;fill-rule:nonzero;stroke:none;stroke-opacity:1" />
                  <path
                     d="M 0.0884,0.0662 C 0.0884,0.0367 0.0826,0.0128 0.0753,0.0128 H 0.0136 C 0.0064,0.0128 5e-4,0.0367 5e-4,0.0662 v 0.7731 c 0,0.0295 0.0059,0.0535 0.0131,0.0535 h 0.0617 c 0.0073,0 0.0131,-0.024 0.0131,-0.0535 V 0.0662"
                     id="path1009"
                     style="fill:#ff0000;fill-opacity:1;fill-rule:nonzero;stroke:none;stroke-opacity:1" />
                  <path
                     d="m 0.4353,0.6193 c 0,0.027 0.0053,0.0489 0.012,0.0489 0,0 0,10e-5 0,10e-5 h 0.0741 c 0.0072,0 0.0131,0.0239 0.0131,0.0534 V 0.839 c 0,0.0295 -0.0059,0.0534 -0.0131,0.0534 H 0.4003 c -8e-4,2e-4 -0.0017,4e-4 -0.0025,4e-4 -0.0243,0 -0.044,-0.0791 -0.0446,-0.1775 v 0 -0.5187 0 c 0,-8e-4 0,-0.0014 0,-0.0022 0,-0.1001 0.0199,-0.1812 0.0444,-0.1815 0,-10e-5 -10e-5,-3e-4 -10e-5,-4e-4 h 0.1239 c 0.0072,0 0.0131,0.0239 0.0131,0.0534 v 0.1173 c 0,0.0295 -0.0059,0.0534 -0.0131,0.0534 H 0.4466 C 0.4403,0.238 0.4353,0.2591 0.4353,0.2853 c 0,2e-4 0,3e-4 0,6e-4 v 0.0712 h 0.0643 c 0.0073,0 0.0132,0.024 0.0132,0.0534 v 0.0887 c 0,0.0295 -0.0059,0.0534 -0.0132,0.0534 H 0.4353 V 0.619 c 0,2e-4 0,2e-4 0,3e-4"
                     id="path1011"
                     style="fill:#ff0000;fill-opacity:1;fill-rule:nonzero;stroke:none;stroke-opacity:1" />
                  <path
                     d="m 0.327,0.8921 c 0,0 -0.0283,0 -0.0378,0 C 0.2798,0.8921 0.278,0.8565 0.278,0.8565 L 0.2446,0.285 c 0,0 -0.001,-0.0245 -0.0051,-0.0252 C 0.2346,0.259 0.2337,0.2806 0.2337,0.2806 L 0.2009,0.8487 c 0,4e-4 0,8e-4 -10e-5,0.0012 -0.0011,0.0244 -0.0063,0.0429 -0.0127,0.0429 -0.0071,0 -0.0583,-10e-5 -0.0645,-10e-5 -0.0071,0 -0.0129,-0.0236 -0.0129,-0.0528 0,-0.0032 10e-5,-0.0064 2e-4,-0.0095 0,-6e-4 0,-0.0012 0,-0.0012 L 0.1567,0.1365 c 6e-4,-0.0075 0.002,-0.023 0.0029,-0.0294 0.0071,-0.056 0.0213,-0.0945 0.0379,-0.0945 0.0103,0 0.0441,0 0.0545,0 0.0188,0 0.0347,0.0496 0.0403,0.1184 3e-4,0.0026 0.0013,0.0188 0.0013,0.0188 0,0 0.0404,0.6356 0.043,0.6815 C 0.34,0.8888 0.327,0.8921 0.327,0.8921"
                     id="path1013"
                     style="fill:#ff0000;fill-opacity:1;fill-rule:nonzero;stroke:none;stroke-opacity:1" />
                  <path
                     d="M 0.6649,0.6683 H 0.722 c 0.0072,0 0.0131,0.0239 0.0131,0.0534 V 0.839 c 0,0.0295 -0.0059,0.0534 -0.0131,0.0534 H 0.6455 c -4e-4,10e-5 -8e-4,4e-4 -0.0013,4e-4 -6e-4,0 -0.0012,-4e-4 -0.0018,-4e-4 H 0.641 c -8e-4,0 -0.002,-4e-4 -0.0034,-0.001 C 0.5884,0.8775 0.5495,0.7159 0.5495,0.5119 0.5491,0.4643 0.5488,0.44 0.5492,0.4 c 0,-0.2103 0.0416,-0.3825 0.093,-0.3868 8e-4,-2e-4 0.0014,-4e-4 0.002,-4e-4 H 0.722 c 0.0072,0 0.0131,0.0239 0.0131,0.0535 v 0.1154 c 0,0.0296 -0.0059,0.0535 -0.0131,0.0535 H 0.6656 C 0.6502,0.239 0.6413,0.2781 0.6386,0.3406 0.6375,0.3679 0.6366,0.3953 0.6363,0.4476 0.636,0.5071 0.6369,0.5345 0.638,0.5594 0.6409,0.6208 0.6499,0.6631 0.6649,0.6683"
                     id="path1015"
                     style="fill:#ff0000;fill-opacity:1;fill-rule:nonzero;stroke:none;stroke-opacity:1" />
                  <path
                     d="M 1,0.4716 C 1,0.4724 1,0.4732 1,0.474 0.998,0.8337 0.9474,0.8757 0.9233,0.8934 0.8622,0.9384 0.8161,0.887 0.8106,0.8798 0.7835,0.844 0.7477,0.7808 0.7472,0.4578 c 0,-0.0019 0,-0.0038 0,-0.0058 0,-0.0021 0,-0.0039 0,-0.0059 C 0.7471,0.1633 0.7833,0.0641 0.8072,0.0292 0.8101,0.0237 0.8145,0.0188 0.8201,0.0148 0.822,0.0133 0.8236,0.0124 0.8249,0.0117 c 0.0255,-0.015 0.0683,-0.0163 0.0957,-1e-4 0.0029,0.0013 0.0073,0.004 0.0128,0.0101 0.0018,0.0019 0.0035,0.004 0.005,0.0062 C 0.9623,0.0607 0.9982,0.1555 1,0.4299 1,0.4308 1,0.4315 1,0.4324 1,0.4387 1,0.4454 1,0.452 1,0.4585 1,0.4652 1,0.4716 Z M 0.834,0.5787 c 0,0 5e-4,0.0154 0.003,0.0389 0.0039,0.0287 0.0139,0.0654 0.0374,0.066 0.0374,0.001 0.0394,-0.1039 0.0394,-0.1039 1e-4,-0.0046 2e-4,-0.0092 4e-4,-0.0138 C 0.9147,0.5441 0.9156,0.5057 0.9157,0.4575 0.9156,0.4094 0.9149,0.3679 0.9144,0.346 0.9143,0.3414 0.9139,0.3341 0.9138,0.3295 c 0,0 -0.002,-0.1049 -0.0394,-0.1039 C 0.8509,0.2263 0.8411,0.265 0.837,0.2916 0.8346,0.3116 0.8335,0.3361 0.8335,0.3361 0.8313,0.393 0.8316,0.4156 0.8314,0.4534 0.8313,0.5052 0.8321,0.5367 0.834,0.5787"
                     id="path1017"
                     style="fill:#ff0000;fill-opacity:1;fill-rule:nonzero;stroke:none;stroke-opacity:1" />
                  <path
                     d="M 0.0884,8.0864 C 0.0884,8.0569 0.0826,8.0329 0.0753,8.0329 H 0.0136 C 0.0064,8.0329 5e-4,8.0569 5e-4,8.0864 v 0.7731 c 0,0.0295 0.0059,0.0534 0.0131,0.0534 h 0.0617 c 0.0073,0 0.0131,-0.0239 0.0131,-0.0534 V 8.0864"
                     id="path1019"
                     style="fill:#ff0000;fill-opacity:1;fill-rule:nonzero;stroke:none;stroke-opacity:1" />
                  <path
                     d="m 0.4353,8.6395 c 0,0.027 0.0053,0.0489 0.012,0.0489 0,0 0,0 0,0 h 0.0741 c 0.0072,0 0.0131,0.0239 0.0131,0.0534 v 0.1173 c 0,0.0295 -0.0059,0.0534 -0.0131,0.0534 H 0.4003 c -8e-4,3e-4 -0.0017,4e-4 -0.0025,4e-4 -0.0243,0 -0.044,-0.0791 -0.0446,-0.1775 v 0 -0.5187 0 c 0,-8e-4 0,-0.0014 0,-0.0022 0,-0.1 0.0199,-0.1811 0.0444,-0.1815 0,-10e-5 -10e-5,-3e-4 -10e-5,-4e-4 h 0.1239 c 0.0072,0 0.0131,0.0239 0.0131,0.0535 v 0.1173 c 0,0.0295 -0.0059,0.0534 -0.0131,0.0534 H 0.4466 C 0.4403,8.2582 0.4353,8.2793 0.4353,8.3054 c 0,3e-4 0,4e-4 0,7e-4 v 0.0712 h 0.0643 c 0.0073,0 0.0132,0.0239 0.0132,0.0534 v 0.0886 c 0,0.0295 -0.0059,0.0534 -0.0132,0.0534 H 0.4353 v 0.0665 c 0,10e-5 0,2e-4 0,3e-4"
                     id="path1021"
                     style="fill:#ff0000;fill-opacity:1;fill-rule:nonzero;stroke:none;stroke-opacity:1" />
                  <path
                     d="m 0.327,8.9123 c 0,0 -0.0283,0 -0.0378,0 C 0.2798,8.9123 0.278,8.8767 0.278,8.8767 L 0.2446,8.3052 c 0,0 -0.001,-0.0245 -0.0051,-0.0252 C 0.2346,8.2792 0.2337,8.3007 0.2337,8.3007 L 0.2009,8.8689 c 0,4e-4 0,7e-4 -10e-5,0.0011 -0.0011,0.0245 -0.0063,0.0429 -0.0127,0.0429 -0.0071,0 -0.0583,0 -0.0645,0 -0.0071,0 -0.0129,-0.0237 -0.0129,-0.0529 0,-0.0032 10e-5,-0.0064 2e-4,-0.0095 0,-5e-4 0,-0.0012 0,-0.0012 L 0.1567,8.1566 c 6e-4,-0.0074 0.002,-0.023 0.0029,-0.0293 0.0071,-0.0561 0.0213,-0.0945 0.0379,-0.0945 0.0103,0 0.0441,0 0.0545,0 0.0188,0 0.0347,0.0496 0.0403,0.1183 3e-4,0.0027 0.0013,0.0188 0.0013,0.0188 0,0 0.0404,0.6357 0.043,0.6816 C 0.34,8.9089 0.327,8.9123 0.327,8.9123"
                     id="path1023"
                     style="fill:#ff0000;fill-opacity:1;fill-rule:nonzero;stroke:none;stroke-opacity:1" />
                  <path
                     d="M 0.6649,8.6884 H 0.722 c 0.0072,0 0.0131,0.0239 0.0131,0.0534 v 0.1173 c 0,0.0295 -0.0059,0.0534 -0.0131,0.0534 H 0.6455 c -4e-4,2e-4 -8e-4,4e-4 -0.0013,4e-4 -6e-4,0 -0.0012,-3e-4 -0.0018,-4e-4 H 0.641 c -8e-4,0 -0.002,-3e-4 -0.0034,-10e-4 C 0.5884,8.8976 0.5495,8.736 0.5495,8.532 c -4e-4,-0.0475 -7e-4,-0.0719 -3e-4,-0.1118 0,-0.2104 0.0416,-0.3826 0.093,-0.3869 8e-4,-2e-4 0.0014,-4e-4 0.002,-4e-4 H 0.722 c 0.0072,0 0.0131,0.024 0.0131,0.0535 v 0.1154 c 0,0.0296 -0.0059,0.0535 -0.0131,0.0535 H 0.6656 C 0.6502,8.2591 0.6413,8.2983 0.6386,8.3608 0.6375,8.3881 0.6366,8.4155 0.6363,8.4678 0.636,8.5273 0.6369,8.5546 0.638,8.5796 0.6409,8.641 0.6499,8.6833 0.6649,8.6884"
                     id="path1025"
                     style="fill:#ff0000;fill-opacity:1;fill-rule:nonzero;stroke:none;stroke-opacity:1" />
                  <path
                     d="M 1,8.4917 C 1,8.4926 1,8.4933 1,8.4942 0.998,8.8538 0.9474,8.8959 0.9233,8.9136 0.8622,8.9585 0.8161,8.9072 0.8106,8.8999 0.7835,8.8642 0.7477,8.801 0.7472,8.478 c 0,-0.002 0,-0.0039 0,-0.0059 0,-0.002 0,-0.0038 0,-0.0059 C 0.7471,8.1835 0.7833,8.0842 0.8072,8.0494 0.8101,8.0438 0.8145,8.0389 0.8201,8.0349 0.822,8.0334 0.8236,8.0325 0.8249,8.0318 0.8504,8.0169 0.8932,8.0156 0.9206,8.0317 0.9235,8.033 0.9279,8.0357 0.9334,8.0418 0.9352,8.0438 0.9369,8.0458 0.9384,8.0481 0.9623,8.0808 0.9982,8.1757 1,8.4501 1,8.4509 1,8.4517 1,8.4525 1,8.4588 1,8.4656 1,8.4721 1,8.4786 1,8.4854 1,8.4917 Z M 0.834,8.5989 c 0,0 5e-4,0.0153 0.003,0.0388 0.0039,0.0287 0.0139,0.0654 0.0374,0.066 0.0374,0.001 0.0394,-0.1039 0.0394,-0.1039 1e-4,-0.0045 2e-4,-0.0092 4e-4,-0.0137 C 0.9147,8.5642 0.9156,8.5258 0.9157,8.4777 0.9156,8.4296 0.9149,8.388 0.9144,8.3661 0.9143,8.3615 0.9139,8.3542 0.9138,8.3496 c 0,0 -0.002,-0.1048 -0.0394,-0.1039 C 0.8509,8.2464 0.8411,8.2852 0.837,8.3118 0.8346,8.3318 0.8335,8.3563 0.8335,8.3563 0.8313,8.4131 0.8316,8.4357 0.8314,8.4735 0.8313,8.5253 0.8321,8.5568 0.834,8.5989"
                     id="path1027"
                     style="fill:#ff0000;fill-opacity:1;fill-rule:nonzero;stroke:none;stroke-opacity:1" />
                  <path
                     d="M 0.0556,7.5958 H 0.047 v 0.1889 h -2e-4 L 0.0285,7.6908 H 0.0271 L 0.0087,7.7847 H 0.0086 V 7.5958 H 0 V 7.8384 H 0.008 L 0.0278,7.7388 0.0476,7.8384 h 0.008 V 7.5958"
                     id="path1029"
                     style="fill:#ff0000;fill-opacity:1;fill-rule:nonzero;stroke:none;stroke-opacity:1" />
                  <path
                     d="M 0.1009,7.6051 C 0.0973,7.5955 0.0959,7.5926 0.0934,7.5926 0.09,7.5926 0.0882,7.5976 0.0875,7.609 0.0841,7.598 0.0805,7.5926 0.0769,7.5926 c -0.0058,0 -0.0096,0.0185 -0.0096,0.0391 0,0.0317 0.0071,0.0413 0.0134,0.0506 l 0.0069,0.0099 v 0.0086 c 0,0.0199 -0.0024,0.0281 -0.0071,0.0281 -0.0043,0 -0.0087,-0.0082 -0.0124,-0.0264 V 7.737 c 0.003,0.0146 0.0073,0.0217 0.013,0.0217 0.0079,0 0.0142,-0.0163 0.0142,-0.0526 V 7.6239 c 0,-0.006 6e-4,-0.0082 0.0015,-0.0082 8e-4,0 0.0024,0.0032 0.0041,0.0086 z M 0.0876,7.6748 C 0.0809,7.6655 0.0751,7.6563 0.0751,7.6374 c 0,-0.0131 0.0024,-0.0224 0.0056,-0.0224 0.0025,0 0.0048,0.005 0.0069,0.0132 v 0.0466"
                     id="path1031"
                     style="fill:#ff0000;fill-opacity:1;fill-rule:nonzero;stroke:none;stroke-opacity:1" />
                  <path
                     d="m 0.1151,7.7851 c -0.0026,0 -0.0046,0.0085 -0.0046,0.0188 0,0.0103 0.002,0.0189 0.0046,0.0189 0.0025,0 0.0046,-0.0086 0.0046,-0.0189 0,-0.0103 -0.0021,-0.0188 -0.0046,-0.0188 z M 0.1189,7.5958 H 0.1112 V 7.7555 H 0.1189 V 7.5958"
                     id="path1033"
                     style="fill:#ff0000;fill-opacity:1;fill-rule:nonzero;stroke:none;stroke-opacity:1" />
                  <path
                     d="M 0.1561,7.7143 C 0.1517,7.726 0.1476,7.731 0.1447,7.731 0.1416,7.731 0.1395,7.7249 0.1395,7.7164 0.1395,7.7093 0.1422,7.7008 0.1491,7.6844 0.1555,7.667 0.1579,7.6559 0.1579,7.6396 c 0,-0.0281 -0.0055,-0.047 -0.0129,-0.047 -0.0048,0 -0.0086,0.0039 -0.0137,0.0146 V 7.6413 C 0.1364,7.6271 0.141,7.6204 0.1442,7.6204 c 0.0031,7e-4 0.0057,0.0067 0.0057,0.0181 0,0.0221 -0.0183,0.0338 -0.0183,0.0768 0,0.0271 0.0051,0.0434 0.0129,0.0434 0.0037,0 0.0075,-0.0042 0.0116,-0.0131 V 7.7143"
                     id="path1035"
                     style="fill:#ff0000;fill-opacity:1;fill-rule:nonzero;stroke:none;stroke-opacity:1" />
                  <path
                     d="M 0.2178,7.8075 C 0.2165,7.8096 0.2157,7.8103 0.2143,7.8103 0.2081,7.8103 0.206,7.7954 0.206,7.7708 V 7.7555 H 0.2131 V 7.7271 H 0.206 V 7.5958 H 0.1983 V 7.7271 H 0.1928 v 0.0284 h 0.0055 v 0.0118 c 0,0.0313 0.0018,0.0462 0.005,0.059 0.0033,0.0135 0.0077,0.0199 0.0145,0.0121 V 7.8075"
                     id="path1037"
                     style="fill:#ff0000;fill-opacity:1;fill-rule:nonzero;stroke:none;stroke-opacity:1" />
                  <path
                     d="m 0.2612,7.6773 c 0,-0.0505 -0.0086,-0.0847 -0.0212,-0.0847 -0.0121,0 -0.0207,0.0356 -0.0207,0.0847 0,0.0459 0.009,0.0814 0.0207,0.0814 0.0123,0 0.0212,-0.0341 0.0212,-0.0814 z m -0.034,0 c 0,-0.0338 0.0052,-0.0562 0.0127,-0.0562 0.0082,0 0.0134,0.0213 0.0134,0.0558 0,0.031 -0.0056,0.0534 -0.0134,0.0534 -0.0074,0 -0.0127,-0.0224 -0.0127,-0.053"
                     id="path1039"
                     style="fill:#ff0000;fill-opacity:1;fill-rule:nonzero;stroke:none;stroke-opacity:1" />
                  <path
                     d="M 0.2813,7.7555 V 7.7189 h 2e-4 c 0.0039,0.0281 0.0077,0.0398 0.0113,0.0398 0.0032,0 0.0062,-0.006 0.0094,-0.0185 L 0.2981,7.7128 C 0.2957,7.7221 0.2927,7.7285 0.2908,7.7285 0.2855,7.7285 0.2813,7.7068 0.2813,7.6794 V 7.5958 H 0.2735 v 0.1597 h 0.0078"
                     id="path1041"
                     style="fill:#ff0000;fill-opacity:1;fill-rule:nonzero;stroke:none;stroke-opacity:1" />
                  <path
                     d="M 0.3405,7.6019 C 0.3378,7.5969 0.3329,7.5926 0.3281,7.5926 l -4e-4,-0.005 C 0.3306,7.5844 0.3324,7.5763 0.3324,7.5652 0.3324,7.5385 0.3266,7.5289 0.3189,7.5336 v 0.0195 c 0.0041,-0.0025 0.0073,0.0011 0.0073,0.0093 0,0.006 -0.0017,0.0103 -0.0051,0.0089 L 0.3232,7.5955 C 0.3146,7.604 0.3088,7.6335 0.3088,7.6726 c 0,0.0527 0.0075,0.0861 0.0194,0.0861 0.0046,0 0.0076,-0.0042 0.0114,-0.011 V 7.7139 C 0.3351,7.726 0.3322,7.7296 0.3288,7.7296 c -0.0071,0 -0.012,-0.0217 -0.012,-0.0541 0,-0.0331 0.0052,-0.053 0.0133,-0.053 0.0033,0 0.0064,0.0036 0.0104,0.0107 V 7.6019"
                     id="path1043"
                     style="fill:#ff0000;fill-opacity:1;fill-rule:nonzero;stroke:none;stroke-opacity:1" />
                  <path
                     d="M 0.3826,7.6051 C 0.379,7.5955 0.3775,7.5926 0.3751,7.5926 0.3717,7.5926 0.3698,7.5976 0.3691,7.609 0.3657,7.598 0.3621,7.5926 0.3585,7.5926 c -0.0057,0 -0.0096,0.0185 -0.0096,0.0391 0,0.0317 0.0071,0.0413 0.0134,0.0506 l 0.0069,0.0099 v 0.0086 c 0,0.0199 -0.0023,0.0281 -0.0071,0.0281 -0.0043,0 -0.0086,-0.0082 -0.0124,-0.0264 V 7.737 c 0.0031,0.0146 0.0074,0.0217 0.013,0.0217 0.008,0 0.0143,-0.0163 0.0143,-0.0526 V 7.6239 c 0,-0.006 5e-4,-0.0082 0.0015,-0.0082 8e-4,0 0.0023,0.0032 0.0041,0.0086 z M 0.3692,7.6748 C 0.3626,7.6655 0.3568,7.6563 0.3568,7.6374 c 0,-0.0131 0.0024,-0.0224 0.0056,-0.0224 0.0024,0 0.0047,0.005 0.0068,0.0132 v 0.0466"
                     id="path1045"
                     style="fill:#ff0000;fill-opacity:1;fill-rule:nonzero;stroke:none;stroke-opacity:1" />
                  <path
                     d="m 0.3923,7.5606 c 0.0029,0.0078 0.0039,0.026 0.0031,0.0388 -0.0025,3e-4 -0.0043,0.0082 -0.0043,0.0199 0,0.0117 0.0022,0.0203 0.0052,0.0203 0.0038,0 0.0062,-0.0135 0.0062,-0.0345 0,-0.0203 -0.0033,-0.0434 -0.0102,-0.0513 v 0.0068"
                     id="path1047"
                     style="fill:#ff0000;fill-opacity:1;fill-rule:nonzero;stroke:none;stroke-opacity:1" />
                  <path
                     d="m 0.4411,7.7555 v -0.021 c 0.004,0.0164 0.0077,0.0242 0.0114,0.0242 0.005,0 0.0091,-0.0099 0.0117,-0.0288 0.0034,0.0157 0.0075,0.0288 0.0131,0.0288 0.008,0 0.013,-0.0249 0.013,-0.0626 V 7.5958 H 0.4826 v 0.0989 c 0,0.0242 -0.0037,0.0374 -0.0082,0.0374 C 0.4719,7.7324 0.4685,7.7235 0.4657,7.7118 V 7.5958 H 0.4579 v 0.0993 c 0,0.0259 -0.0032,0.037 -0.0071,0.037 -0.0039,0 -0.0065,-0.005 -0.0097,-0.0203 V 7.5958 H 0.4333 v 0.1597 h 0.0078"
                     id="path1049"
                     style="fill:#ff0000;fill-opacity:1;fill-rule:nonzero;stroke:none;stroke-opacity:1" />
                  <path
                     d="M 0.5345,7.6051 C 0.531,7.5955 0.5295,7.5926 0.527,7.5926 0.5236,7.5926 0.5218,7.5976 0.5211,7.609 0.5177,7.598 0.5141,7.5926 0.5105,7.5926 c -0.0057,0 -0.0096,0.0185 -0.0096,0.0391 0,0.0317 0.0071,0.0413 0.0134,0.0506 l 0.0069,0.0099 v 0.0086 c 0,0.0199 -0.0024,0.0281 -0.0071,0.0281 -0.0043,0 -0.0087,-0.0082 -0.0124,-0.0264 V 7.737 c 0.0031,0.0146 0.0073,0.0217 0.013,0.0217 0.008,0 0.0143,-0.0163 0.0143,-0.0526 V 7.6239 c 0,-0.006 5e-4,-0.0082 0.0014,-0.0082 8e-4,0 0.0024,0.0032 0.0041,0.0086 z M 0.5212,7.6748 C 0.5145,7.6655 0.5088,7.6563 0.5088,7.6374 c 0,-0.0131 0.0023,-0.0224 0.0056,-0.0224 0.0024,0 0.0047,0.005 0.0068,0.0132 v 0.0466"
                     id="path1051"
                     style="fill:#ff0000;fill-opacity:1;fill-rule:nonzero;stroke:none;stroke-opacity:1" />
                  <path
                     d="m 0.5487,7.7851 c -0.0025,0 -0.0046,0.0085 -0.0046,0.0188 0,0.0103 0.0021,0.0189 0.0046,0.0189 0.0025,0 0.0046,-0.0086 0.0046,-0.0189 0,-0.0103 -0.0021,-0.0188 -0.0046,-0.0188 z M 0.5525,7.5958 H 0.5448 V 7.7555 H 0.5525 V 7.5958"
                     id="path1053"
                     style="fill:#ff0000;fill-opacity:1;fill-rule:nonzero;stroke:none;stroke-opacity:1" />
                  <path
                     d="M 0.5897,7.7143 C 0.5853,7.726 0.5812,7.731 0.5783,7.731 0.5752,7.731 0.5732,7.7249 0.5732,7.7164 0.5732,7.7093 0.5758,7.7008 0.5827,7.6844 0.5892,7.667 0.5915,7.6559 0.5915,7.6396 0.5915,7.6115 0.586,7.5926 0.5786,7.5926 0.5738,7.5926 0.57,7.5965 0.565,7.6072 V 7.6413 C 0.57,7.6271 0.5747,7.6204 0.5778,7.6204 c 0.0031,7e-4 0.0058,0.0067 0.0058,0.0181 0,0.0221 -0.0184,0.0338 -0.0184,0.0768 0,0.0271 0.0051,0.0434 0.013,0.0434 0.0036,0 0.0074,-0.0042 0.0115,-0.0131 V 7.7143"
                     id="path1055"
                     style="fill:#ff0000;fill-opacity:1;fill-rule:nonzero;stroke:none;stroke-opacity:1" />
                  <path
                     d="M 0.6599,7.7139 C 0.6555,7.726 0.6525,7.7296 0.6491,7.7296 c -0.0071,0 -0.012,-0.0217 -0.012,-0.0541 0,-0.0331 0.0053,-0.053 0.0133,-0.053 0.0033,0 0.0065,0.0036 0.0104,0.0107 V 7.6019 C 0.6582,7.5969 0.6532,7.5926 0.6491,7.5926 c -0.0117,0 -0.0199,0.0331 -0.0199,0.08 0,0.0527 0.0075,0.0861 0.0194,0.0861 0.0045,0 0.0076,-0.0042 0.0113,-0.011 V 7.7139"
                     id="path1057"
                     style="fill:#ff0000;fill-opacity:1;fill-rule:nonzero;stroke:none;stroke-opacity:1" />
                  <path
                     d="m 0.7121,7.6773 c 0,-0.0505 -0.0086,-0.0847 -0.0212,-0.0847 -0.0121,0 -0.0207,0.0356 -0.0207,0.0847 0,0.0459 0.009,0.0814 0.0207,0.0814 0.0123,0 0.0212,-0.0341 0.0212,-0.0814 z m -0.034,0 c 0,-0.0338 0.0052,-0.0562 0.0127,-0.0562 0.0082,0 0.0134,0.0213 0.0134,0.0558 0,0.031 -0.0056,0.0534 -0.0134,0.0534 -0.0073,0 -0.0127,-0.0224 -0.0127,-0.053"
                     id="path1059"
                     style="fill:#ff0000;fill-opacity:1;fill-rule:nonzero;stroke:none;stroke-opacity:1" />
                  <path
                     d="m 0.7315,7.7345 h 2e-4 c 0.003,0.0153 0.0073,0.0242 0.0117,0.0242 0.0074,0 0.0134,-0.0206 0.0134,-0.0644 V 7.5958 H 0.749 v 0.0989 c 0,0.0235 -0.003,0.0388 -0.0077,0.0388 -0.0034,0 -0.0061,-0.0064 -0.0098,-0.0231 V 7.5958 H 0.7237 v 0.1597 h 0.0078 v -0.021"
                     id="path1061"
                     style="fill:#ff0000;fill-opacity:1;fill-rule:nonzero;stroke:none;stroke-opacity:1" />
                  <path
                     d="M 0.7911,7.8075 C 0.7898,7.8096 0.789,7.8103 0.7876,7.8103 0.7813,7.8103 0.7793,7.7954 0.7793,7.7708 V 7.7555 H 0.7864 V 7.7271 H 0.7793 V 7.5958 H 0.7715 V 7.7271 H 0.766 v 0.0284 h 0.0055 v 0.0118 c 0,0.0313 0.0019,0.0462 0.005,0.059 0.0033,0.0135 0.0078,0.0199 0.0146,0.0121 V 7.8075"
                     id="path1063"
                     style="fill:#ff0000;fill-opacity:1;fill-rule:nonzero;stroke:none;stroke-opacity:1" />
                  <path
                     d="m 0.7998,7.7851 c -0.0025,0 -0.0046,0.0085 -0.0046,0.0188 0,0.0103 0.0021,0.0189 0.0046,0.0189 0.0026,0 0.0047,-0.0086 0.0047,-0.0189 0,-0.0103 -0.0021,-0.0188 -0.0047,-0.0188 z M 0.8037,7.5958 H 0.7959 V 7.7555 H 0.8037 V 7.5958"
                     id="path1065"
                     style="fill:#ff0000;fill-opacity:1;fill-rule:nonzero;stroke:none;stroke-opacity:1" />
                  <path
                     d="M 0.8484,7.6051 C 0.8448,7.5955 0.8434,7.5926 0.8409,7.5926 0.8375,7.5926 0.8357,7.5976 0.835,7.609 0.8316,7.598 0.828,7.5926 0.8244,7.5926 c -0.0058,0 -0.0096,0.0185 -0.0096,0.0391 0,0.0317 0.0071,0.0413 0.0134,0.0506 l 0.0069,0.0099 v 0.0086 c 0,0.0199 -0.0024,0.0281 -0.0071,0.0281 -0.0043,0 -0.0087,-0.0082 -0.0124,-0.0264 V 7.737 c 0.003,0.0146 0.0073,0.0217 0.013,0.0217 0.0079,0 0.0142,-0.0163 0.0142,-0.0526 V 7.6239 c 0,-0.006 6e-4,-0.0082 0.0015,-0.0082 8e-4,0 0.0024,0.0032 0.0041,0.0086 z M 0.8351,7.6748 C 0.8284,7.6655 0.8226,7.6563 0.8226,7.6374 0.8226,7.6243 0.825,7.615 0.8282,7.615 c 0.0025,0 0.0048,0.005 0.0069,0.0132 v 0.0466"
                     id="path1067"
                     style="fill:#ff0000;fill-opacity:1;fill-rule:nonzero;stroke:none;stroke-opacity:1" />
                  <path
                     d="m 0.8661,7.7345 h 2e-4 c 0.0029,0.0153 0.0073,0.0242 0.0117,0.0242 0.0074,0 0.0133,-0.0206 0.0133,-0.0644 V 7.5958 H 0.8836 v 0.0989 c 0,0.0235 -0.003,0.0388 -0.0077,0.0388 -0.0034,0 -0.0062,-0.0064 -0.0098,-0.0231 V 7.5958 H 0.8583 v 0.1597 h 0.0078 v -0.021"
                     id="path1069"
                     style="fill:#ff0000;fill-opacity:1;fill-rule:nonzero;stroke:none;stroke-opacity:1" />
                  <path
                     d="M 0.935,7.6019 C 0.9324,7.5969 0.9274,7.5926 0.9226,7.5926 l -3e-4,-0.005 C 0.9251,7.5844 0.927,7.5763 0.927,7.5652 0.927,7.5385 0.9211,7.5289 0.9134,7.5336 v 0.0195 c 0.0041,-0.0025 0.0074,0.0011 0.0074,0.0093 0,0.006 -0.0018,0.0103 -0.0051,0.0089 L 0.9178,7.5955 C 0.9092,7.604 0.9034,7.6335 0.9034,7.6726 c 0,0.0527 0.0075,0.0861 0.0194,0.0861 0.0045,0 0.0076,-0.0042 0.0113,-0.011 V 7.7139 C 0.9297,7.726 0.9267,7.7296 0.9233,7.7296 c -0.0071,0 -0.012,-0.0217 -0.012,-0.0541 0,-0.0331 0.0053,-0.053 0.0133,-0.053 0.0033,0 0.0065,0.0036 0.0104,0.0107 V 7.6019"
                     id="path1071"
                     style="fill:#ff0000;fill-opacity:1;fill-rule:nonzero;stroke:none;stroke-opacity:1" />
                  <path
                     d="M 0.9771,7.6051 C 0.9736,7.5955 0.9721,7.5926 0.9696,7.5926 0.9662,7.5926 0.9644,7.5976 0.9637,7.609 0.9603,7.598 0.9567,7.5926 0.9531,7.5926 c -0.0058,0 -0.0096,0.0185 -0.0096,0.0391 0,0.0317 0.0071,0.0413 0.0134,0.0506 l 0.0069,0.0099 v 0.0086 c 0,0.0199 -0.0024,0.0281 -0.0071,0.0281 -0.0043,0 -0.0087,-0.0082 -0.0124,-0.0264 V 7.737 c 0.003,0.0146 0.0073,0.0217 0.013,0.0217 0.008,0 0.0142,-0.0163 0.0142,-0.0526 V 7.6239 c 0,-0.006 6e-4,-0.0082 0.0015,-0.0082 8e-4,0 0.0024,0.0032 0.0041,0.0086 z M 0.9638,7.6748 C 0.9571,7.6655 0.9514,7.6563 0.9514,7.6374 0.9514,7.6243 0.9537,7.615 0.957,7.615 c 0.0024,0 0.0047,0.005 0.0068,0.0132 v 0.0466"
                     id="path1073"
                     style="fill:#ff0000;fill-opacity:1;fill-rule:nonzero;stroke:none;stroke-opacity:1" />
                  <path
                     d="m 0.9965,7.614 c 0,-0.0118 -0.0024,-0.0214 -0.0053,-0.0214 -0.0029,0 -0.0052,0.0096 -0.0052,0.0214 0,0.0117 0.0023,0.0213 0.0052,0.0213 0.0029,0 0.0053,-0.0096 0.0053,-0.0213"
                     id="path1075"
                     style="fill:#ff0000;fill-opacity:1;fill-rule:nonzero;stroke:none;stroke-opacity:1" />
                  <path
                     d="M 0.0884,2.7004 C 0.0884,2.6709 0.0826,2.647 0.0753,2.647 H 0.0136 C 0.0064,2.647 5e-4,2.6709 5e-4,2.7004 v 0.7731 c 0,0.0295 0.0059,0.0534 0.0131,0.0534 h 0.0617 c 0.0073,0 0.0131,-0.0239 0.0131,-0.0534 V 2.7004"
                     id="path1077"
                     style="fill:#ff0000;fill-opacity:1;fill-rule:nonzero;stroke:none;stroke-opacity:1" />
                  <path
                     d="m 0.4353,3.2535 c 0,0.027 0.0053,0.0489 0.012,0.0489 0,0 0,1e-4 0,1e-4 h 0.0741 c 0.0072,0 0.0131,0.0238 0.0131,0.0534 v 0.1172 c 0,0.0296 -0.0059,0.0535 -0.0131,0.0535 H 0.4003 c -8e-4,2e-4 -0.0017,4e-4 -0.0025,4e-4 -0.0243,0 -0.044,-0.0791 -0.0446,-0.1775 v 0 -0.5187 0 c 0,-8e-4 0,-0.0014 0,-0.0022 0,-0.1001 0.0199,-0.1812 0.0444,-0.1815 0,-2e-4 -10e-5,-3e-4 -10e-5,-4e-4 h 0.1239 c 0.0072,0 0.0131,0.0239 0.0131,0.0534 v 0.1173 c 0,0.0295 -0.0059,0.0534 -0.0131,0.0534 H 0.4466 C 0.4403,2.8722 0.4353,2.8933 0.4353,2.9194 c 0,3e-4 0,4e-4 0,7e-4 v 0.0712 h 0.0643 c 0.0073,0 0.0132,0.024 0.0132,0.0534 v 0.0886 c 0,0.0296 -0.0059,0.0535 -0.0132,0.0535 H 0.4353 v 0.0664 c 0,2e-4 0,2e-4 0,3e-4"
                     id="path1079"
                     style="fill:#ff0000;fill-opacity:1;fill-rule:nonzero;stroke:none;stroke-opacity:1" />
                  <path
                     d="m 0.327,3.5263 c 0,0 -0.0283,0 -0.0378,0 C 0.2798,3.5263 0.278,3.4907 0.278,3.4907 L 0.2446,2.9192 c 0,0 -0.001,-0.0245 -0.0051,-0.0252 C 0.2346,2.8932 0.2337,2.9148 0.2337,2.9148 L 0.2009,3.4829 c 0,4e-4 0,8e-4 -10e-5,0.0012 C 0.1997,3.5085 0.1945,3.527 0.1881,3.527 c -0.0071,0 -0.0583,-1e-4 -0.0645,-1e-4 -0.0071,0 -0.0129,-0.0237 -0.0129,-0.0528 0,-0.0033 10e-5,-0.0064 2e-4,-0.0095 0,-6e-4 0,-0.0013 0,-0.0013 L 0.1567,2.7707 c 6e-4,-0.0075 0.002,-0.0231 0.0029,-0.0294 0.0071,-0.056 0.0213,-0.0945 0.0379,-0.0945 0.0103,0 0.0441,0 0.0545,0 0.0188,0 0.0347,0.0496 0.0403,0.1183 3e-4,0.0027 0.0013,0.0188 0.0013,0.0188 0,0 0.0404,0.6357 0.043,0.6816 C 0.34,3.5229 0.327,3.5263 0.327,3.5263"
                     id="path1081"
                     style="fill:#ff0000;fill-opacity:1;fill-rule:nonzero;stroke:none;stroke-opacity:1" />
                  <path
                     d="M 0.6649,3.3025 H 0.722 c 0.0072,0 0.0131,0.0238 0.0131,0.0534 v 0.1172 c 0,0.0296 -0.0059,0.0535 -0.0131,0.0535 H 0.6455 c -4e-4,10e-5 -8e-4,3e-4 -0.0013,3e-4 -6e-4,0 -0.0012,-3e-4 -0.0018,-3e-4 H 0.641 c -8e-4,0 -0.002,-4e-4 -0.0034,-0.001 C 0.5884,3.5117 0.5495,3.3501 0.5495,3.1461 c -4e-4,-0.0476 -7e-4,-0.0719 -3e-4,-0.1119 0,-0.2103 0.0416,-0.3825 0.093,-0.3868 8e-4,-2e-4 0.0014,-4e-4 0.002,-4e-4 H 0.722 c 0.0072,0 0.0131,0.0239 0.0131,0.0535 v 0.1154 c 0,0.0295 -0.0059,0.0535 -0.0131,0.0535 H 0.6656 C 0.6502,2.8731 0.6413,2.9123 0.6386,2.9748 0.6375,3.0021 0.6366,3.0295 0.6363,3.0818 0.636,3.1413 0.6369,3.1686 0.638,3.1936 0.6409,3.255 0.6499,3.2973 0.6649,3.3025"
                     id="path1083"
                     style="fill:#ff0000;fill-opacity:1;fill-rule:nonzero;stroke:none;stroke-opacity:1" />
                  <path
                     d="M 1,3.1058 C 1,3.1066 1,3.1073 1,3.1082 0.998,3.4679 0.9474,3.5099 0.9233,3.5276 0.8622,3.5726 0.8161,3.5212 0.8106,3.5139 0.7835,3.4782 0.7477,3.415 0.7472,3.0921 c 0,-0.0021 0,-0.0039 0,-0.0059 0,-0.002 0,-0.0039 0,-0.0059 C 0.7471,2.7975 0.7833,2.6982 0.8072,2.6634 0.8101,2.6579 0.8145,2.653 0.8201,2.649 0.822,2.6475 0.8236,2.6465 0.8249,2.6459 0.8504,2.631 0.8932,2.6296 0.9206,2.6458 0.9235,2.6471 0.9279,2.6498 0.9334,2.6559 0.9352,2.6578 0.9369,2.6599 0.9384,2.6621 0.9623,2.6948 0.9982,2.7897 1,3.0641 1,3.065 1,3.0657 1,3.0665 1,3.0729 1,3.0796 1,3.0862 1,3.0927 1,3.0994 1,3.1058 Z M 0.834,3.2129 c 0,0 5e-4,0.0154 0.003,0.0388 0.0039,0.0288 0.0139,0.0655 0.0374,0.0661 0.0374,9e-4 0.0394,-0.104 0.0394,-0.104 1e-4,-0.0045 2e-4,-0.0091 4e-4,-0.0137 C 0.9147,3.1783 0.9156,3.1399 0.9157,3.0917 0.9156,3.0436 0.9149,3.002 0.9144,2.9801 0.9143,2.9756 0.9139,2.9682 0.9138,2.9637 c 0,0 -0.002,-0.1049 -0.0394,-0.1039 C 0.8509,2.8604 0.8411,2.8992 0.837,2.9258 0.8346,2.9458 0.8335,2.9703 0.8335,2.9703 0.8313,3.0271 0.8316,3.0498 0.8314,3.0875 0.8313,3.1394 0.8321,3.1709 0.834,3.2129"
                     id="path1085"
                     style="fill:#ff0000;fill-opacity:1;fill-rule:nonzero;stroke:none;stroke-opacity:1" />
                  <path
                     d="M 0.0556,2.2099 H 0.047 v 0.1888 h -2e-4 L 0.0285,2.3048 H 0.0271 L 0.0087,2.3987 H 0.0086 V 2.2099 H 0 V 2.4525 H 0.008 L 0.0278,2.3529 0.0476,2.4525 h 0.008 V 2.2099"
                     id="path1087"
                     style="fill:#ff0000;fill-opacity:1;fill-rule:nonzero;stroke:none;stroke-opacity:1" />
                  <path
                     d="M 0.1009,2.2191 C 0.0973,2.2095 0.0959,2.2067 0.0934,2.2067 0.09,2.2067 0.0882,2.2116 0.0875,2.223 0.0841,2.212 0.0805,2.2067 0.0769,2.2067 c -0.0058,0 -0.0096,0.0185 -0.0096,0.0391 0,0.0316 0.0071,0.0413 0.0134,0.0505 l 0.0069,0.01 v 0.0085 c 0,0.0199 -0.0024,0.0281 -0.0071,0.0281 -0.0043,0 -0.0087,-0.0082 -0.0124,-0.0263 v 0.0345 c 0.003,0.0146 0.0073,0.0217 0.013,0.0217 0.0079,0 0.0142,-0.0164 0.0142,-0.0527 V 2.238 c 0,-0.0061 6e-4,-0.0082 0.0015,-0.0082 8e-4,0 0.0024,0.0032 0.0041,0.0085 z M 0.0876,2.2888 C 0.0809,2.2796 0.0751,2.2703 0.0751,2.2515 c 0,-0.0132 0.0024,-0.0224 0.0056,-0.0224 0.0025,0 0.0048,0.0049 0.0069,0.0131 v 0.0466"
                     id="path1089"
                     style="fill:#ff0000;fill-opacity:1;fill-rule:nonzero;stroke:none;stroke-opacity:1" />
                  <path
                     d="m 0.1151,2.3991 c -0.0026,0 -0.0046,0.0085 -0.0046,0.0189 0,0.0103 0.002,0.0188 0.0046,0.0188 0.0025,0 0.0046,-0.0085 0.0046,-0.0188 0,-0.0104 -0.0021,-0.0189 -0.0046,-0.0189 z M 0.1189,2.2099 H 0.1112 V 2.3696 H 0.1189 V 2.2099"
                     id="path1091"
                     style="fill:#ff0000;fill-opacity:1;fill-rule:nonzero;stroke:none;stroke-opacity:1" />
                  <path
                     d="M 0.1561,2.3283 C 0.1517,2.34 0.1476,2.345 0.1447,2.345 0.1416,2.345 0.1395,2.339 0.1395,2.3305 0.1395,2.3234 0.1422,2.3148 0.1491,2.2984 0.1555,2.281 0.1579,2.27 0.1579,2.2536 0.1579,2.2255 0.1524,2.2067 0.145,2.2067 c -0.0048,0 -0.0086,0.0039 -0.0137,0.0146 v 0.0341 c 0.0051,-0.0142 0.0097,-0.021 0.0129,-0.021 0.0031,7e-4 0.0057,0.0068 0.0057,0.0181 0,0.0221 -0.0183,0.0338 -0.0183,0.0769 0,0.027 0.0051,0.0434 0.0129,0.0434 0.0037,0 0.0075,-0.0043 0.0116,-0.0132 V 2.3283"
                     id="path1093"
                     style="fill:#ff0000;fill-opacity:1;fill-rule:nonzero;stroke:none;stroke-opacity:1" />
                  <path
                     d="M 0.2178,2.4215 C 0.2165,2.4236 0.2157,2.4243 0.2143,2.4243 0.2081,2.4243 0.206,2.4094 0.206,2.3849 V 2.3696 H 0.2131 V 2.3411 H 0.206 V 2.2099 H 0.1983 V 2.3411 H 0.1928 v 0.0285 h 0.0055 v 0.0117 c 0,0.0313 0.0018,0.0463 0.005,0.0591 0.0033,0.0135 0.0077,0.0199 0.0145,0.0121 v -0.031"
                     id="path1095"
                     style="fill:#ff0000;fill-opacity:1;fill-rule:nonzero;stroke:none;stroke-opacity:1" />
                  <path
                     d="m 0.2612,2.2913 c 0,-0.0505 -0.0086,-0.0846 -0.0212,-0.0846 -0.0121,0 -0.0207,0.0355 -0.0207,0.0846 0,0.0459 0.009,0.0815 0.0207,0.0815 0.0123,0 0.0212,-0.0342 0.0212,-0.0815 z m -0.034,0 c 0,-0.0338 0.0052,-0.0562 0.0127,-0.0562 0.0082,0 0.0134,0.0214 0.0134,0.0559 0,0.0309 -0.0056,0.0533 -0.0134,0.0533 -0.0074,0 -0.0127,-0.0224 -0.0127,-0.053"
                     id="path1097"
                     style="fill:#ff0000;fill-opacity:1;fill-rule:nonzero;stroke:none;stroke-opacity:1" />
                  <path
                     d="M 0.2813,2.3696 V 2.3329 h 2e-4 C 0.2854,2.361 0.2892,2.3728 0.2928,2.3728 0.296,2.3728 0.299,2.3667 0.3022,2.3543 L 0.2981,2.3269 C 0.2957,2.3361 0.2927,2.3425 0.2908,2.3425 0.2855,2.3425 0.2813,2.3208 0.2813,2.2935 V 2.2099 H 0.2735 v 0.1597 h 0.0078"
                     id="path1099"
                     style="fill:#ff0000;fill-opacity:1;fill-rule:nonzero;stroke:none;stroke-opacity:1" />
                  <path
                     d="M 0.3405,2.2159 C 0.3378,2.2109 0.3329,2.2067 0.3281,2.2067 l -4e-4,-0.005 C 0.3306,2.1985 0.3324,2.1903 0.3324,2.1793 0.3324,2.1526 0.3266,2.143 0.3189,2.1476 v 0.0196 c 0.0041,-0.0025 0.0073,0.001 0.0073,0.0092 0,0.0061 -0.0017,0.0103 -0.0051,0.0089 L 0.3232,2.2095 C 0.3146,2.218 0.3088,2.2476 0.3088,2.2867 c 0,0.0526 0.0075,0.0861 0.0194,0.0861 0.0046,0 0.0076,-0.0043 0.0114,-0.011 V 2.328 C 0.3351,2.34 0.3322,2.3436 0.3288,2.3436 c -0.0071,0 -0.012,-0.0217 -0.012,-0.0541 0,-0.033 0.0052,-0.053 0.0133,-0.053 0.0033,0 0.0064,0.0036 0.0104,0.0107 V 2.2159"
                     id="path1101"
                     style="fill:#ff0000;fill-opacity:1;fill-rule:nonzero;stroke:none;stroke-opacity:1" />
                  <path
                     d="M 0.3826,2.2191 C 0.379,2.2095 0.3775,2.2067 0.3751,2.2067 0.3717,2.2067 0.3698,2.2116 0.3691,2.223 0.3657,2.212 0.3621,2.2067 0.3585,2.2067 c -0.0057,0 -0.0096,0.0185 -0.0096,0.0391 0,0.0316 0.0071,0.0413 0.0134,0.0505 l 0.0069,0.01 v 0.0085 c 0,0.0199 -0.0023,0.0281 -0.0071,0.0281 -0.0043,0 -0.0086,-0.0082 -0.0124,-0.0263 v 0.0345 c 0.0031,0.0146 0.0074,0.0217 0.013,0.0217 0.008,0 0.0143,-0.0164 0.0143,-0.0527 V 2.238 c 0,-0.0061 5e-4,-0.0082 0.0015,-0.0082 8e-4,0 0.0023,0.0032 0.0041,0.0085 z M 0.3692,2.2888 C 0.3626,2.2796 0.3568,2.2703 0.3568,2.2515 c 0,-0.0132 0.0024,-0.0224 0.0056,-0.0224 0.0024,0 0.0047,0.0049 0.0068,0.0131 v 0.0466"
                     id="path1103"
                     style="fill:#ff0000;fill-opacity:1;fill-rule:nonzero;stroke:none;stroke-opacity:1" />
                  <path
                     d="m 0.3923,2.1746 c 0.0029,0.0079 0.0039,0.026 0.0031,0.0388 -0.0025,4e-4 -0.0043,0.0082 -0.0043,0.0199 0,0.0118 0.0022,0.0203 0.0052,0.0203 0.0038,0 0.0062,-0.0135 0.0062,-0.0345 0,-0.0202 -0.0033,-0.0434 -0.0102,-0.0512 v 0.0067"
                     id="path1105"
                     style="fill:#ff0000;fill-opacity:1;fill-rule:nonzero;stroke:none;stroke-opacity:1" />
                  <path
                     d="m 0.4411,2.3696 v -0.021 c 0.004,0.0163 0.0077,0.0242 0.0114,0.0242 0.005,0 0.0091,-0.01 0.0117,-0.0288 0.0034,0.0156 0.0075,0.0288 0.0131,0.0288 0.008,0 0.013,-0.0249 0.013,-0.0626 V 2.2099 H 0.4826 v 0.0988 c 0,0.0242 -0.0037,0.0374 -0.0082,0.0374 C 0.4719,2.3465 0.4685,2.3376 0.4657,2.3258 V 2.2099 H 0.4579 v 0.0992 c 0,0.026 -0.0032,0.037 -0.0071,0.037 -0.0039,0 -0.0065,-0.005 -0.0097,-0.0203 V 2.2099 H 0.4333 v 0.1597 h 0.0078"
                     id="path1107"
                     style="fill:#ff0000;fill-opacity:1;fill-rule:nonzero;stroke:none;stroke-opacity:1" />
                  <path
                     d="M 0.5345,2.2191 C 0.531,2.2095 0.5295,2.2067 0.527,2.2067 0.5236,2.2067 0.5218,2.2116 0.5211,2.223 0.5177,2.212 0.5141,2.2067 0.5105,2.2067 c -0.0057,0 -0.0096,0.0185 -0.0096,0.0391 0,0.0316 0.0071,0.0413 0.0134,0.0505 l 0.0069,0.01 v 0.0085 c 0,0.0199 -0.0024,0.0281 -0.0071,0.0281 -0.0043,0 -0.0087,-0.0082 -0.0124,-0.0263 v 0.0345 c 0.0031,0.0146 0.0073,0.0217 0.013,0.0217 0.008,0 0.0143,-0.0164 0.0143,-0.0527 V 2.238 c 0,-0.0061 5e-4,-0.0082 0.0014,-0.0082 8e-4,0 0.0024,0.0032 0.0041,0.0085 z M 0.5212,2.2888 C 0.5145,2.2796 0.5088,2.2703 0.5088,2.2515 c 0,-0.0132 0.0023,-0.0224 0.0056,-0.0224 0.0024,0 0.0047,0.0049 0.0068,0.0131 v 0.0466"
                     id="path1109"
                     style="fill:#ff0000;fill-opacity:1;fill-rule:nonzero;stroke:none;stroke-opacity:1" />
                  <path
                     d="m 0.5487,2.3991 c -0.0025,0 -0.0046,0.0085 -0.0046,0.0189 0,0.0103 0.0021,0.0188 0.0046,0.0188 0.0025,0 0.0046,-0.0085 0.0046,-0.0188 0,-0.0104 -0.0021,-0.0189 -0.0046,-0.0189 z M 0.5525,2.2099 H 0.5448 V 2.3696 H 0.5525 V 2.2099"
                     id="path1111"
                     style="fill:#ff0000;fill-opacity:1;fill-rule:nonzero;stroke:none;stroke-opacity:1" />
                  <path
                     d="M 0.5897,2.3283 C 0.5853,2.34 0.5812,2.345 0.5783,2.345 0.5752,2.345 0.5732,2.339 0.5732,2.3305 0.5732,2.3234 0.5758,2.3148 0.5827,2.2984 0.5892,2.281 0.5915,2.27 0.5915,2.2536 0.5915,2.2255 0.586,2.2067 0.5786,2.2067 0.5738,2.2067 0.57,2.2106 0.565,2.2213 v 0.0341 c 0.005,-0.0142 0.0097,-0.021 0.0128,-0.021 0.0031,7e-4 0.0058,0.0068 0.0058,0.0181 0,0.0221 -0.0184,0.0338 -0.0184,0.0769 0,0.027 0.0051,0.0434 0.013,0.0434 0.0036,0 0.0074,-0.0043 0.0115,-0.0132 V 2.3283"
                     id="path1113"
                     style="fill:#ff0000;fill-opacity:1;fill-rule:nonzero;stroke:none;stroke-opacity:1" />
                  <path
                     d="M 0.6599,2.328 C 0.6555,2.34 0.6525,2.3436 0.6491,2.3436 c -0.0071,0 -0.012,-0.0217 -0.012,-0.0541 0,-0.033 0.0053,-0.053 0.0133,-0.053 0.0033,0 0.0065,0.0036 0.0104,0.0107 V 2.2159 C 0.6582,2.2109 0.6532,2.2067 0.6491,2.2067 c -0.0117,0 -0.0199,0.033 -0.0199,0.08 0,0.0526 0.0075,0.0861 0.0194,0.0861 0.0045,0 0.0076,-0.0043 0.0113,-0.011 V 2.328"
                     id="path1115"
                     style="fill:#ff0000;fill-opacity:1;fill-rule:nonzero;stroke:none;stroke-opacity:1" />
                  <path
                     d="m 0.7121,2.2913 c 0,-0.0505 -0.0086,-0.0846 -0.0212,-0.0846 -0.0121,0 -0.0207,0.0355 -0.0207,0.0846 0,0.0459 0.009,0.0815 0.0207,0.0815 0.0123,0 0.0212,-0.0342 0.0212,-0.0815 z m -0.034,0 c 0,-0.0338 0.0052,-0.0562 0.0127,-0.0562 0.0082,0 0.0134,0.0214 0.0134,0.0559 0,0.0309 -0.0056,0.0533 -0.0134,0.0533 -0.0073,0 -0.0127,-0.0224 -0.0127,-0.053"
                     id="path1117"
                     style="fill:#ff0000;fill-opacity:1;fill-rule:nonzero;stroke:none;stroke-opacity:1" />
                  <path
                     d="m 0.7315,2.3486 h 2e-4 c 0.003,0.0153 0.0073,0.0242 0.0117,0.0242 0.0074,0 0.0134,-0.0206 0.0134,-0.0644 V 2.2099 H 0.749 v 0.0988 c 0,0.0235 -0.003,0.0388 -0.0077,0.0388 -0.0034,0 -0.0061,-0.0064 -0.0098,-0.0231 V 2.2099 H 0.7237 v 0.1597 h 0.0078 v -0.021"
                     id="path1119"
                     style="fill:#ff0000;fill-opacity:1;fill-rule:nonzero;stroke:none;stroke-opacity:1" />
                  <path
                     d="M 0.7911,2.4215 C 0.7898,2.4236 0.789,2.4243 0.7876,2.4243 0.7813,2.4243 0.7793,2.4094 0.7793,2.3849 V 2.3696 H 0.7864 V 2.3411 H 0.7793 V 2.2099 H 0.7715 V 2.3411 H 0.766 v 0.0285 h 0.0055 v 0.0117 c 0,0.0313 0.0019,0.0463 0.005,0.0591 0.0033,0.0135 0.0078,0.0199 0.0146,0.0121 v -0.031"
                     id="path1121"
                     style="fill:#ff0000;fill-opacity:1;fill-rule:nonzero;stroke:none;stroke-opacity:1" />
                  <path
                     d="m 0.7998,2.3991 c -0.0025,0 -0.0046,0.0085 -0.0046,0.0189 0,0.0103 0.0021,0.0188 0.0046,0.0188 0.0026,0 0.0047,-0.0085 0.0047,-0.0188 0,-0.0104 -0.0021,-0.0189 -0.0047,-0.0189 z M 0.8037,2.2099 H 0.7959 V 2.3696 H 0.8037 V 2.2099"
                     id="path1123"
                     style="fill:#ff0000;fill-opacity:1;fill-rule:nonzero;stroke:none;stroke-opacity:1" />
                  <path
                     d="M 0.8484,2.2191 C 0.8448,2.2095 0.8434,2.2067 0.8409,2.2067 0.8375,2.2067 0.8357,2.2116 0.835,2.223 0.8316,2.212 0.828,2.2067 0.8244,2.2067 c -0.0058,0 -0.0096,0.0185 -0.0096,0.0391 0,0.0316 0.0071,0.0413 0.0134,0.0505 l 0.0069,0.01 v 0.0085 c 0,0.0199 -0.0024,0.0281 -0.0071,0.0281 -0.0043,0 -0.0087,-0.0082 -0.0124,-0.0263 v 0.0345 c 0.003,0.0146 0.0073,0.0217 0.013,0.0217 0.0079,0 0.0142,-0.0164 0.0142,-0.0527 V 2.238 c 0,-0.0061 6e-4,-0.0082 0.0015,-0.0082 8e-4,0 0.0024,0.0032 0.0041,0.0085 z M 0.8351,2.2888 C 0.8284,2.2796 0.8226,2.2703 0.8226,2.2515 c 0,-0.0132 0.0024,-0.0224 0.0056,-0.0224 0.0025,0 0.0048,0.0049 0.0069,0.0131 v 0.0466"
                     id="path1125"
                     style="fill:#ff0000;fill-opacity:1;fill-rule:nonzero;stroke:none;stroke-opacity:1" />
                  <path
                     d="m 0.8661,2.3486 h 2e-4 c 0.0029,0.0153 0.0073,0.0242 0.0117,0.0242 0.0074,0 0.0133,-0.0206 0.0133,-0.0644 V 2.2099 H 0.8836 v 0.0988 c 0,0.0235 -0.003,0.0388 -0.0077,0.0388 -0.0034,0 -0.0062,-0.0064 -0.0098,-0.0231 V 2.2099 H 0.8583 v 0.1597 h 0.0078 v -0.021"
                     id="path1127"
                     style="fill:#ff0000;fill-opacity:1;fill-rule:nonzero;stroke:none;stroke-opacity:1" />
                  <path
                     d="M 0.935,2.2159 C 0.9324,2.2109 0.9274,2.2067 0.9226,2.2067 l -3e-4,-0.005 C 0.9251,2.1985 0.927,2.1903 0.927,2.1793 0.927,2.1526 0.9211,2.143 0.9134,2.1476 v 0.0196 c 0.0041,-0.0025 0.0074,0.001 0.0074,0.0092 0,0.0061 -0.0018,0.0103 -0.0051,0.0089 L 0.9178,2.2095 C 0.9092,2.218 0.9034,2.2476 0.9034,2.2867 c 0,0.0526 0.0075,0.0861 0.0194,0.0861 0.0045,0 0.0076,-0.0043 0.0113,-0.011 V 2.328 C 0.9297,2.34 0.9267,2.3436 0.9233,2.3436 c -0.0071,0 -0.012,-0.0217 -0.012,-0.0541 0,-0.033 0.0053,-0.053 0.0133,-0.053 0.0033,0 0.0065,0.0036 0.0104,0.0107 V 2.2159"
                     id="path1129"
                     style="fill:#ff0000;fill-opacity:1;fill-rule:nonzero;stroke:none;stroke-opacity:1" />
                  <path
                     d="M 0.9771,2.2191 C 0.9736,2.2095 0.9721,2.2067 0.9696,2.2067 0.9662,2.2067 0.9644,2.2116 0.9637,2.223 0.9603,2.212 0.9567,2.2067 0.9531,2.2067 c -0.0058,0 -0.0096,0.0185 -0.0096,0.0391 0,0.0316 0.0071,0.0413 0.0134,0.0505 l 0.0069,0.01 v 0.0085 c 0,0.0199 -0.0024,0.0281 -0.0071,0.0281 -0.0043,0 -0.0087,-0.0082 -0.0124,-0.0263 v 0.0345 c 0.003,0.0146 0.0073,0.0217 0.013,0.0217 0.008,0 0.0142,-0.0164 0.0142,-0.0527 V 2.238 c 0,-0.0061 6e-4,-0.0082 0.0015,-0.0082 8e-4,0 0.0024,0.0032 0.0041,0.0085 z M 0.9638,2.2888 C 0.9571,2.2796 0.9514,2.2703 0.9514,2.2515 c 0,-0.0132 0.0023,-0.0224 0.0056,-0.0224 0.0024,0 0.0047,0.0049 0.0068,0.0131 v 0.0466"
                     id="path1131"
                     style="fill:#ff0000;fill-opacity:1;fill-rule:nonzero;stroke:none;stroke-opacity:1" />
                  <path
                     d="m 0.9965,2.228 c 0,-0.0117 -0.0024,-0.0213 -0.0053,-0.0213 -0.0029,0 -0.0052,0.0096 -0.0052,0.0213 0,0.0117 0.0023,0.0213 0.0052,0.0213 0.0029,0 0.0053,-0.0096 0.0053,-0.0213"
                     id="path1133"
                     style="fill:#ff0000;fill-opacity:1;fill-rule:nonzero;stroke:none;stroke-opacity:1" />
                </g>
              </g>
            </g>
          </g>
        </g>
      </g>
    </g>
  </g>
</svg>
