<?xml version="1.0" encoding="UTF-8"?>
<svg id="svg" version="1.1" width="512" height="126" viewBox="0 0 512 126" xmlns="http://www.w3.org/2000/svg" xmlns:xlink="http://www.w3.org/1999/xlink"><path d="M166.000 9.583 C 141.778 15.973,123.956 38.419,124.015 62.460 C 124.060 80.865,134.854 99.664,151.000 109.456 C 173.239 122.943,202.705 119.425,220.926 101.108 C 231.904 90.073,237.000 77.833,237.000 62.500 C 237.000 47.247,231.855 34.809,221.175 24.242 C 214.180 17.321,202.524 11.008,193.201 9.090 C 185.924 7.593,172.628 7.834,166.000 9.583 M54.218 11.760 L 9.937 12.021 10.218 23.760 L 10.500 35.500 29.000 36.000 L 47.500 36.500 47.762 74.773 L 48.024 113.045 66.262 112.773 L 84.500 112.500 85.000 74.500 L 85.500 36.500 97.000 35.949 L 108.500 35.399 97.450 35.199 C 89.948 35.064,86.015 35.385,85.200 36.200 C 84.310 37.090,84.000 47.022,84.000 74.700 L 84.000 112.000 74.364 112.000 L 64.728 112.000 65.463 67.750 C 65.867 43.413,66.363 23.327,66.565 23.117 C 67.304 22.347,120.523 33.321,121.254 34.394 C 121.669 35.002,121.894 30.100,121.754 23.500 L 121.500 11.500 110.000 11.500 C 103.675 11.500,78.573 11.617,54.218 11.760 M245.667 11.667 C 244.818 12.515,244.816 42.780,245.663 82.250 L 246.323 113.000 263.784 113.000 L 281.245 113.000 280.510 87.500 C 280.105 73.475,280.157 62.000,280.625 62.000 C 281.092 62.000,287.789 68.188,295.505 75.750 L 309.536 89.500 294.740 74.539 L 279.943 59.578 280.222 47.039 L 280.500 34.500 293.069 52.500 C 307.836 73.647,331.292 107.851,332.500 110.000 C 333.028 110.939,332.438 110.754,330.922 109.507 L 328.500 107.514 330.924 110.257 L 333.349 113.000 347.726 113.000 L 362.104 113.000 361.471 63.250 C 361.123 35.888,360.660 12.927,360.441 12.226 C 360.136 11.245,356.177 11.015,343.272 11.226 L 326.500 11.500 326.890 36.750 C 327.104 50.638,326.949 62.000,326.546 62.000 C 326.142 62.000,314.083 50.525,299.747 36.500 L 273.682 11.000 260.008 11.000 C 252.487 11.000,246.033 11.300,245.667 11.667 M456.702 24.250 C 451.551 31.538,445.372 40.313,442.972 43.750 C 440.571 47.188,438.357 49.978,438.053 49.951 C 437.749 49.924,431.066 41.374,423.202 30.951 L 408.904 12.000 389.893 12.000 C 374.950 12.000,371.043 12.267,371.633 13.250 C 372.046 13.938,381.434 26.200,392.495 40.500 C 403.555 54.800,414.269 68.702,416.303 71.394 L 420.000 76.288 420.000 86.993 C 420.000 92.881,420.292 101.155,420.649 105.379 L 421.299 113.060 437.725 112.948 C 449.834 112.865,454.019 112.529,453.648 111.668 C 453.371 111.025,449.249 102.175,444.489 92.000 C 439.729 81.825,435.759 72.600,435.667 71.500 C 435.566 70.287,443.951 58.189,456.981 40.750 L 478.463 12.000 488.731 12.000 C 494.379 12.000,499.000 12.360,499.000 12.800 C 499.000 13.240,498.438 14.231,497.750 15.002 C 496.687 16.194,496.761 16.206,498.250 15.079 C 499.213 14.351,500.000 13.135,500.000 12.378 C 500.000 11.262,496.778 11.000,483.034 11.000 L 466.067 11.000 456.702 24.250 M492.000 23.000 C 490.825 24.650,490.089 26.000,490.364 26.000 C 490.639 26.000,491.825 24.650,493.000 23.000 C 494.175 21.350,494.911 20.000,494.636 20.000 C 494.361 20.000,493.175 21.350,492.000 23.000 M194.199 25.067 C 223.093 34.801,231.242 70.349,209.330 91.073 C 185.436 113.670,145.921 100.787,140.096 68.500 C 136.690 49.626,148.943 30.603,168.500 24.402 C 174.911 22.369,187.129 22.685,194.199 25.067 M170.000 27.893 C 164.071 29.813,157.124 34.141,153.281 38.311 C 147.976 44.066,145.427 49.124,144.086 56.554 C 139.698 80.871,162.178 102.501,187.135 97.976 C 199.478 95.737,209.752 88.029,214.830 77.196 C 217.104 72.346,217.500 70.164,217.500 62.500 C 217.500 54.653,217.139 52.765,214.682 47.761 C 211.091 40.448,204.552 33.909,197.239 30.318 C 192.319 27.902,190.144 27.470,182.000 27.292 C 176.775 27.177,171.375 27.447,170.000 27.893 M487.872 28.750 C 486.629 30.336,486.664 30.371,488.250 29.128 C 489.213 28.373,490.000 27.585,490.000 27.378 C 490.000 26.555,489.179 27.084,487.872 28.750 M190.324 34.924 C 191.176 35.776,190.878 37.166,189.139 40.444 C 183.561 50.959,178.872 51.420,173.241 42.006 C 171.448 39.009,170.135 36.094,170.323 35.528 C 171.158 33.018,187.911 32.511,190.324 34.924 M482.872 35.750 C 481.629 37.336,481.664 37.371,483.250 36.128 C 484.916 34.821,485.445 34.000,484.622 34.000 C 484.415 34.000,483.627 34.788,482.872 35.750 M477.000 44.000 C 475.825 45.650,475.089 47.000,475.364 47.000 C 475.639 47.000,476.825 45.650,478.000 44.000 C 479.175 42.350,479.911 41.000,479.636 41.000 C 479.361 41.000,478.175 42.350,477.000 44.000 M166.804 56.879 C 166.439 60.027,161.697 62.669,154.686 63.630 L 150.000 64.272 150.000 61.147 C 150.000 57.287,153.270 48.464,155.693 45.787 C 157.469 43.824,157.553 43.866,162.300 49.028 C 165.921 52.966,167.033 54.904,166.804 56.879 M207.880 49.355 C 209.210 51.940,210.514 56.293,210.777 59.028 C 211.232 63.766,211.139 64.000,208.809 64.000 C 205.069 64.000,196.391 61.177,195.008 59.510 C 194.331 58.694,194.043 57.008,194.368 55.763 C 195.153 52.758,202.930 43.810,204.346 44.282 C 204.959 44.486,206.549 46.769,207.880 49.355 M470.872 52.750 C 469.629 54.336,469.664 54.371,471.250 53.128 C 472.916 51.821,473.445 51.000,472.622 51.000 C 472.415 51.000,471.627 51.788,470.872 52.750 M174.823 55.333 C 175.041 56.457,174.471 57.000,173.073 57.000 C 171.933 57.000,171.000 56.400,171.000 55.667 C 171.000 52.604,174.239 52.321,174.823 55.333 M189.823 55.333 C 190.010 56.297,189.508 57.000,188.632 57.000 C 186.775 57.000,185.653 55.370,186.533 53.947 C 187.437 52.484,189.434 53.324,189.823 55.333 M184.434 58.328 C 186.523 59.856,186.832 64.293,185.003 66.497 C 183.372 68.462,178.566 68.423,176.571 66.429 C 174.316 64.173,174.630 60.372,177.223 58.557 C 179.944 56.651,182.049 56.584,184.434 58.328 M465.872 59.750 C 464.629 61.336,464.664 61.371,466.250 60.128 C 467.916 58.821,468.445 58.000,467.622 58.000 C 467.415 58.000,466.627 58.788,465.872 59.750 M172.810 66.750 C 172.624 67.713,171.810 68.500,171.000 68.500 C 170.190 68.500,169.376 67.713,169.190 66.750 C 168.954 65.522,169.494 65.000,171.000 65.000 C 172.506 65.000,173.046 65.522,172.810 66.750 M192.000 67.000 C 192.000 68.100,191.352 69.000,190.559 69.000 C 188.792 69.000,187.663 67.354,188.500 66.000 C 189.587 64.240,192.000 64.930,192.000 67.000 M458.872 69.750 C 457.629 71.336,457.664 71.371,459.250 70.128 C 460.916 68.821,461.445 68.000,460.622 68.000 C 460.415 68.000,459.627 68.788,458.872 69.750 M182.500 73.000 C 182.500 73.810,181.713 74.624,180.750 74.810 C 179.522 75.046,179.000 74.506,179.000 73.000 C 179.000 71.494,179.522 70.954,180.750 71.190 C 181.713 71.376,182.500 72.190,182.500 73.000 M173.393 74.582 C 174.295 76.932,174.099 88.296,173.130 89.824 C 171.981 91.636,166.119 89.158,160.327 84.412 C 154.512 79.647,154.699 77.781,161.250 75.199 C 167.705 72.655,172.559 72.408,173.393 74.582 M200.376 75.487 C 203.469 76.855,206.000 78.339,206.000 78.784 C 206.000 81.758,190.068 92.402,188.286 90.619 C 187.006 89.339,186.760 75.994,187.989 74.513 C 189.807 72.323,193.958 72.649,200.376 75.487 M455.232 78.000 C 455.232 79.925,455.438 80.713,455.689 79.750 C 455.941 78.788,455.941 77.213,455.689 76.250 C 455.438 75.288,455.232 76.075,455.232 78.000 M312.000 92.313 C 312.000 92.485,313.463 93.948,315.250 95.563 L 318.500 98.500 315.563 95.250 C 312.825 92.221,312.000 91.540,312.000 92.313 M456.320 106.000 C 456.320 109.575,456.502 111.038,456.723 109.250 C 456.945 107.463,456.945 104.538,456.723 102.750 C 456.502 100.963,456.320 102.425,456.320 106.000 M325.000 104.500 C 326.292 105.875,327.574 107.000,327.849 107.000 C 328.124 107.000,327.292 105.875,326.000 104.500 C 324.708 103.125,323.426 102.000,323.151 102.000 C 322.876 102.000,323.708 103.125,325.000 104.500 " stroke="none" fill="#000000" fill-rule="evenodd"/><path d="M479.415 12.765 C 477.704 13.924,436.000 69.908,436.000 71.046 C 436.000 72.258,452.982 109.074,454.176 110.450 C 454.629 110.973,455.000 102.950,455.000 92.621 L 455.000 73.843 476.500 43.511 C 488.325 26.829,498.000 12.914,498.000 12.590 C 498.000 11.732,480.700 11.895,479.415 12.765 M66.000 68.000 L 66.000 112.000 74.500 112.000 L 83.000 112.000 83.000 75.000 C 83.000 39.333,83.072 37.928,85.000 36.000 C 86.815 34.185,88.409 33.991,102.250 33.900 L 117.500 33.801 94.000 28.948 C 81.075 26.280,69.488 24.075,68.250 24.048 L 66.000 24.000 66.000 68.000 M280.641 47.866 L 279.987 58.627 296.732 75.063 C 305.941 84.104,315.506 93.525,317.988 96.001 C 324.150 102.147,328.497 105.811,327.479 104.000 C 325.902 101.193,287.061 44.761,282.950 39.302 C 281.366 37.199,281.266 37.570,280.641 47.866 " stroke="none" fill="#d12928" fill-rule="evenodd"/></svg>