<?xml version="1.0" encoding="UTF-8" standalone="no"?>
<svg
   viewBox="-0.027238587 0.022 97.124239 47.704556"
   width="2500"
   height="1227"
   version="1.1"
   id="svg4"
   sodipodi:docname="mack_logo.svg"
   xmlns:inkscape="http://www.inkscape.org/namespaces/inkscape"
   xmlns:sodipodi="http://sodipodi.sourceforge.net/DTD/sodipodi-0.dtd"
   xmlns="http://www.w3.org/2000/svg"
   xmlns:svg="http://www.w3.org/2000/svg">
  <defs
     id="defs4" />
  <sodipodi:namedview
     id="namedview4"
     pagecolor="#ffffff"
     bordercolor="#000000"
     borderopacity="0.25"
     inkscape:showpageshadow="2"
     inkscape:pageopacity="0.0"
     inkscape:pagecheckerboard="0"
     inkscape:deskcolor="#d1d1d1"
     showgrid="false">
    <inkscape:page
       x="0"
       y="0"
       width="97.124237"
       height="47.704556"
       id="page2"
       margin="0"
       bleed="0" />
  </sodipodi:namedview>
  <switch
     id="switch4">
    <g
       fill="#010101"
       id="g4">
      <path
         d="m 90.242,45.73 a 0.503,0.503 0 0 0 -0.504,-0.502 h -0.981 v 1.498 h 0.267 v -0.491 h 0.549 l 0.378,0.491 h 0.336 l -0.401,-0.521 a 0.504,0.504 0 0 0 0.356,-0.475 m -1.218,0.239 v -0.477 h 0.714 a 0.239,0.239 0 0 1 0,0.477 z"
         id="path1" />
      <path
         d="m 89.433,44.264 a 1.713,1.713 0 0 0 0,3.423 1.713,1.713 0 0 0 0,-3.423 m 0,3.158 a 1.447,1.447 0 0 1 0,-2.892 1.447,1.447 0 0 1 0,2.892 M 21.692,38.676 H 15.484 A 0.644,0.644 0 0 0 15.032,38.9 l -3.875,5.114 c -0.093,0.122 -0.248,0.122 -0.34,0 L 6.942,38.9 A 0.644,0.644 0 0 0 6.49,38.676 H 0.284 A 0.283,0.283 0 0 0 0,38.958 v 8.361 C 0,47.474 0.127,47.6 0.284,47.6 H 4.72 A 0.281,0.281 0 0 0 5.002,47.319 V 42.81 c 0,-0.156 0.078,-0.181 0.17,-0.059 l 3.505,4.626 A 0.645,0.645 0 0 0 9.132,47.6 h 3.711 a 0.647,0.647 0 0 0 0.454,-0.223 l 3.504,-4.626 c 0.093,-0.122 0.17,-0.097 0.17,0.059 v 4.509 c 0,0.155 0.127,0.281 0.283,0.281 h 4.438 a 0.282,0.282 0 0 0 0.282,-0.281 v -8.361 a 0.282,0.282 0 0 0 -0.282,-0.282 m 43.134,0 H 48.379 A 0.638,0.638 0 0 0 47.928,38.9 l -0.672,0.884 a 0.966,0.966 0 0 0 -0.172,0.506 v 5.695 c 0,0.156 0.077,0.384 0.172,0.508 l 0.672,0.882 a 0.63,0.63 0 0 0 0.451,0.225 h 16.447 a 0.283,0.283 0 0 0 0.282,-0.283 V 45.079 A 0.282,0.282 0 0 0 64.826,44.797 H 52.342 A 0.284,0.284 0 0 1 52.06,44.514 v -2.753 c 0,-0.155 0.128,-0.281 0.282,-0.281 h 12.484 a 0.284,0.284 0 0 0 0.282,-0.283 v -2.239 a 0.283,0.283 0 0 0 -0.282,-0.282 m 15.509,3.481 c -0.12,-0.098 -0.108,-0.239 0.03,-0.312 l 5.76,-3.04 c 0.139,-0.072 0.125,-0.13 -0.031,-0.13 h -6.722 c -0.156,0 -0.395,0.058 -0.533,0.13 l -6.088,3.213 c -0.136,0.072 -0.249,0.003 -0.249,-0.152 v -2.91 A 0.282,0.282 0 0 0 72.22,38.675 h -4.437 a 0.282,0.282 0 0 0 -0.282,0.281 v 8.361 c 0,0.157 0.127,0.283 0.282,0.283 h 4.437 a 0.283,0.283 0 0 0 0.282,-0.283 v -1.041 a 0.52,0.52 0 0 1 0.249,-0.414 l 3.482,-1.837 a 0.463,0.463 0 0 1 0.466,0.048 l 4.091,3.348 a 0.929,0.929 0 0 0 0.501,0.179 h 5.412 c 0.155,0 0.185,-0.081 0.065,-0.179 z m -41.21,-3.253 a 0.643,0.643 0 0 0 -0.452,-0.225 h -7.886 a 0.645,0.645 0 0 0 -0.452,0.225 l -6.421,8.471 c -0.093,0.124 -0.043,0.225 0.112,0.225 l 4.888,-0.004 a 0.65,0.65 0 0 0 0.453,-0.223 l 0.876,-1.155 a 0.637,0.637 0 0 1 0.452,-0.225 h 8.07 a 0.64,0.64 0 0 1 0.452,0.225 l 0.874,1.155 c 0.095,0.121 0.3,0.223 0.454,0.223 l 4.887,0.004 c 0.155,0 0.207,-0.101 0.112,-0.225 z m -2.013,4.624 h -4.74 c -0.155,0 -0.205,-0.103 -0.113,-0.226 l 1.465,-1.939 a 0.638,0.638 0 0 1 0.452,-0.226 h 1.132 c 0.157,0 0.359,0.102 0.454,0.226 l 1.462,1.939 c 0.095,0.123 0.043,0.226 -0.112,0.226 M 78.798,11.294 h 3.471 a 0.262,0.262 0 0 0 0.233,-0.17 l 0.67,-2.049 a 0.265,0.265 0 0 1 0.236,-0.17 h 2.889 c 0.099,0 0.254,0.031 0.345,0.068 l 0.819,0.345 c 0.09,0.037 0.225,0.015 0.297,-0.052 l 2.113,-1.94 C 89.944,7.26 89.928,7.174 89.838,7.135 L 87.354,6.094 A 0.356,0.356 0 0 1 87.162,5.848 L 86.743,3.182 C 86.729,3.086 86.79,3.038 86.88,3.075 l 2.616,1.097 c 0.09,0.039 0.152,-0.01 0.137,-0.108 L 89.238,1.555 a 0.41,0.41 0 0 1 0.096,-0.306 l 0.599,-0.626 c 0.068,-0.07 0.054,-0.169 -0.03,-0.218 L 89.287,0.045 A 0.42,0.42 0 0 0 88.965,0.022 L 85.561,1.365 A 0.51,0.51 0 0 1 85.229,1.36 L 84.158,0.91 a 0.163,0.163 0 0 0 -0.22,0.102 l -0.105,0.319 c -0.03,0.094 0.01,0.217 0.088,0.274 l 0.611,0.441 a 0.148,0.148 0 0 1 0.019,0.232 L 84.028,2.803 A 0.293,0.293 0 0 1 83.736,2.862 L 82.407,2.303 A 0.198,0.198 0 0 1 82.298,2.064 L 82.799,0.535 A 0.197,0.197 0 0 0 82.691,0.296 L 82.148,0.067 a 0.164,0.164 0 0 0 -0.22,0.101 l -0.652,1.991 a 0.711,0.711 0 0 0 -0.01,0.343 l 0.418,1.591 A 0.724,0.724 0 0 1 81.673,4.436 L 80.22,8.877 a 0.263,0.263 0 0 1 -0.235,0.17 h -0.783 a 0.22,0.22 0 0 0 -0.209,0.177 l -0.342,1.894 a 0.145,0.145 0 0 0 0.147,0.176 M 90.806,2.518 91.453,2.157 A 0.143,0.143 0 0 0 91.496,1.932 L 90.855,1.151 A 0.155,0.155 0 0 0 90.617,1.142 l -0.045,0.047 a 0.398,0.398 0 0 0 -0.097,0.306 l 0.146,0.932 c 0.016,0.097 0.098,0.138 0.185,0.091 m -0.011,1.007 0.173,1.098 a 0.349,0.349 0 0 0 0.192,0.246 l 1.916,0.804 c 0.09,0.039 0.195,0.146 0.231,0.237 l 0.183,0.467 a 0.264,0.264 0 0 0 0.243,0.156 L 93.985,6.517 A 0.283,0.283 0 0 0 94.22,6.337 L 94.788,4.595 A 0.273,0.273 0 0 0 94.704,4.315 L 93.859,3.655 A 0.493,0.493 0 0 1 93.701,3.367 L 93.559,1.987 C 93.548,1.89 93.47,1.849 93.383,1.896 l -2.46,1.365 a 0.275,0.275 0 0 0 -0.128,0.264"
         id="path2"
         style="fill:#ff0000" />
      <path
         d="M 96.999,3.817 94.854,2.57 C 94.77,2.519 94.709,2.56 94.719,2.658 l 0.026,0.24 a 0.477,0.477 0 0 0 0.162,0.287 l 1.167,0.896 a 0.268,0.268 0 0 1 0.087,0.279 l -1.013,3.095 a 0.282,0.282 0 0 1 -0.233,0.18 l -3.114,0.187 a 0.383,0.383 0 0 0 -0.272,0.163 l -1.394,2.263 a 0.15,0.15 0 0 0 0.073,0.222 l 0.656,0.275 c 0.092,0.038 0.14,0.146 0.109,0.239 l -0.698,2.112 a 0.164,0.164 0 0 1 -0.222,0.099 l -1.6,-0.672 a 1.098,1.098 0 0 0 -0.344,-0.07 h -0.802 a 0.148,0.148 0 0 0 -0.151,0.177 l 0.556,3.543 a 0.46,0.46 0 0 0 0.18,0.272 l 2.684,1.677 c 0.083,0.052 0.071,0.099 -0.027,0.104 l -2.382,0.139 a 0.318,0.318 0 0 0 -0.25,0.174 l -2.218,5.114 c -0.04,0.089 -0.091,0.241 -0.113,0.337 l -2.315,9.865 a 0.471,0.471 0 0 0 0.059,0.322 l 0.6,0.893 c 0.055,0.082 0.019,0.149 -0.08,0.149 H 82.994 A 0.374,0.374 0 0 1 82.717,35.07 l -0.46,-0.684 A 0.485,0.485 0 0 1 82.196,34.064 L 84.42,24.034 A 0.573,0.573 0 0 0 84.376,23.7 l -1.102,-2.148 a 0.282,0.282 0 0 1 0.035,-0.294 l 3.238,-3.747 a 0.433,0.433 0 0 0 0.09,-0.312 l -0.711,-4.523 a 0.22,0.22 0 0 0 -0.207,-0.178 l -6.946,-0.045 a 0.177,0.177 0 0 0 -0.179,0.177 v 0.096 a 0.465,0.465 0 0 1 -0.13,0.3 L 66.976,23.678 a 0.527,0.527 0 0 1 -0.31,0.121 h -1.502 a 0.523,0.523 0 0 0 -0.309,0.122 l -0.662,0.614 a 0.236,0.236 0 0 0 -0.043,0.277 l 1.463,2.528 a 0.45,0.45 0 0 1 0.031,0.324 l -2.57,7.386 a 0.445,0.445 0 0 0 0.032,0.324 l 0.437,0.75 a 0.346,0.346 0 0 0 0.269,0.155 h 4.83 a 0.227,0.227 0 0 0 0.212,-0.175 l 0.082,-0.421 A 0.383,0.383 0 0 0 68.847,35.38 l -1.622,-1.686 c -0.069,-0.07 -0.048,-0.152 0.047,-0.18 l 6.931,-2.092 c 0.093,-0.03 0.114,-0.109 0.045,-0.179 L 72.506,29.49 a 0.237,0.237 0 0 0 -0.279,-0.033 l -5.579,3.416 a 0.782,0.782 0 0 0 -0.238,0.251 l -1.051,1.938 a 0.332,0.332 0 0 1 -0.264,0.157 l -0.736,0.002 c -0.098,0 -0.146,-0.074 -0.105,-0.165 l 2.463,-5.517 a 0.379,0.379 0 0 1 0.25,-0.193 l 4.431,-0.763 a 0.288,0.288 0 0 0 0.214,-0.204 l 1.03,-4.754 a 0.343,0.343 0 0 0 -0.096,-0.293 l -1.011,-0.894 a 0.346,0.346 0 0 1 -0.099,-0.294 l 0.18,-0.919 c 0.018,-0.097 0.093,-0.123 0.167,-0.057 l 1.995,1.765 a 0.591,0.591 0 0 1 0.164,0.294 l 1.185,7.076 c 0.017,0.096 0.067,0.105 0.112,0.017 l 1.634,-3.178 a 0.26,0.26 0 0 1 0.257,-0.129 l 2.165,0.372 A 0.236,0.236 0 0 0 79.54,27.25 l 0.639,-1.525 a 0.732,0.732 0 0 0 0.041,-0.341 l -1.498,-9.143 c -0.016,-0.096 0.022,-0.114 0.087,-0.039 l 3.665,4.347 a 0.328,0.328 0 0 1 0.051,0.302 l -1.143,2.946 a 0.517,0.517 0 0 0 0.004,0.332 l 1.093,2.61 c 0.037,0.09 0.051,0.243 0.031,0.34 l -1.693,7.966 a 0.53,0.53 0 0 0 0.054,0.329 l 0.437,0.75 c 0.049,0.085 0.17,0.155 0.267,0.155 h 4.809 a 0.266,0.266 0 0 0 0.236,-0.17 l 0.144,-0.437 a 0.324,0.324 0 0 0 -0.067,-0.298 l -2.196,-2.281 a 0.28,0.28 0 0 1 -0.047,-0.291 l 2.556,-5.383 c 0.041,-0.089 0.087,-0.242 0.099,-0.34 l 0.451,-3.691 a 0.714,0.714 0 0 1 0.137,-0.315 l 3.689,-4.396 a 0.564,0.564 0 0 0 0.11,-0.316 l -0.116,-3.97 a 0.732,0.732 0 0 0 -0.11,-0.324 l -0.265,-0.37 a 0.395,0.395 0 0 1 -0.048,-0.316 l 0.646,-1.978 a 0.468,0.468 0 0 0 -0.032,-0.325 l -0.407,-0.711 a 0.16,0.16 0 0 1 0.075,-0.228 L 95.605,8.21 a 0.459,0.459 0 0 0 0.22,-0.243 L 97.097,4.076 A 0.23,0.23 0 0 0 96.999,3.817"
         id="path3"
         style="fill:#ff0000" />
      <path
         d="m 86.546,9.905 h -2.413 a 0.263,0.263 0 0 0 -0.235,0.17 l -0.342,1.049 c -0.032,0.094 0.023,0.17 0.122,0.17 h 3.086 c 0.098,0 0.168,-0.08 0.151,-0.177 L 86.752,10.082 A 0.217,0.217 0 0 0 86.546,9.905"
         id="path4"
         style="fill:#ff0000" />
    </g>
  </switch>
</svg>
